<?xml version="1.0" standalone="no"?>
<!DOCTYPE svg PUBLIC "-//W3C//DTD SVG 1.1//EN" "http://www.w3.org/Graphics/SVG/1.1/DTD/svg11.dtd" >
<svg>
<metadata>
Created by FontForge 20090622 at Tue Mar 28 10:19:45 2017
 By deploy user
Copyright (c) ParaType, Inc., 2005. All rights reserved.
</metadata>
<defs>
<font id="PragmaticaBook-Reg" horiz-adv-x="600" >
  <font-face 
    font-family="Pragmatica Book"
    font-weight="400"
    font-stretch="normal"
    units-per-em="1000"
    panose-1="2 11 5 3 4 5 2 2 2 4"
    ascent="800"
    descent="-200"
    x-height="508"
    cap-height="700"
    bbox="-589 -317 1632 960"
    underline-thickness="50"
    underline-position="-50"
    unicode-range="U+0020-U+FB17"
  />
<missing-glyph horiz-adv-x="233" 
 />
    <glyph glyph-name="IJ" unicode="IJ" horiz-adv-x="770" 
d="M85 700h94v-700h-94v700zM273 232h94q0 -88 27 -131t94 -43q69 0 92.5 44t23.5 131v467h94v-458q0 -139 -48.5 -201t-162.5 -62q-214 0 -214 217v36z" />
    <glyph glyph-name="ij" unicode="ij" horiz-adv-x="440" 
d="M70 508h88v-508h-88v508zM70 608v92h88v-92h-88zM282 508h88v-555q0 -72 -26.5 -107t-93.5 -35q-9 0 -57 4v62q19 3 30.5 5t22.5 6.5t16 5t10 8t6.5 9t2.5 14t1 16.5v23v544zM282 608v92h88v-92h-88z" />
    <glyph glyph-name="fi" unicode="fi" horiz-adv-x="510" 
d="M107 508v69q0 66 32.5 96.5t101.5 30.5q5 0 65 -4v-62q-14 1 -62 1q-49 0 -49 -70v-61h245v-508h-88v446h-157v-446h-88v446h-94v62h94zM352 608v92h88v-92h-88z" />
    <glyph glyph-name="fl" unicode="fl" horiz-adv-x="512" 
d="M195 508h157v192h88v-700h-88v446h-157v-446h-88v446h-94v62h94v69q0 66 32.5 96.5t101.5 30.5q5 0 65 -4v-62q-14 1 -62 1q-49 0 -49 -70v-61z" />
    <glyph glyph-name="afii10017.var.accented" unicode="&#x410;`" horiz-adv-x="622" 
d="M163 181l-66 -181h-101l265 700h100l265 -700h-101l-66 181h-296zM189 260h244l-122 345zM338 900h112l-102 -140h-84z" />
    <glyph glyph-name="afii10022.var.accented" unicode="&#x415;`" horiz-adv-x="612" 
d="M179 401h367v-79h-367v-243h416v-79h-510v700h499v-79h-405v-220zM313 900h112l-102 -140h-84z" />
    <glyph glyph-name="afii10026.var.accented" unicode="&#x418;`" horiz-adv-x="731" 
d="M179 137l373 563h94v-700h-94v567l-373 -567h-94v700h94v-563zM372 900h112l-102 -140h-84z" />
    <glyph glyph-name="afii10032.var.accented" unicode="&#x41e;`" horiz-adv-x="758" 
d="M45 350q0 179 91.5 275t242.5 96q49 0 94.5 -11t90 -38t77 -68t52.5 -106.5t20 -147.5q0 -75 -17 -135.5t-41.5 -98.5t-60 -65.5t-65.5 -41t-65.5 -21t-52 -8.5t-32.5 -1q-17 0 -33.5 1t-52 8.5t-65.5 21t-65.5 41t-60 65.5t-41 98.5t-16.5 135.5zM145 350q0 -39 5 -74.5
t20 -76.5t40 -71t68.5 -50t100.5 -20q15 0 28.5 1t38.5 7.5t45.5 17.5t44 33t39.5 51.5t27 76.5t11 105q0 131 -59 211.5t-175 80.5q-61 0 -106.5 -24t-69 -56.5t-37.5 -76.5t-17.5 -74.5t-3.5 -60.5zM386 900h112l-102 -140h-84z" />
    <glyph glyph-name="afii10037.var.accented" unicode="&#x423;`" horiz-adv-x="588" 
d="M325 279l168 421h99l-237 -575q-20 -47 -42.5 -76.5t-48 -41t-42.5 -14.5t-45 -3q-42 0 -78 10v82q32 -11 66 -11q18 0 30.5 3t28 12.5t28.5 31.5t23 56l-266 526h115zM301 900h112l-102 -140h-84z" />
    <glyph glyph-name="afii10045.var.accented" unicode="&#x42b;`" horiz-adv-x="858" 
d="M179 700v-285h202q107 0 166 -55t59 -155q0 -52 -16.5 -91.5t-40.5 -60.5t-57 -33.5t-58.5 -16t-52.5 -3.5h-296v700h94zM179 336v-257h189q23 0 44.5 5t45 17.5t38 40t14.5 66.5q0 27 -7.5 48t-17 34.5t-28.5 23t-32 13.5t-38 6.5t-35 2.5h-34h-139zM679 700h94v-700
h-94v700zM436 900h112l-102 -140h-84z" />
    <glyph glyph-name="afii10047.var.accented" unicode="&#x42d;`" horiz-adv-x="719" 
d="M244 401h330q0 21 -3.5 46t-17.5 61.5t-37 64.5t-66.5 48.5t-100.5 20.5q-89 0 -140 -41.5t-60 -104.5h-94q7 92 79.5 158.5t205.5 66.5q80 0 141.5 -24.5t97 -61t58 -87.5t30 -96.5t7.5 -93.5q0 -49 -6 -93.5t-27 -99t-55.5 -93.5t-96.5 -66t-145 -27q-63 0 -114 17.5
t-83 44.5t-55 63.5t-33 70t-14 68.5h94q3 -21 9 -41.5t21.5 -47.5t37 -47.5t58.5 -34.5t83 -14q52 0 93 16t64.5 40t39 56.5t21.5 60.5t8 58q2 17 0 33h-330v79zM366 900h112l-102 -140h-84z" />
    <glyph glyph-name="afii10048.var.accented" unicode="&#x42e;`" horiz-adv-x="993" 
d="M179 408h105q4 60 25.5 114t60 99.5t101.5 72.5t142 27q150 0 242.5 -96.5t92.5 -274.5q0 -79 -19.5 -144.5t-58.5 -117t-105 -80.5t-152 -29q-74 0 -132.5 21.5t-94 55.5t-59.5 81.5t-34 93.5t-13 98h-101v-329h-94v700h94v-292zM614 58q58 0 101.5 20t68 50t39.5 71.5
t20 77t5 73.5q0 74 -17.5 130t-42.5 85.5t-59.5 48t-60.5 23.5t-54 5q-27 0 -53 -5t-60.5 -23t-59.5 -48t-43 -86t-18 -130q0 -60 13 -110.5t39.5 -92.5t73 -65.5t108.5 -23.5zM503 900h112l-102 -140h-84z" />
    <glyph glyph-name="afii10049.var.accented" unicode="&#x42f;`" horiz-adv-x="680" 
d="M501 278h-159l-171 -278h-116l190 288q-29 1 -58 10.5t-60.5 30.5t-51.5 63t-20 99q0 94 57 151.5t184 57.5h299v-700h-94v278zM501 621h-197q-85 0 -119 -39t-34 -92q0 -133 166 -133h184v264zM347 900h112l-102 -140h-84z" />
    <glyph glyph-name="afii10065.var.accented" unicode="&#x430;`" horiz-adv-x="553" 
d="M139 358h-84q0 29 9 56t31 54t67 43.5t109 16.5q36 0 67.5 -6.5t64.5 -23t52 -53t18 -88.5l-5 -235q0 -19 1 -27t5.5 -18t15.5 -13t31 -2v-62q-16 -4 -40 -4q-42 0 -62.5 14t-28.5 60q-25 -46 -71.5 -68t-102.5 -22q-84 0 -131.5 38t-47.5 115q0 71 52 109.5t197 51.5
q66 4 80 13q19 13 19 57q0 102 -114 102q-135 0 -132 -108zM383 217l2 43q-9 -7 -21.5 -11.5t-22.5 -6t-31.5 -3.5t-36.5 -4q-80 -13 -101 -23q-44 -21 -44 -76q0 -44 27 -69t71 -25q28 0 53 8t48 26.5t38 54.5t18 86zM284 700h106l-96 -132h-80z" />
    <glyph glyph-name="afii10070.var.accented" unicode="&#x435;`" horiz-adv-x="570" 
d="M438 147h84q-12 -67 -64.5 -117t-157.5 -50q-52 0 -93.5 13t-67.5 32.5t-45.5 47.5t-29 52t-14.5 53t-6 44t-1 30q0 29 3 56.5t17 70t38.5 73t73.5 53.5t116 23q58 0 101.5 -18t67.5 -44t39 -65.5t20 -71t7 -70.5q0 -4 0.5 -12.5t0.5 -12.5h-391q0 -75 40.5 -133.5
t120.5 -58.5q60 0 96 29.5t45 75.5zM136 296h298q-1 30 -7.5 56t-20.5 53.5t-43 44t-70 16.5q-46 0 -79 -17t-49 -44.5t-22.5 -54t-6.5 -54.5zM293 700h106l-96 -132h-80z" />
    <glyph glyph-name="afii10074.var.accented" unicode="&#x438;`" horiz-adv-x="595" 
d="M160 103l265 405h98v-508h-88v406l-264 -406h-99v508h88v-405zM305 700h106l-96 -132h-80z" />
    <glyph glyph-name="afii10080.var.accented" unicode="&#x43e;`" horiz-adv-x="586" 
d="M43 254q0 53 13.5 100t41.5 87t78 63.5t117 23.5t117 -23.5t78 -63.5t41.5 -87t13.5 -100t-13.5 -100t-41.5 -87t-78 -63.5t-117 -23.5t-117 23.5t-78 63.5t-41.5 87t-13.5 100zM136 255q0 -58 13 -100.5t30.5 -63t42 -33t39.5 -14.5t32 -2t32 2t39.5 14.5t42 33t30.5 63
t13 100.5t-13 100.5t-30.5 63t-42 33t-39.5 14.5t-32 2t-32 -2t-39.5 -14.5t-42 -33t-30.5 -63t-13 -100.5zM301 700h106l-96 -132h-80z" />
    <glyph glyph-name="afii10085.var.accented" unicode="&#x443;`" horiz-adv-x="498" 
d="M91 -184v65q34 -5 44 -5q19 0 31.5 5.5t22.5 22t13.5 25t12.5 33.5l12 38l-220 508h105l163 -411l135 411h88l-202 -568q-22 -65 -41 -89q-34 -40 -92 -40q-48 0 -72 5zM257 700h106l-96 -132h-80z" />
    <glyph glyph-name="afii10093.var.accented" unicode="&#x44b;`" horiz-adv-x="714" 
d="M72 508h88v-201h128q28 0 49.5 -1.5t52.5 -10.5t51.5 -24.5t35.5 -46t15 -72.5q0 -66 -40 -109t-134 -43h-246v508zM160 245v-183h123q118 0 118 96q0 25 -9.5 42.5t-21 26t-33 13t-34 5t-36.5 0.5h-107zM554 508h88v-508h-88v508zM365 700h106l-96 -132h-80z" />
    <glyph glyph-name="afii10095.var.accented" unicode="&#x44d;`" horiz-adv-x="553" 
d="M198 233v62h219q-1 45 -13.5 78t-28.5 50t-37 27.5t-36 13t-29 2.5q-66 0 -105 -33t-43 -84h-84q5 41 19.5 72.5t36 50t43.5 31t48.5 17.5t42.5 6.5t33 1.5q246 0 246 -278q0 -270 -241 -270q-27 0 -48.5 2t-54.5 13t-56 30.5t-44 58t-29 92.5h84q17 -134 148 -134
q49 0 81.5 22t45.5 57.5t17 60.5t4 51h-219zM284 700h106l-96 -132h-80z" />
    <glyph glyph-name="afii10096.var.accented" unicode="&#x44e;`" horiz-adv-x="780" 
d="M160 299h80q10 94 70.5 161.5t176.5 67.5q107 0 178.5 -67.5t71.5 -205.5q0 -77 -24 -133t-54.5 -82t-72 -41t-60.5 -17t-37 -2q-55 0 -98 16.5t-69.5 41.5t-45 60.5t-26 68.5t-10.5 70h-80v-237h-88v508h88v-209zM333 255q0 -35 5.5 -67t20.5 -67.5t48.5 -57t81.5 -21.5
q43 0 74.5 19t46 43t23 58.5t10 53t1.5 39.5q0 20 -1.5 39t-10 53t-23.5 58t-46 42.5t-74 18.5q-17 0 -31.5 -2t-39 -14t-42 -32.5t-30.5 -63t-13 -99.5zM398 700h106l-96 -132h-80z" />
    <glyph glyph-name="afii10097.var.accented" unicode="&#x44f;`" horiz-adv-x="543" 
d="M267 200l-133 -200h-97l140 201q-56 6 -93 44t-37 103q0 28 7 53t24 50.5t53 41t87 15.5h253v-508h-88v200h-116zM383 446h-127q-118 0 -118 -95q0 -36 27 -62.5t94 -26.5h124v184zM279 700h106l-96 -132h-80z" />
    <glyph glyph-name="ff" unicode="ff" horiz-adv-x="566" 
d="M108 508v69q0 66 32.5 96.5t101.5 30.5q5 0 65 -4v-62q-14 1 -62 1q-49 0 -49 -70v-61h157v69q0 66 32.5 96.5t101.5 30.5q5 0 65 -4v-62q-6 0 -15 0.5t-14 0.5q-25 2 -33 0q-49 -8 -49 -70v-61h111v-62h-111v-446h-88v446h-157v-446h-88v446h-94v62h94z" />
    <glyph glyph-name="ffi" unicode="ffi" horiz-adv-x="756" 
d="M108 508v69q0 66 32.5 96.5t101.5 30.5q5 0 65 -4v-62q-14 1 -62 1q-49 0 -49 -70v-61h157v69q0 66 32.5 96.5t101.5 30.5q5 0 65 -4v-62q-6 0 -15 0.5t-14 0.5q-25 2 -33 0q-49 -8 -49 -70v-61h245v-508h-88v446h-157v-446h-88v446h-157v-446h-88v446h-94v62h94z
M598 608v92h88v-92h-88z" />
    <glyph glyph-name="ffl" unicode="ffl" horiz-adv-x="758" 
d="M108 508v69q0 66 32.5 96.5t101.5 30.5q5 0 65 -4v-62q-14 1 -62 1q-49 0 -49 -70v-61h157v69q0 66 32.5 96.5t101.5 30.5q5 0 65 -4v-62q-6 0 -15 0.5t-14 0.5q-25 2 -33 0q-49 -8 -49 -70v-61h157v192h88v-700h-88v446h-157v-446h-88v446h-157v-446h-88v446h-94v62h94z
" />
    <glyph glyph-name="armenianMenNow" unicode="&#x574;&#x576;" horiz-adv-x="1146" 
d="M72 508h88v-311q0 -87 27 -122q26 -33 80 -33q56 0 96 36q50 46 50 119v311h-42q-38 0 -73 14t-56 36q-36 41 -36 119v23h84v-22q0 -57 20 -81q21 -27 75 -27h28v130h185v-62h-97v-68h232v-373q0 -87 27 -122q26 -33 80 -33q75 0 116 58q30 38 30 97v311h88v-508h-88v72
q-60 -92 -174 -92q-79 0 -122 43q-27 27 -36 62t-9 86v337h-144v-508h-88v72q-60 -92 -174 -92q-79 0 -122 43q-27 27 -36 62t-9 86v337z" />
    <glyph glyph-name="armenianMenEch" unicode="&#x574;&#x565;" horiz-adv-x="1142" 
d="M72 508h88v-311q0 -87 27 -122q26 -33 80 -33q56 0 96 36q50 46 50 119v278q-27 17 -42 32q-32 32 -34 83q-1 62 44 91q31 19 97 19h249l-1 -192h356v-62h-355v-249q0 -33 0.5 -47.5t7 -37.5t19.5 -38q27 -32 79 -32q54 0 95 36q23 21 35 49.5t14 48.5t2 55v117h88v-348
h-88v71q-62 -91 -174 -91q-79 0 -122 43q-20 20 -30.5 48.5t-12 48.5t-1.5 50v468h-147q-15 0 -23.5 -1t-21 -4.5t-19.5 -14t-8 -26.5q-3 -33 26 -59q22 -18 55 -29v-504h-88v72q-60 -92 -174 -92q-79 0 -122 43q-27 27 -36 62t-9 86v337z" />
    <glyph glyph-name="armenianMenIni" unicode="&#x574;&#x56b;" horiz-adv-x="1139" 
d="M72 508h88v-311q0 -87 27 -122q26 -33 80 -33q56 0 96 36q50 46 50 119v278q-27 17 -42 32q-32 32 -34 83q-1 62 44 91q31 19 97 19h249v-263q62 91 174 91q79 0 122 -43q20 -20 30.5 -48.5t12 -48.5t1.5 -50v-338h-88v311q0 33 -0.5 47.5t-7 37.5t-19.5 38
q-27 32 -79 32q-54 0 -95 -36q-23 -21 -35 -49.5t-14 -48.5t-2 -55v-462h-88v823h-147q-15 0 -23.5 -1t-21 -4.5t-19.5 -14t-8 -26.5q-3 -33 26 -59q22 -18 55 -29v-504h-88v72q-60 -92 -174 -92q-79 0 -122 43q-27 27 -36 62t-9 86v337z" />
    <glyph glyph-name="armenianVewNow" unicode="&#x57e;&#x576;" horiz-adv-x="1139" 
d="M72 508h88v-311v-8q0 -86 25 -115q30 -32 81 -32q54 0 95 36q23 21 35 49.5t14 48.5t2 55v297h-45q-68 0 -107 31q-46 35 -46 111v30h84v-28q0 -43 19 -62q20 -20 57 -20h38v110h88v-110h226v-393q0 -87 27 -122q26 -33 80 -33q75 0 116 58q30 38 30 97v311h88v-508h-88
v72q-60 -92 -174 -92q-79 0 -122 43q-27 27 -36 62t-9 86v357h-138v-668h102v-62h-190v273q-62 -91 -174 -91q-79 0 -122 43q-20 20 -30.5 48.5t-12 48.5t-1.5 50v338z" />
    <glyph glyph-name="armenianMenXeh" unicode="&#x574;&#x56d;" horiz-adv-x="1345" 
d="M72 508h88v-311q0 -87 27 -122q26 -33 80 -33q56 0 96 36q50 46 50 119v278q-27 17 -42 32q-32 32 -34 83q-1 62 44 91q31 19 97 19h249v-192h226v-311q0 -92 24 -122q23 -33 73 -33q52 0 88 36q47 47 47 119v311h88v-508h-88v72q-59 -92 -163 -92q-75 0 -115 43
q-42 46 -42 148v275h-138v-631h-88v823h-147q-15 0 -23.5 -1t-21 -4.5t-19.5 -14t-8 -26.5q-3 -33 26 -59q22 -18 55 -29v-504h-88v72q-60 -92 -174 -92q-79 0 -122 43q-27 27 -36 62t-9 86v337z" />
    <glyph glyph-name=".notdef" horiz-adv-x="233" 
 />
    <glyph glyph-name=".notdef" horiz-adv-x="233" 
 />
    <glyph glyph-name=".null" horiz-adv-x="0" 
 />
    <glyph glyph-name="nonmarkingreturn" horiz-adv-x="333" 
 />
    <glyph glyph-name="space" unicode=" " horiz-adv-x="233" 
 />
    <glyph glyph-name="space" unicode="&#xa0;" horiz-adv-x="233" 
 />
    <glyph glyph-name="exclam" unicode="!" horiz-adv-x="311" 
d="M106 700h99v-269l-25 -230h-49l-25 230v269zM106 0v109h99v-109h-99z" />
    <glyph glyph-name="quotedbl" unicode="&#x22;" horiz-adv-x="420" 
d="M182 700l-40 -192h-52l-40 192h132zM370 700l-40 -192h-52l-40 192h132z" />
    <glyph glyph-name="numbersign" unicode="#" horiz-adv-x="580" 
d="M377 10h-68l26 168h-143l-26 -168h-68l26 168h-134l13 85h134l28 179h-134l13 85h134l26 167h68l-26 -167h143l26 167h68l-26 -167h134l-13 -85h-134l-28 -179h134l-13 -85h-134zM348 263l28 179h-143l-28 -179h143z" />
    <glyph glyph-name="dollar" unicode="$" horiz-adv-x="580" 
d="M37 208h89q2 -43 16.5 -73.5t36.5 -46.5t44 -23t45 -8v266q-68 15 -112 36t-65 48.5t-28.5 53.5t-7.5 62q0 46 15 81t37.5 55t52.5 32.5t56 16.5t52 4v65h53v-65q31 -1 62 -9t64.5 -26.5t53.5 -56.5t18 -90h-86q-1 46 -32 80.5t-80 35.5v-247q57 -10 99.5 -28.5t65 -39
t36 -47.5t17 -47.5t3.5 -44.5q0 -50 -17 -88t-41 -59t-57 -34t-57 -17.5t-49 -5.5v-81h-53v81q-111 5 -167.5 58t-63.5 162zM321 314v-257q61 -1 96.5 39t35.5 96q0 60 -40.5 88t-91.5 34zM268 408v238q-20 0 -38.5 -5t-40 -16.5t-34.5 -37t-13 -61.5q0 -49 31 -77.5
t95 -40.5z" />
    <glyph glyph-name="percent" unicode="%" horiz-adv-x="911" 
d="M195 0l454 700h71l-454 -700h-71zM53 508q0 58 17.5 100t45 62.5t52.5 29t49 8.5t49 -8.5t52.5 -29t45 -62.5t17.5 -100q0 -31 -7.5 -62.5t-24 -64t-51 -53t-81.5 -20.5t-81.5 20.5t-51 53t-24 64t-7.5 62.5zM117 508q0 -21 3.5 -43t13.5 -47t31 -41t52 -16t52 16t31 41
t13.5 47t3.5 43q0 78 -31 112.5t-69 34.5t-69 -34.5t-31 -112.5zM530 192q0 58 17.5 100t45 62.5t52.5 29t49 8.5t49 -8.5t52.5 -29t45 -62.5t17.5 -100q0 -31 -7.5 -62.5t-24 -64t-51 -53t-81.5 -20.5t-81.5 20.5t-51 53t-24 64t-7.5 62.5zM594 192q0 -21 3.5 -43t13.5 -47
t31 -41t52 -16t52 16t31 41t13.5 47t3.5 43q0 78 -31 112.5t-69 34.5t-69 -34.5t-31 -112.5z" />
    <glyph glyph-name="ampersand" unicode="&#x26;" horiz-adv-x="683" 
d="M542 306h79q-19 -104 -58 -164l120 -142h-105l-69 82q-32 -51 -92 -77t-125 -26q-110 0 -165 62.5t-55 145.5q0 77 42 127.5t130 90.5q-69 81 -69 151q0 67 46.5 105.5t116.5 38.5q72 0 112.5 -41.5t40.5 -99.5q0 -60 -39.5 -105.5t-91.5 -68.5l153 -182q18 28 29 103z
M463 139l-173 209q-127 -50 -127 -160q0 -52 36.5 -93t104.5 -41q50 0 92.5 22t66.5 63zM317 438q41 15 67.5 47.5t26.5 75.5q0 30 -21 51.5t-53 21.5t-56 -19t-24 -57q0 -22 10.5 -46t19.5 -36t30 -38z" />
    <glyph glyph-name="quotesingle" unicode="'" horiz-adv-x="232" 
d="M182 700l-40 -192h-52l-40 192h132z" />
    <glyph glyph-name="parenleft" unicode="(" horiz-adv-x="365" 
d="M216 700h66q-122 -236 -122 -442q0 -106 33.5 -223t88.5 -219h-66q-87 148 -116 243t-29 199t29 199t116 243z" />
    <glyph glyph-name="parenright" unicode=")" horiz-adv-x="365" 
d="M149 -184h-66q122 236 122 442q0 205 -122 442h66q87 -139 116 -243.5t29 -198.5t-29 -198.5t-116 -243.5z" />
    <glyph glyph-name="asterisk" unicode="*" horiz-adv-x="465" 
d="M233 511l-80 -108l-40 30l78 108l-125 40l16 47l126 -40v132h50v-132l125 40l16 -47l-124 -40l78 -108l-41 -30z" />
    <glyph glyph-name="plus" unicode="+" 
d="M50 386h219v219h62v-219h219v-62h-219v-219h-62v219h-219v62z" />
    <glyph glyph-name="comma" unicode="," horiz-adv-x="311" 
d="M106 109h99v-140q0 -53 -30.5 -81t-68.5 -36v55q21 2 35.5 20.5t14.5 41.5v31h-50v109z" />
    <glyph glyph-name="hyphen" unicode="-" horiz-adv-x="422" 
d="M79 225v85h264v-85h-264z" />
    <glyph glyph-name="hyphen" unicode="&#x2010;" horiz-adv-x="422" 
d="M79 225v85h264v-85h-264z" />
    <glyph glyph-name="hyphen" unicode="&#xad;" horiz-adv-x="422" 
d="M79 225v85h264v-85h-264z" />
    <glyph glyph-name="period" unicode="." horiz-adv-x="311" 
d="M106 0v109h99v-109h-99z" />
    <glyph glyph-name="slash" unicode="/" horiz-adv-x="420" 
d="M0 -185l357 885h63l-357 -885h-63z" />
    <glyph glyph-name="zero" unicode="0" horiz-adv-x="580" 
d="M290 -21q-24 0 -46.5 3.5t-61.5 24.5t-66.5 57t-49 110.5t-21.5 175.5t21.5 175.5t49 110.5t66.5 57t61.5 24.5t46.5 3.5t46.5 -3.5t61.5 -24.5t66.5 -57t49 -110.5t21.5 -175.5t-21.5 -175.5t-49 -110.5t-66.5 -57t-61.5 -24.5t-46.5 -3.5zM290 58q79 0 115.5 81
t36.5 211t-36.5 211t-115.5 81t-115.5 -81t-36.5 -211t36.5 -211t115.5 -81z" />
    <glyph glyph-name="one" unicode="1" horiz-adv-x="580" 
d="M130 526v49h21q65 0 112 34.5t55 90.5h66v-700h-94v526h-160z" />
    <glyph glyph-name="two" unicode="2" horiz-adv-x="580" 
d="M531 79v-79h-474q0 41 7 75.5t25 64t34.5 50.5t49.5 46.5t55 40.5t66 42q2 1 20 12.5t22 14.5t20 14t22 17.5l18 19t17 23l12 25t9.5 30t2.5 33.5q0 65 -38 99.5t-103 34.5q-67 0 -106 -38t-39 -101v-26h-92v21q0 23 4 47.5t19.5 57.5t40 58t70.5 42.5t106 17.5
q108 0 171 -56.5t63 -155.5q0 -33 -4.5 -58.5t-18.5 -49.5t-27.5 -40.5t-45 -40.5t-55.5 -40l-74 -48q-71 -45 -104 -79.5t-43 -73.5h370z" />
    <glyph glyph-name="three" unicode="3" horiz-adv-x="580" 
d="M40 213h90l3 -23q21 -136 146 -136q41 0 72 11.5t47 27.5t25.5 38t12 38t2.5 33q0 58 -34.5 92t-93.5 34h-72v76h28q15 0 28 1t38 7.5t42.5 18t31 36t13.5 58.5q0 50 -31.5 85.5t-106.5 35.5q-136 0 -136 -159h-87q0 25 2.5 48.5t15.5 59.5t35.5 62t67 45t105.5 19
q55 0 97.5 -15t65 -36.5t37 -49.5t18.5 -49.5t4 -41.5q0 -57 -31.5 -99t-83.5 -56v-2q57 -8 96 -54.5t39 -122.5q0 -101 -67 -158.5t-174 -57.5q-58 0 -103 16t-70.5 39.5t-42 56.5t-22.5 61.5t-7 60.5z" />
    <glyph glyph-name="four" unicode="4" horiz-adv-x="580" 
d="M353 162h-330v79l329 459h95v-459h110v-79h-110v-162h-94v162zM113 241h240v336z" />
    <glyph glyph-name="five" unicode="5" horiz-adv-x="580" 
d="M46 179h92q2 -20 10 -39.5t23 -40t44 -33t67 -12.5q163 0 163 173q0 86 -44.5 125.5t-109.5 39.5q-38 0 -79 -16.5t-58 -44.5h-88l49 369h378v-79h-309l-28 -207q60 53 158 53t158.5 -64.5t60.5 -174.5q0 -111 -63.5 -180t-187.5 -69q-64 0 -111 19.5t-72 51.5
t-37.5 63.5t-15.5 65.5z" />
    <glyph glyph-name="six" unicode="6" horiz-adv-x="580" 
d="M525 546h-84q-24 100 -134 100q-170 0 -170 -259h2q55 74 171 74q98 0 161.5 -63.5t63.5 -171.5q0 -111 -64 -179t-176 -68q-61 0 -105 17.5t-78 58t-51 112t-17 174.5q0 77 12 139t29 100.5t43.5 67t49 42t51.5 21.5t44.5 9t34.5 1q18 0 35.5 -1.5t49 -11.5t55.5 -27
t46.5 -52t30.5 -83zM143 224q0 -71 40 -120.5t116 -49.5q72 0 109 50t37 123q0 68 -38.5 113.5t-109.5 45.5q-73 0 -113.5 -44t-40.5 -118z" />
    <glyph glyph-name="seven" unicode="7" horiz-adv-x="580" 
d="M34 621v79h511v-64q-122 -136 -194 -314q-58 -139 -77 -322h-100q21 167 84 314q78 178 195 307h-419z" />
    <glyph glyph-name="eight" unicode="8" horiz-adv-x="580" 
d="M181 379q-47 17 -74 59.5t-27 94.5q0 31 9.5 61t31.5 60t65.5 48.5t103.5 18.5t103.5 -18.5t65.5 -48.5t31.5 -60t9.5 -61q0 -52 -27 -94.5t-74 -59.5q58 -15 92.5 -66.5t34.5 -114.5q0 -96 -60 -157.5t-176 -61.5t-176 61.5t-60 157.5q0 63 34.5 114.5t92.5 66.5z
M290 412q64 0 94 33t30 85q0 17 -4.5 34t-16 37t-38.5 32.5t-65 12.5t-65 -12.5t-38.5 -32.5t-16 -37t-4.5 -34q0 -52 30 -85t94 -33zM290 54q57 0 101.5 38t44.5 111q0 54 -34 95.5t-112 41.5t-112 -41.5t-34 -95.5q0 -73 44 -111t102 -38z" />
    <glyph glyph-name="nine" unicode="9" horiz-adv-x="580" 
d="M54 154h84q24 -100 134 -100q170 0 170 259h-2q-55 -74 -171 -74q-99 0 -162 63.5t-63 171.5q0 111 64 179t176 68q41 0 73 -6.5t67 -29t58 -60.5t38 -106t15 -160q0 -380 -264 -380q-18 0 -35.5 1.5t-49 11.5t-55.5 27t-46.5 52t-30.5 83zM436 476q0 71 -40 120.5
t-116 49.5q-72 0 -109 -50t-37 -123q0 -69 38 -114t110 -45q73 0 113.5 44t40.5 118z" />
    <glyph glyph-name="colon" unicode=":" horiz-adv-x="311" 
d="M106 399v109h99v-109h-99zM106 0v109h99v-109h-99z" />
    <glyph glyph-name="semicolon" unicode=";" horiz-adv-x="311" 
d="M106 399v109h99v-109h-99zM106 109h99v-140q0 -53 -30.5 -81t-68.5 -36v55q21 2 35.5 20.5t14.5 41.5v31h-50v109z" />
    <glyph glyph-name="semicolon" unicode="&#x37e;" horiz-adv-x="311" 
d="M106 399v109h99v-109h-99zM106 109h99v-140q0 -53 -30.5 -81t-68.5 -36v55q21 2 35.5 20.5t14.5 41.5v31h-50v109z" />
    <glyph glyph-name="less" unicode="&#x3c;" horiz-adv-x="669" 
d="M60 366l495 285l30 -54l-449 -255l449 -255l-30 -54l-495 285v48z" />
    <glyph glyph-name="equal" unicode="=" 
d="M50 476h500v-62h-500v62zM50 276h500v-62h-500v62z" />
    <glyph glyph-name="greater" unicode="&#x3e;" horiz-adv-x="669" 
d="M609 318l-495 -285l-30 54l449 255l-449 255l30 54l495 -285v-48z" />
    <glyph glyph-name="question" unicode="?" horiz-adv-x="548" 
d="M220 0v109h99v-109h-99zM140 489h-87q-4 99 47.5 163.5t177.5 64.5q100 0 158.5 -47.5t58.5 -133.5q0 -55 -23.5 -93t-79.5 -86q-27 -22 -42 -36.5t-29 -41t-14 -55.5v-21h-73q-11 94 45 152q9 10 51.5 47t60 64.5t17.5 65.5q0 42 -31 77.5t-100 35.5q-142 0 -137 -156z
" />
    <glyph glyph-name="at" unicode="@" horiz-adv-x="863" 
d="M588 82l29 -53q-85 -50 -186 -50q-160 0 -265.5 98.5t-105.5 273.5q0 162 107 266t264 104q92 0 164.5 -28.5t117 -78t67.5 -111.5t23 -132q0 -86 -49.5 -155t-132.5 -69q-68 0 -89 48q-27 -54 -122 -54q-81 0 -127 53t-46 144q0 85 45 141t121 56q82 0 118 -55h3v41h76
v-252q0 -35 10 -46.5t28 -11.5q50 0 76 49t26 111q0 138 -87.5 216t-221.5 78q-138 0 -223 -92.5t-85 -221.5q0 -79 27.5 -141.5t72.5 -99t98.5 -55.5t109.5 -19q86 0 157 46zM517 337q0 132 -96 132q-51 0 -75.5 -37.5t-24.5 -94.5q0 -33 7 -60t30.5 -49t61.5 -22
q55 0 76 39.5t21 91.5z" />
    <glyph glyph-name="A" unicode="A" horiz-adv-x="622" 
d="M163 181l-66 -181h-101l265 700h100l265 -700h-101l-66 181h-296zM189 260h244l-122 345z" />
    <glyph glyph-name="B" unicode="B" horiz-adv-x="689" 
d="M85 700h307q61 0 104 -15.5t64.5 -43t31 -56.5t9.5 -63q0 -56 -33.5 -99t-83.5 -51v-3q25 -4 48 -14t46.5 -29t38 -53t14.5 -78q0 -195 -250 -195h-296v700zM179 621v-218h189q72 0 104.5 30.5t32.5 78.5q0 18 -5 34.5t-18 34.5t-41.5 29t-69.5 11h-192zM179 324v-245
h195q24 0 42.5 2t42 9t39 20t26.5 36.5t11 56.5q0 121 -161 121h-195z" />
    <glyph glyph-name="C" unicode="C" horiz-adv-x="712" 
d="M580 232h94q-4 -34 -13.5 -65t-31.5 -66.5t-53 -61.5t-82.5 -43t-115.5 -17q-156 0 -244.5 95.5t-88.5 263.5q0 76 15.5 138t39 101t57 68t63 43t64.5 22t53.5 9.5t37.5 1.5q64 0 114.5 -14.5t81 -37.5t51.5 -55.5t30 -63.5t13 -66h-94q-2 24 -11 47t-28.5 50.5t-60 44
t-96.5 16.5q-63 0 -109.5 -25t-71.5 -68.5t-37 -95t-12 -111.5q0 -125 64 -204.5t173 -79.5q83 0 138.5 49t59.5 125z" />
    <glyph glyph-name="D" unicode="D" horiz-adv-x="719" 
d="M85 700h257q22 0 41.5 -1t55.5 -8.5t65 -20t62.5 -39t56 -62t37.5 -91.5t15 -126q0 -71 -15 -127.5t-36.5 -93t-56.5 -62.5t-64.5 -39t-71 -20t-66 -8.5t-58.5 -1.5h-222v700zM179 621v-542h131q136 0 200.5 65.5t64.5 205.5q0 76 -20 131t-55 84.5t-75 42.5t-88 13h-158
z" />
    <glyph glyph-name="E" unicode="E" horiz-adv-x="612" 
d="M179 401h367v-79h-367v-243h416v-79h-510v700h499v-79h-405v-220z" />
    <glyph glyph-name="F" unicode="F" horiz-adv-x="568" 
d="M179 393h329v-79h-329v-314h-94v700h470v-79h-376v-228z" />
    <glyph glyph-name="G" unicode="G" horiz-adv-x="740" 
d="M396 365h286v-365h-73v113h-2q-30 -64 -90.5 -99t-142.5 -35q-66 0 -122.5 20t-104 62.5t-75 118.5t-27.5 177q0 175 91.5 269.5t250.5 94.5q131 0 202.5 -66t82.5 -162h-94q-5 59 -50 104t-143 45q-63 0 -109.5 -23.5t-70.5 -55.5t-38.5 -76t-18 -73.5t-3.5 -59.5
q0 -15 1.5 -33t7 -48t15 -57.5t27.5 -57t42.5 -51t62 -35.5t83.5 -14q61 0 105 23t66 59.5t31.5 72.5t9.5 73h-200v79z" />
    <glyph glyph-name="H" unicode="H" horiz-adv-x="710" 
d="M179 329v-329h-94v700h94v-292h352v292h94v-700h-94v329h-352z" />
    <glyph glyph-name="I" unicode="I" horiz-adv-x="264" 
d="M85 700h94v-700h-94v700z" />
    <glyph glyph-name="J" unicode="J" horiz-adv-x="520" 
d="M23 232h94q0 -88 27 -131t94 -43q69 0 92.5 44t23.5 131v467h94v-458q0 -139 -48.5 -201t-162.5 -62q-214 0 -214 217v36z" />
    <glyph glyph-name="K" unicode="K" horiz-adv-x="667" 
d="M179 353l346 347h127l-292 -288l311 -412h-125l-255 349l-112 -109v-240h-94v700h94v-347z" />
    <glyph glyph-name="L" unicode="L" horiz-adv-x="529" 
d="M535 79v-79h-450v700h94v-621h356z" />
    <glyph glyph-name="M" unicode="M" horiz-adv-x="890" 
d="M407 0l-228 588h-2l2 -27v-561h-94v700h141l219 -576l219 576h141v-700h-94v561l2 27h-3l-227 -588h-76z" />
    <glyph glyph-name="N" unicode="N" horiz-adv-x="740" 
d="M179 555v-555h-94v700h104l372 -555v555h94v-700h-103z" />
    <glyph glyph-name="O" unicode="O" horiz-adv-x="758" 
d="M45 350q0 179 91.5 275t242.5 96q49 0 94.5 -11t90 -38t77 -68t52.5 -106.5t20 -147.5q0 -75 -17 -135.5t-41.5 -98.5t-60 -65.5t-65.5 -41t-65.5 -21t-52 -8.5t-32.5 -1q-17 0 -33.5 1t-52 8.5t-65.5 21t-65.5 41t-60 65.5t-41 98.5t-16.5 135.5zM145 350q0 -39 5 -74.5
t20 -76.5t40 -71t68.5 -50t100.5 -20q15 0 28.5 1t38.5 7.5t45.5 17.5t44 33t39.5 51.5t27 76.5t11 105q0 131 -59 211.5t-175 80.5q-61 0 -106.5 -24t-69 -56.5t-37.5 -76.5t-17.5 -74.5t-3.5 -60.5z" />
    <glyph glyph-name="P" unicode="P" horiz-adv-x="639" 
d="M85 700h285q237 0 237 -201q0 -220 -246 -220h-182v-279h-94v700zM179 621v-263h172q83 0 121.5 34.5t38.5 104.5q0 65 -39 94.5t-121 29.5h-172z" />
    <glyph glyph-name="Q" unicode="Q" horiz-adv-x="758" 
d="M612 62l79 -87l-52 -49l-83 93q-65 -40 -177 -40q-78 0 -138.5 24.5t-96.5 62t-59 88.5t-31.5 98.5t-8.5 97.5q0 42 6.5 85t28.5 96.5t57 94t97.5 68t144.5 27.5q151 0 242.5 -96t91.5 -275q0 -180 -101 -288zM471 220l79 -89q63 81 63 219q0 74 -18 130t-43.5 86t-60 48
t-60.5 23t-52 5q-28 0 -54 -5t-60.5 -23.5t-59.5 -48t-42.5 -85.5t-17.5 -130q0 -37 5 -72.5t20 -76.5t39.5 -71.5t68.5 -51t101 -20.5q73 0 116 28l-78 87z" />
    <glyph glyph-name="R" unicode="R" horiz-adv-x="681" 
d="M85 0v700h310q232 0 232 -188q0 -62 -32.5 -111.5t-87.5 -61.5v-3q34 -13 55 -30t30 -42t12 -44t4 -53q0 -14 0.5 -37t1 -31.5t1.5 -24t2.5 -22.5t4.5 -17.5t7.5 -18t10.5 -16.5h-99q-17 23 -21.5 50t-4.5 98q0 33 -3.5 54.5t-15.5 46t-40 36.5t-73 12h-200v-297h-94z
M179 621v-245h210q16 0 32 2.5t36 11t35 21.5t25 36.5t10 54.5q0 119 -152 119h-196z" />
    <glyph glyph-name="S" unicode="S" horiz-adv-x="656" 
d="M45 222h94q-2 -71 52 -117.5t148 -46.5q87 0 129.5 37.5t42.5 92.5q0 31 -12 53.5t-35 35.5t-43.5 20.5t-50.5 13.5q-15 3 -47 10l-46.5 10t-42 10t-40.5 12.5l-34 15t-31.5 18.5t-24 23t-20 30t-11 36t-4.5 44q0 97 72 149t193 52q122 0 187 -57.5t72 -145.5h-94
q-14 124 -168 124q-73 0 -117.5 -31.5t-44.5 -85.5q0 -21 5.5 -37t20.5 -27.5t26 -19t38 -14.5t39 -9.5l46 -9.5q33 -6 48 -9.5l45.5 -11t46.5 -15t39.5 -19.5t36.5 -27t26.5 -34.5t19 -45t5.5 -56.5q0 -43 -13 -77.5t-31.5 -56t-47 -37t-52 -23t-54 -12t-45.5 -5t-34 -0.5
q-277 0 -289 243z" />
    <glyph glyph-name="T" unicode="T" horiz-adv-x="575" 
d="M241 621h-228v79h549v-79h-227v-621h-94v621z" />
    <glyph glyph-name="U" unicode="U" horiz-adv-x="696" 
d="M72 700h94v-417q0 -34 2 -57.5t12 -58t28 -56t54 -37.5t86 -16q101 0 141.5 55t40.5 170v417h94v-429q0 -59 -12 -106t-29 -77t-44 -51.5t-50 -32.5t-53.5 -17t-48 -7t-39.5 -1q-73 0 -126.5 19.5t-81.5 47.5t-44 71t-20 76.5t-4 77.5v429z" />
    <glyph glyph-name="V" unicode="V" horiz-adv-x="594" 
d="M297 97l198 603h103l-245 -700h-112l-245 700h103z" />
    <glyph glyph-name="W" unicode="W" horiz-adv-x="822" 
d="M411 589l-145 -589h-120l-186 700h106l146 -588l145 588h108l145 -588l146 588h106l-186 -700h-120z" />
    <glyph glyph-name="X" unicode="X" horiz-adv-x="570" 
d="M285 425l175 275h117l-232 -342l245 -358h-121l-184 291l-184 -291h-121l245 358l-232 342h117z" />
    <glyph glyph-name="Y" unicode="Y" horiz-adv-x="453" 
d="M227 376l194 324h112l-259 -408v-292h-94v292l-260 408h112z" />
    <glyph glyph-name="Z" unicode="Z" horiz-adv-x="593" 
d="M48 700h499v-75l-406 -546h426v-79h-541v86l411 535h-389v79z" />
    <glyph glyph-name="bracketleft" unicode="[" horiz-adv-x="370" 
d="M106 700h211v-62h-123v-761h123v-62h-211v885z" />
    <glyph glyph-name="backslash" unicode="\" horiz-adv-x="420" 
d="M420 -185h-63l-357 885h63z" />
    <glyph glyph-name="bracketright" unicode="]" horiz-adv-x="370" 
d="M53 700h211v-885h-211v62h122v761h-122v62z" />
    <glyph glyph-name="asciicircum" unicode="^" horiz-adv-x="442" 
d="M176 700h90l120 -218h-70l-95 175l-95 -175h-70z" />
    <glyph glyph-name="underscore" unicode="_" horiz-adv-x="497" 
d="M0 -185v52h497v-52h-497z" />
    <glyph glyph-name="grave" unicode="`" horiz-adv-x="312" 
d="M148 700l70 -132h-80l-96 132h106z" />
    <glyph glyph-name="a" unicode="a" horiz-adv-x="553" 
d="M139 358h-84q0 29 9 56t31 54t67 43.5t109 16.5q36 0 67.5 -6.5t64.5 -23t52 -53t18 -88.5l-5 -235q0 -19 1 -27t5.5 -18t15.5 -13t31 -2v-62q-16 -4 -40 -4q-42 0 -62.5 14t-28.5 60q-25 -46 -71.5 -68t-102.5 -22q-84 0 -131.5 38t-47.5 115q0 71 52 109.5t197 51.5
q66 4 80 13q19 13 19 57q0 102 -114 102q-135 0 -132 -108zM383 217l2 43q-9 -7 -21.5 -11.5t-22.5 -6t-31.5 -3.5t-36.5 -4q-80 -13 -101 -23q-44 -21 -44 -76q0 -44 27 -69t71 -25q28 0 53 8t48 26.5t38 54.5t18 86z" />
    <glyph glyph-name="b" unicode="b" horiz-adv-x="601" 
d="M72 700h88v-258q40 86 167 86q62 0 108 -23.5t68.5 -54t36 -73.5t16 -69t2.5 -53q0 -63 -15.5 -113t-39.5 -79.5t-56 -49t-61.5 -26.5t-60.5 -7q-107 0 -168 90h-3v-70h-82v700zM154 257q0 -111 44 -163t108 -52q70 0 114.5 51t44.5 162q0 107 -43 159t-111 52
q-69 0 -113 -52t-44 -157z" />
    <glyph glyph-name="c" unicode="c" horiz-adv-x="548" 
d="M428 181h84q-2 -29 -12 -58t-32 -64t-68 -57t-109 -22q-16 0 -30 1t-41 7t-48.5 16t-46.5 31t-42 49.5t-28.5 73t-11.5 100.5q0 49 10.5 92.5t36 85.5t75.5 67t120 25q101 0 157.5 -51t65.5 -128h-84q-20 117 -137 117q-78 0 -114.5 -57.5t-36.5 -150.5q0 -94 39 -155
t118 -61q67 0 99.5 43t35.5 96z" />
    <glyph glyph-name="d" unicode="d" horiz-adv-x="599" 
d="M439 700h88v-700h-82v70h-3q-46 -90 -168 -90q-109 0 -170 75t-61 200q0 36 4.5 69.5t19.5 72t39.5 66.5t67 46.5t98.5 18.5q116 0 167 -86v258zM136 255q0 -55 12 -96t28.5 -62.5t39.5 -34.5t40.5 -16.5t36.5 -3.5q64 0 108 52.5t44 162.5q0 104 -44.5 156.5
t-112.5 52.5t-110 -52.5t-42 -158.5z" />
    <glyph glyph-name="e" unicode="e" horiz-adv-x="570" 
d="M438 147h84q-12 -67 -64.5 -117t-157.5 -50q-52 0 -93.5 13t-67.5 32.5t-45.5 47.5t-29 52t-14.5 53t-6 44t-1 30q0 29 3 56.5t17 70t38.5 73t73.5 53.5t116 23q58 0 101.5 -18t67.5 -44t39 -65.5t20 -71t7 -70.5q0 -4 0.5 -12.5t0.5 -12.5h-391q0 -75 40.5 -133.5
t120.5 -58.5q60 0 96 29.5t45 75.5zM136 296h298q-1 30 -7.5 56t-20.5 53.5t-43 44t-70 16.5q-46 0 -79 -17t-49 -44.5t-22.5 -54t-6.5 -54.5z" />
    <glyph glyph-name="f" unicode="f" horiz-adv-x="319" 
d="M306 508v-62h-111v-446h-88v446h-94v62h94v69q0 66 32.5 96.5t101.5 30.5q5 0 65 -4v-62q-14 1 -62 1q-49 0 -49 -70v-61h111z" />
    <glyph glyph-name="g" unicode="g" 
d="M82 -57h84q20 -73 134 -73q33 0 58 9.5t39.5 26t24 33t13 37t4.5 31t1 21.5v55q-35 -57 -71.5 -80t-92.5 -23q-98 0 -163.5 70t-65.5 208q0 21 1.5 37.5t6.5 52.5t19.5 63.5t37 56t63 44.5t92.5 16q127 0 176 -90h3v70h82v-495q0 -55 -19.5 -96t-46 -61t-62 -32
t-57.5 -14.5t-43 -2.5h-26.5t-32 2.5t-38 7.5t-37 15t-36 24t-28 36.5t-20.5 50.5zM296 42q13 0 28.5 3.5t38 17t40 35.5t30.5 64.5t13 97.5q0 97 -40.5 151.5t-117.5 54.5q-148 0 -148 -205q0 -58 12.5 -101t30 -65t41.5 -34.5t39.5 -15.5t32.5 -3z" />
    <glyph glyph-name="h" unicode="h" horiz-adv-x="572" 
d="M72 700h88v-263q67 91 174 91q166 0 166 -190v-338h-88v311q0 27 -0.5 39.5t-5.5 39t-15.5 40t-32 25t-52.5 11.5q-23 0 -44 -6.5t-46 -24.5t-40.5 -58.5t-15.5 -99.5v-277h-88v700z" />
    <glyph glyph-name="i" unicode="i" horiz-adv-x="228" 
d="M70 508h88v-508h-88v508zM70 608v92h88v-92h-88z" />
    <glyph glyph-name="j" unicode="j" horiz-adv-x="231" 
d="M73 508h88v-555q0 -72 -26.5 -107t-93.5 -35q-9 0 -57 4v62q19 3 30.5 5t22.5 6.5t16 5t10 8t6.5 9t2.5 14t1 16.5v23v544zM73 608v92h88v-92h-88z" />
    <glyph glyph-name="k" unicode="k" horiz-adv-x="523" 
d="M160 266l242 242h105l-200 -196l220 -312h-102l-179 258l-86 -85v-173h-88v700h88v-434z" />
    <glyph glyph-name="l" unicode="l" horiz-adv-x="232" 
d="M72 700h88v-700h-88v700z" />
    <glyph glyph-name="m" unicode="m" horiz-adv-x="872" 
d="M72 508h88v-69l-1 -6q20 43 64 69t93 26q61 0 97.5 -32t47.5 -77q19 40 62.5 74.5t113.5 34.5q163 0 163 -200v-328h-88v322q0 144 -98 144q-55 0 -94.5 -37t-39.5 -126v-303h-88v321q0 145 -98 145q-56 0 -95 -45t-39 -118v-303h-88v508z" />
    <glyph glyph-name="n" unicode="n" horiz-adv-x="573" 
d="M72 508h88v-71q62 91 174 91q167 0 167 -190v-338h-88v311q0 25 -0.5 38t-6 39t-15.5 40t-32 26t-53 12q-23 0 -44 -6.5t-46 -24.5t-40.5 -58.5t-15.5 -99.5v-277h-88v508z" />
    <glyph glyph-name="o" unicode="o" horiz-adv-x="586" 
d="M43 254q0 53 13.5 100t41.5 87t78 63.5t117 23.5t117 -23.5t78 -63.5t41.5 -87t13.5 -100t-13.5 -100t-41.5 -87t-78 -63.5t-117 -23.5t-117 23.5t-78 63.5t-41.5 87t-13.5 100zM136 255q0 -58 13 -100.5t30.5 -63t42 -33t39.5 -14.5t32 -2t32 2t39.5 14.5t42 33t30.5 63
t13 100.5t-13 100.5t-30.5 63t-42 33t-39.5 14.5t-32 2t-32 -2t-39.5 -14.5t-42 -33t-30.5 -63t-13 -100.5z" />
    <glyph glyph-name="p" unicode="p" horiz-adv-x="597" 
d="M72 508h82v-70h3q60 90 168 90q100 0 164.5 -69t64.5 -205q0 -138 -65.5 -206t-161.5 -68q-13 0 -29.5 2.5t-43.5 10.5t-52.5 28.5t-41.5 51.5v-258h-88v693zM154 252q0 -107 48.5 -158.5t108.5 -51.5q62 0 106 50.5t44 161.5q0 99 -40.5 155.5t-114.5 56.5
q-17 0 -33.5 -3.5t-39 -17t-39 -35t-28.5 -62.5t-12 -96z" />
    <glyph glyph-name="q" unicode="q" horiz-adv-x="598" 
d="M444 508h82v-693h-88v257q-48 -92 -167 -92q-55 0 -97.5 19.5t-66.5 48.5t-39 68t-20 72t-5 66q0 118 59.5 196t171.5 78q109 0 167 -90h3v70zM136 254q0 -112 44.5 -162t107.5 -50q60 0 108 51t48 159q0 115 -44.5 164.5t-106.5 49.5q-69 0 -113 -51.5t-44 -160.5z" />
    <glyph glyph-name="r" unicode="r" horiz-adv-x="369" 
d="M356 528v-62q-93 -4 -141 -45t-54 -133q-1 -9 -1 -27v-27v-234h-88v508h88v-98h2q17 54 64 84.5t104 32.5z" />
    <glyph glyph-name="s" unicode="s" horiz-adv-x="506" 
d="M36 151h88q2 -56 41.5 -82.5t96.5 -26.5q33 0 57 8.5t35 19t17.5 26.5t7 23.5t0.5 18.5q0 30 -19.5 49t-87.5 35l-54 12q-39 9 -62 17t-48.5 23.5t-37.5 42.5t-12 65q0 41 17 70.5t45.5 45.5t61 23t69.5 7q192 0 206 -153h-84q-9 91 -119 91q-8 0 -15.5 -0.5t-25.5 -4.5
t-30.5 -11.5t-23 -24t-10.5 -39.5q0 -13 3.5 -24t7.5 -18.5t14.5 -14.5l16.5 -11t22.5 -8.5t22.5 -6t26.5 -6t26.5 -5.5q40 -9 60 -14.5t47.5 -17.5t40.5 -25.5t23 -36.5t10 -54q0 -45 -20.5 -78t-46 -49t-60 -25t-51.5 -10.5t-31 -1.5q-108 0 -165.5 48.5t-59.5 122.5z" />
    <glyph glyph-name="t" unicode="t" horiz-adv-x="320" 
d="M13 508h91v152h88v-152h108v-62h-108v-323v-5q0 -23 1.5 -34t14 -21t37.5 -10q24 0 55 9v-62q-47 -20 -92 -20q-30 0 -51 8.5t-31 19.5t-15.5 31t-6 31.5t-0.5 34.5v341h-91v62z" />
    <glyph glyph-name="u" unicode="u" horiz-adv-x="573" 
d="M501 0h-88v72h-2q-23 -40 -64.5 -62.5t-65 -26t-42.5 -3.5q-167 0 -167 191v337h88v-311q0 -89 27 -122t80 -33q146 0 146 189v277h88v-508z" />
    <glyph glyph-name="v" unicode="v" horiz-adv-x="470" 
d="M235 88l144 420h95l-188 -508h-102l-188 508h95z" />
    <glyph glyph-name="w" unicode="w" horiz-adv-x="720" 
d="M360 407l-106 -407h-94l-164 508h91l124 -407l106 407h86l106 -407l124 407h91l-164 -508h-94z" />
    <glyph glyph-name="x" unicode="x" horiz-adv-x="484" 
d="M242 320l130 188h98l-178 -243l192 -265h-98l-144 209l-144 -209h-98l192 265l-178 243h98z" />
    <glyph glyph-name="y" unicode="y" horiz-adv-x="498" 
d="M91 -184v65q34 -5 44 -5q19 0 31.5 5.5t22.5 22t13.5 25t12.5 33.5l12 38l-220 508h105l163 -411l135 411h88l-202 -568q-22 -65 -41 -89q-34 -40 -92 -40q-48 0 -72 5z" />
    <glyph glyph-name="z" unicode="z" horiz-adv-x="468" 
d="M47 508h380v-62l-295 -384h310v-62h-416v62l304 384h-283v62z" />
    <glyph glyph-name="braceleft" unicode="{" horiz-adv-x="366" 
d="M75 224v66q34 3 61.5 33t27.5 102q0 18 -2 54t-2 53q0 159 156 168v-53q-70 -15 -70 -95q0 -26 3 -53q3 -29 3 -57q0 -69 -27.5 -112.5t-88.5 -71.5v-2q61 -28 88.5 -71.5t27.5 -112.5q0 -28 -3 -57q-3 -27 -3 -53q0 -80 70 -95v-53q-156 9 -156 168q0 17 2 53t2 54
q0 121 -89 135z" />
    <glyph glyph-name="bar" unicode="|" horiz-adv-x="478" 
d="M208 -224v1053h62v-1053h-62z" />
    <glyph glyph-name="braceright" unicode="}" horiz-adv-x="366" 
d="M291 290v-66q-89 -14 -89 -135q0 -18 2 -54t2 -53q0 -159 -156 -168v53q70 15 70 95q0 26 -3 53q-3 29 -3 57q0 69 27.5 112.5t88.5 71.5v2q-61 28 -88.5 71.5t-27.5 112.5q0 28 3 57q3 27 3 53q0 80 -70 95v53q156 -9 156 -168q0 -17 -2 -53t-2 -54q0 -72 27.5 -102
t61.5 -33z" />
    <glyph glyph-name="asciitilde" unicode="~" 
d="M89 288l-39 16q19 51 52 89.5t81 38.5q46 0 87 -23l103 -55q1 -1 7.5 -4t19.5 -6t25 -3q54 0 86 81l39 -16q-17 -50 -51 -89t-82 -39q-46 0 -87 23l-103 55q-28 13 -53 13q-28 0 -50.5 -23t-34.5 -58z" />
    <glyph glyph-name="exclamdown" unicode="&#xa1;" horiz-adv-x="311" 
d="M205 -185h-99v262l25 231h49l25 -231v-262zM205 508v-109h-99v109h99z" />
    <glyph glyph-name="cent" unicode="&#xa2;" horiz-adv-x="580" 
d="M444 181h84q-8 -82 -59.5 -141t-135.5 -60v-72h-53v72q-59 1 -103.5 26t-69 66.5t-36.5 88t-12 97.5q0 123 59.5 195.5t161.5 74.5v66h53v-66q73 -3 127.5 -51.5t63.5 -127.5h-84q-7 44 -33.5 77.5t-73.5 39.5v-424q51 7 79.5 47.5t31.5 91.5zM280 42v424q-47 -4 -77 -38
t-40.5 -77t-10.5 -93q0 -83 31.5 -144t96.5 -72z" />
    <glyph glyph-name="sterling" unicode="&#xa3;" horiz-adv-x="580" 
d="M507 106l44 -60q-67 -67 -132 -67q-48 0 -122 30q-3 1 -16.5 7t-19 8t-19 4.5t-29.5 2.5q-58 0 -108 -38l-45 65q101 70 101 167q0 27 -16 79h-104v61h73q-22 49 -30 75t-8 65q0 45 12.5 81t30.5 58t45 38t48 23t48 11t36.5 4.5t22.5 0.5q28 0 52 -3.5t57 -18t56 -38.5
t39.5 -70.5t16.5 -108.5h-89v32q0 62 -34.5 102t-103.5 40q-67 0 -106 -44t-39 -113q0 -15 2 -27.5t7 -26.5t9 -22l14 -28l15 -30h141v-61h-117q9 -27 9 -62q0 -85 -65 -144l2 -6q26 11 73 11q33 0 82 -20q56 -23 82 -23q48 0 85 46z" />
    <glyph glyph-name="currency" unicode="&#xa4;" horiz-adv-x="825" 
d="M66 53l111 111q-52 73 -52 166q0 95 52 166l-111 112l66 66l110 -112q74 57 170 57q102 0 170 -57l111 112l66 -66l-111 -112q53 -72 53 -166q0 -91 -53 -166l111 -111l-66 -66l-111 111q-74 -56 -170 -56q-103 0 -170 56l-110 -111zM199 330q0 -88 62.5 -151t150.5 -63
q89 0 152 63.5t63 150.5q0 88 -63.5 151.5t-151.5 63.5q-87 0 -150 -63.5t-63 -151.5z" />
    <glyph glyph-name="yen" unicode="&#xa5;" horiz-adv-x="580" 
d="M290 376l194 324h112l-259 -408v-39h105v-46h-105v-32h105v-46h-105v-129h-94v129h-105v46h105v32h-105v46h105v39l-260 408h112z" />
    <glyph glyph-name="brokenbar" unicode="&#xa6;" horiz-adv-x="478" 
d="M208 206h62v-430h-62v430zM270 399h-62v430h62v-430z" />
    <glyph glyph-name="section" unicode="&#xa7;" horiz-adv-x="579" 
d="M452 557h-74q-1 43 -16.5 67t-32 29.5t-39.5 5.5q-37 0 -56 -19.5t-19 -51.5q0 -18 7 -33t15 -25t26.5 -20.5t29.5 -15.5t36.5 -15t36.5 -15q75 -32 112 -76t37 -114q0 -122 -122 -159q61 -20 61 -112q0 -41 -15.5 -70.5t-35 -43.5t-48 -22.5t-44 -9.5t-32.5 -1
q-45 0 -77.5 14.5t-49.5 33.5t-27 46.5t-12 45.5t-2 37l74 -1q-3 -42 20.5 -76t72.5 -34q92 0 92 76q0 14 -3 26t-12 22l-14.5 16.5t-23 15l-24.5 12t-31 13t-31 12.5q-33 14 -57 27t-52 36.5t-43 58t-15 77.5q0 67 33 107t86 52q-53 37 -53 117q0 57 42 96t119 39
q18 0 33 -1.5t41.5 -11t44 -26t30.5 -50t12 -79.5zM332 150q38 10 68 41.5t30 86.5q0 52 -38.5 85.5t-147.5 72.5q-96 -27 -96 -117q0 -15 2.5 -27.5t5.5 -22.5t11.5 -20.5t13 -17t18.5 -16l20 -13.5t25 -13t26 -12l30.5 -13.5t31.5 -13.5z" />
    <glyph glyph-name="dieresis" unicode="&#xa8;" horiz-adv-x="386" 
d="M50 608v92h88v-92h-88zM248 608v92h88v-92h-88z" />
    <glyph glyph-name="copyright" unicode="&#xa9;" horiz-adv-x="806" 
d="M53 350q0 145 102 247.5t248 102.5t248 -102.5t102 -247.5t-102 -247.5t-248 -102.5t-248 102.5t-102 247.5zM119 350q0 -124 82.5 -210.5t201.5 -86.5t201.5 86.5t82.5 210.5t-82.5 210.5t-201.5 86.5t-201.5 -86.5t-82.5 -210.5zM485 297h66q-22 -125 -144 -125
q-48 0 -83 18t-52 47t-24 57t-7 57q0 54 15.5 93t41 58.5t51.5 28t54 8.5q52 0 95.5 -27.5t43.5 -87.5h-62q-9 65 -77 65q-94 0 -94 -138q0 -25 6 -51t30 -52t63 -26q40 0 57 23.5t20 51.5z" />
    <glyph glyph-name="ordfeminine" unicode="&#xaa;" horiz-adv-x="368" 
d="M106 619h-50q0 41 28.5 71.5t101.5 30.5q34 0 58.5 -9t36 -20t18 -28t7.5 -26t1 -20l-3 -141q0 -11 0.5 -16t3.5 -11t9.5 -8t18.5 -1v-37q-14 -2 -24 -2q-52 0 -55 44q-32 -54 -104 -54q-108 0 -108 92q0 29 13.5 48t39.5 28.5t43 12.5t44 6q7 1 10 1q22 2 28 2.5t16 4.5
t12.5 12t2.5 23q0 8 -1 14.5t-6.5 19.5t-21 20.5t-39.5 7.5q-77 0 -80 -65zM253 534l1 26q-4 -4 -8.5 -5.5t-9.5 -2.5t-20 -3l-29 -4q-3 0 -15 -2t-15 -3t-13 -3t-13 -4t-10 -5t-9 -6.5t-6 -9t-5 -12t-1 -14.5q0 -27 16 -42t43 -15q36 0 64 24t30 81zM37 323v31h299v-31
h-299z" />
    <glyph glyph-name="guillemotleft" unicode="&#xab;" horiz-adv-x="462" 
d="M105 272l106 -90v-82l-149 131v82l149 131v-82zM281 272l106 -90v-82l-149 131v82l149 131v-82z" />
    <glyph glyph-name="logicalnot" unicode="&#xac;" 
d="M50 386h500v-202h-62v140h-438v62z" />
    <glyph glyph-name="registered" unicode="&#xae;" horiz-adv-x="806" 
d="M53 350q0 145 102 247.5t248 102.5t248 -102.5t102 -247.5t-102 -247.5t-248 -102.5t-248 102.5t-102 247.5zM119 350q0 -124 82.5 -210.5t201.5 -86.5t201.5 86.5t82.5 210.5t-82.5 210.5t-201.5 86.5t-201.5 -86.5t-82.5 -210.5zM275 178v350h155q17 0 33.5 -3.5
t36.5 -12.5t32.5 -31t12.5 -54q0 -55 -59 -80v-2q21 -4 32.5 -19.5t13.5 -27.5t4 -37q1 -11 1.5 -27t1 -21t1.5 -12.5t3.5 -12t6.5 -10.5h-67q-3 3 -5 6.5t-3.5 7t-2 10.5t-0.5 12.5t-0.5 19t-1.5 24.5q0 15 -2 24t-9 20t-23.5 16t-42.5 5h-53v-145h-65zM340 480v-109h75
q64 0 64 56q0 30 -18 41.5t-53 11.5h-68z" />
    <glyph glyph-name="macron" unicode="&#xaf;" horiz-adv-x="416" 
d="M50 613v60h316v-60h-158h-158z" />
    <glyph glyph-name="macron" unicode="&#x2c9;" horiz-adv-x="416" 
d="M50 613v60h316v-60h-158h-158z" />
    <glyph glyph-name="degree" unicode="&#xb0;" horiz-adv-x="266" 
d="M37 605q0 40 28 68t68 28t68 -28t28 -68t-28 -68t-68 -28t-68 28t-28 68zM83 605q0 -20 15 -35t35 -15t35 15t15 35t-15 35t-35 15t-35 -15t-15 -35z" />
    <glyph glyph-name="plusminus" unicode="&#xb1;" 
d="M50 451h219v199h62v-199h219v-62h-219v-179h-62v179h-219v62zM50 142h500v-62h-500v62z" />
    <glyph glyph-name="twosuperior" unicode="&#xb2;" horiz-adv-x="360" 
d="M322 328v-48h-285q2 70 33.5 106.5t108.5 84.5q43 26 64.5 51t21.5 63q0 31 -19 55.5t-65 24.5q-42 0 -64.5 -22t-22.5 -61v-16h-56v13q0 11 2 24t10.5 34t22.5 36.5t42.5 27.5t66.5 12q64 0 102.5 -33.5t38.5 -94.5q0 -17 -4 -32.5t-7.5 -26t-15.5 -24t-16 -19
t-22 -18.5t-21 -15.5t-25.5 -16t-23.5 -14.5q-46 -29 -65 -49t-23 -42h222z" />
    <glyph glyph-name="threesuperior" unicode="&#xb3;" horiz-adv-x="360" 
d="M34 408h54q0 -51 29 -72t61 -21q9 0 18 1t23.5 6t24.5 13.5t18 25.5t8 40q0 35 -20 54.5t-54 19.5h-43v48h17q90 0 90 72q0 27 -18.5 48.5t-62.5 21.5q-77 0 -82 -93h-52q0 57 30.5 99t105.5 42q61 0 97 -31t36 -85q0 -71 -69 -93v-3q35 -6 58 -32.5t23 -71.5
q0 -60 -39.5 -95t-105.5 -35q-43 0 -73 13.5t-45 37t-21.5 45t-7.5 45.5z" />
    <glyph glyph-name="acute" unicode="&#xb4;" horiz-adv-x="312" 
d="M164 700h106l-96 -132h-80z" />
    <glyph glyph-name="mu" unicode="&#xb5;" horiz-adv-x="580" 
d="M173 52v-237h-88v693h88v-277q0 -181 117 -181t117 181v277h88v-386q0 -11 0.5 -18t2.5 -17t6.5 -15.5t13 -8.5t20.5 -2l10 1v-62q-27 -4 -43 -4q-98 0 -98 66q-43 -82 -117 -82q-34 0 -65.5 19t-51.5 53z" />
    <glyph glyph-name="mu" unicode="&#x3bc;" horiz-adv-x="580" 
d="M173 52v-237h-88v693h88v-277q0 -181 117 -181t117 181v277h88v-386q0 -11 0.5 -18t2.5 -17t6.5 -15.5t13 -8.5t20.5 -2l10 1v-62q-27 -4 -43 -4q-98 0 -98 66q-43 -82 -117 -82q-34 0 -65.5 19t-51.5 53z" />
    <glyph glyph-name="paragraph" unicode="&#xb6;" horiz-adv-x="491" 
d="M205 -185v555q-70 2 -117.5 48.5t-47.5 116.5q0 69 48.5 117t116.5 48h62v-885h-62zM362 -185v885h62v-885h-62z" />
    <glyph glyph-name="periodcentered" unicode="&#xb7;" horiz-adv-x="250" 
d="M76 213v110h99v-110h-99z" />
    <glyph glyph-name="periodcentered" unicode="&#x22c5;" horiz-adv-x="250" 
d="M76 213v110h99v-110h-99z" />
    <glyph glyph-name="periodcentered" unicode="&#x2219;" horiz-adv-x="250" 
d="M76 213v110h99v-110h-99z" />
    <glyph glyph-name="cedilla" unicode="&#xb8;" horiz-adv-x="298" 
d="M43 -232l17 56q22 -8 62 -8q63 0 63 37t-59 37h-27h-17l15 52h32q133 0 133 -98q0 -33 -28 -58.5t-100 -25.5q-37 0 -91 8z" />
    <glyph glyph-name="onesuperior" unicode="&#xb9;" horiz-adv-x="360" 
d="M85 596v29h12q39 0 67.5 20.5t33.5 54.5h39v-420h-56v316h-96z" />
    <glyph glyph-name="ordmasculine" unicode="&#xba;" horiz-adv-x="385" 
d="M43 557q0 41 11.5 75.5t47 61.5t90.5 27q81 0 115.5 -49t34.5 -115q0 -30 -7 -56.5t-22.5 -52.5t-46.5 -41t-74 -15q-42 0 -72.5 15t-46.5 40.5t-23 52.5t-7 57zM99 557q0 -128 93 -128q26 0 44.5 11.5t28 26t14.5 35.5t6 32t1 23q0 127 -94 127q-93 0 -93 -127zM43 323
v31h299v-31h-299z" />
    <glyph glyph-name="guillemotright" unicode="&#xbb;" horiz-adv-x="462" 
d="M357 272l-106 90v82l149 -131v-82l-149 -131v82zM181 272l-106 90v82l149 -131v-82l-149 -131v82z" />
    <glyph glyph-name="onequarter" unicode="&#xbc;" horiz-adv-x="820" 
d="M678 97h-198v48l197 275h57v-275h66v-48h-66v-97h-56v97zM534 145h144v201zM85 596v29h12q39 0 67.5 20.5t33.5 54.5h39v-420h-56v316h-96zM177 0l450 700h56l-450 -700h-56z" />
    <glyph glyph-name="onehalf" unicode="&#xbd;" horiz-adv-x="820" 
d="M85 596v29h12q39 0 67.5 20.5t33.5 54.5h39v-420h-56v316h-96zM782 48v-48h-285q2 70 33.5 106.5t108.5 84.5q43 26 64.5 51t21.5 63q0 31 -19 55.5t-65 24.5q-42 0 -64.5 -22t-22.5 -61v-16h-56v13q0 11 2 24t10.5 34t22.5 36.5t42.5 27.5t66.5 12q64 0 102.5 -33.5
t38.5 -94.5q0 -17 -4 -32.5t-7.5 -26t-15.5 -24t-16 -19t-22 -18.5t-21 -15.5t-25.5 -16t-23.5 -14.5q-46 -29 -65 -49t-23 -42h222zM137 0l450 700h56l-450 -700h-56z" />
    <glyph glyph-name="threequarters" unicode="&#xbe;" horiz-adv-x="820" 
d="M34 408h54q0 -51 29 -72t61 -21q9 0 18 1t23.5 6t24.5 13.5t18 25.5t8 40q0 35 -20 54.5t-54 19.5h-43v48h17q90 0 90 72q0 27 -18.5 48.5t-62.5 21.5q-77 0 -82 -93h-52q0 57 30.5 99t105.5 42q61 0 97 -31t36 -85q0 -71 -69 -93v-3q35 -6 58 -32.5t23 -71.5
q0 -60 -39.5 -95t-105.5 -35q-43 0 -73 13.5t-45 37t-21.5 45t-7.5 45.5zM678 97h-198v48l197 275h57v-275h66v-48h-66v-97h-56v97zM534 145h144v201zM197 0l450 700h56l-450 -700h-56z" />
    <glyph glyph-name="questiondown" unicode="&#xbf;" horiz-adv-x="548" 
d="M328 508v-109h-99v109h99zM408 26h87q1 -57 -13 -100t-35.5 -67t-53.5 -38.5t-59 -18.5t-58 -4q-101 0 -162 48t-61 133q0 56 23.5 93.5t80.5 85.5q27 23 40.5 36.5t29 41t15.5 56.5v14h72q5 -39 -7.5 -79t-36.5 -67q-10 -11 -52.5 -47.5t-59.5 -64t-17 -65.5
q0 -42 32 -77.5t104 -35.5q42 0 71 16t41.5 41.5t16.5 50t2 48.5z" />
    <glyph glyph-name="Agrave" unicode="&#xc0;" horiz-adv-x="622" 
d="M163 181l-66 -181h-101l265 700h100l265 -700h-101l-66 181h-296zM189 260h244l-122 345zM303 900l75 -140h-84l-103 140h112z" />
    <glyph glyph-name="Aacute" unicode="&#xc1;" horiz-adv-x="622" 
d="M163 181l-66 -181h-101l265 700h100l265 -700h-101l-66 181h-296zM189 260h244l-122 345zM318 900h112l-102 -140h-84z" />
    <glyph glyph-name="Acircumflex" unicode="&#xc2;" horiz-adv-x="622" 
d="M163 181l-66 -181h-101l265 700h100l265 -700h-101l-66 181h-296zM189 260h244l-122 345zM115 760l125 140h142l125 -140h-94l-102 105l-102 -105h-94z" />
    <glyph glyph-name="Atilde" unicode="&#xc3;" horiz-adv-x="622" 
d="M163 181l-66 -181h-101l265 700h100l265 -700h-101l-66 181h-296zM189 260h244l-122 345zM446 868h61q-7 -44 -36 -76t-80 -32q-6 0 -11 0.5t-11 1.5t-9.5 1.5t-9.5 2.5t-8.5 3t-9 4t-9 4t-10.5 5l-10 5q-5 2 -17.5 9t-18 9t-15 4.5t-19.5 2.5q-22 0 -37.5 -10.5
t-18.5 -30.5h-62q6 43 38 74t80 31q40 0 78 -23q47 -29 78 -29q47 0 57 44z" />
    <glyph glyph-name="Adieresis" unicode="&#xc4;" horiz-adv-x="622" 
d="M163 181l-66 -181h-101l265 700h100l265 -700h-101l-66 181h-296zM189 260h244l-122 345zM156 772v79h94v-79h-94zM372 772v79h94v-79h-94z" />
    <glyph glyph-name="Aring" unicode="&#xc5;" horiz-adv-x="622" 
d="M163 181l-66 -181h-101l265 700h100l265 -700h-101l-66 181h-296zM189 260h244l-122 345zM213 822q0 41 28.5 69.5t69.5 28.5t69.5 -28.5t28.5 -69.5t-28.5 -69.5t-69.5 -28.5t-69.5 28.5t-28.5 69.5zM255 822q0 -23 16.5 -39.5t39.5 -16.5t39.5 16.5t16.5 39.5
t-16.5 39.5t-39.5 16.5t-39.5 -16.5t-16.5 -39.5z" />
    <glyph glyph-name="AE" unicode="&#xc6;" horiz-adv-x="996" 
d="M470 0v181h-264l-99 -181h-111l390 700h583v-79h-405v-220h366v-79h-366v-243h415v-79h-509zM470 260v361h-27l-195 -361h222z" />
    <glyph glyph-name="Ccedilla" unicode="&#xc7;" horiz-adv-x="712" 
d="M580 232h94q-4 -34 -13.5 -65t-31.5 -66.5t-53 -61.5t-82.5 -43t-115.5 -17q-156 0 -244.5 95.5t-88.5 263.5q0 76 15.5 138t39 101t57 68t63 43t64.5 22t53.5 9.5t37.5 1.5q64 0 114.5 -14.5t81 -37.5t51.5 -55.5t30 -63.5t13 -66h-94q-2 24 -11 47t-28.5 50.5t-60 44
t-96.5 16.5q-63 0 -109.5 -25t-71.5 -68.5t-37 -95t-12 -111.5q0 -125 64 -204.5t173 -79.5q83 0 138.5 49t59.5 125zM250 -232l17 56q22 -8 62 -8q63 0 63 37t-59 37h-27h-17l15 52h32q133 0 133 -98q0 -33 -28 -58.5t-100 -25.5q-37 0 -91 8z" />
    <glyph glyph-name="Egrave" unicode="&#xc8;" horiz-adv-x="612" 
d="M179 401h367v-79h-367v-243h416v-79h-510v700h499v-79h-405v-220zM298 900l75 -140h-84l-103 140h112z" />
    <glyph glyph-name="Eacute" unicode="&#xc9;" horiz-adv-x="612" 
d="M179 401h367v-79h-367v-243h416v-79h-510v700h499v-79h-405v-220zM313 900h112l-102 -140h-84z" />
    <glyph glyph-name="Ecircumflex" unicode="&#xca;" horiz-adv-x="612" 
d="M179 401h367v-79h-367v-243h416v-79h-510v700h499v-79h-405v-220zM110 760l125 140h142l125 -140h-94l-102 105l-102 -105h-94z" />
    <glyph glyph-name="Edieresis" unicode="&#xcb;" horiz-adv-x="612" 
d="M179 401h367v-79h-367v-243h416v-79h-510v700h499v-79h-405v-220zM151 772v79h94v-79h-94zM367 772v79h94v-79h-94z" />
    <glyph glyph-name="Igrave" unicode="&#xcc;" horiz-adv-x="264" 
d="M85 700h94v-700h-94v700zM125 900l75 -140h-84l-103 140h112z" />
    <glyph glyph-name="Iacute" unicode="&#xcd;" horiz-adv-x="264" 
d="M85 700h94v-700h-94v700zM139 900h112l-102 -140h-84z" />
    <glyph glyph-name="Icircumflex" unicode="&#xce;" horiz-adv-x="264" 
d="M85 700h94v-700h-94v700zM-64 760l125 140h142l125 -140h-94l-102 105l-102 -105h-94z" />
    <glyph glyph-name="Idieresis" unicode="&#xcf;" horiz-adv-x="264" 
d="M85 700h94v-700h-94v700zM-23 772v79h94v-79h-94zM193 772v79h94v-79h-94z" />
    <glyph glyph-name="Eth" unicode="&#xd0;" horiz-adv-x="728" 
d="M94 700h257q22 0 41.5 -1t55.5 -8.5t65 -20t62.5 -39t56 -62t37.5 -91.5t15 -126q0 -71 -15 -127.5t-36.5 -93t-56.5 -62.5t-64.5 -39t-71 -20t-66 -8.5t-58.5 -1.5h-222v366h-94v62h94v272zM188 621v-193h198v-62h-198v-287h131q136 0 200.5 65.5t64.5 205.5
q0 76 -20 131t-55 84.5t-75 42.5t-88 13h-158z" />
    <glyph glyph-name="Ntilde" unicode="&#xd1;" horiz-adv-x="740" 
d="M179 555v-555h-94v700h104l372 -555v555h94v-700h-103zM505 868h61q-7 -44 -36 -76t-80 -32q-6 0 -11 0.5t-11 1.5t-9.5 1.5t-9.5 2.5t-8.5 3t-9 4t-9 4t-10.5 5l-10 5q-5 2 -17.5 9t-18 9t-15 4.5t-19.5 2.5q-22 0 -37.5 -10.5t-18.5 -30.5h-62q6 43 38 74t80 31
q40 0 78 -23q47 -29 78 -29q47 0 57 44z" />
    <glyph glyph-name="Ograve" unicode="&#xd2;" horiz-adv-x="758" 
d="M45 350q0 179 91.5 275t242.5 96q49 0 94.5 -11t90 -38t77 -68t52.5 -106.5t20 -147.5q0 -75 -17 -135.5t-41.5 -98.5t-60 -65.5t-65.5 -41t-65.5 -21t-52 -8.5t-32.5 -1q-17 0 -33.5 1t-52 8.5t-65.5 21t-65.5 41t-60 65.5t-41 98.5t-16.5 135.5zM145 350q0 -39 5 -74.5
t20 -76.5t40 -71t68.5 -50t100.5 -20q15 0 28.5 1t38.5 7.5t45.5 17.5t44 33t39.5 51.5t27 76.5t11 105q0 131 -59 211.5t-175 80.5q-61 0 -106.5 -24t-69 -56.5t-37.5 -76.5t-17.5 -74.5t-3.5 -60.5zM371 900l75 -140h-84l-103 140h112z" />
    <glyph glyph-name="Oacute" unicode="&#xd3;" horiz-adv-x="758" 
d="M45 350q0 179 91.5 275t242.5 96q49 0 94.5 -11t90 -38t77 -68t52.5 -106.5t20 -147.5q0 -75 -17 -135.5t-41.5 -98.5t-60 -65.5t-65.5 -41t-65.5 -21t-52 -8.5t-32.5 -1q-17 0 -33.5 1t-52 8.5t-65.5 21t-65.5 41t-60 65.5t-41 98.5t-16.5 135.5zM145 350q0 -39 5 -74.5
t20 -76.5t40 -71t68.5 -50t100.5 -20q15 0 28.5 1t38.5 7.5t45.5 17.5t44 33t39.5 51.5t27 76.5t11 105q0 131 -59 211.5t-175 80.5q-61 0 -106.5 -24t-69 -56.5t-37.5 -76.5t-17.5 -74.5t-3.5 -60.5zM386 900h112l-102 -140h-84z" />
    <glyph glyph-name="Ocircumflex" unicode="&#xd4;" horiz-adv-x="758" 
d="M45 350q0 179 91.5 275t242.5 96q49 0 94.5 -11t90 -38t77 -68t52.5 -106.5t20 -147.5q0 -75 -17 -135.5t-41.5 -98.5t-60 -65.5t-65.5 -41t-65.5 -21t-52 -8.5t-32.5 -1q-17 0 -33.5 1t-52 8.5t-65.5 21t-65.5 41t-60 65.5t-41 98.5t-16.5 135.5zM145 350q0 -39 5 -74.5
t20 -76.5t40 -71t68.5 -50t100.5 -20q15 0 28.5 1t38.5 7.5t45.5 17.5t44 33t39.5 51.5t27 76.5t11 105q0 131 -59 211.5t-175 80.5q-61 0 -106.5 -24t-69 -56.5t-37.5 -76.5t-17.5 -74.5t-3.5 -60.5zM183 760l125 140h142l125 -140h-94l-102 105l-102 -105h-94z" />
    <glyph glyph-name="Otilde" unicode="&#xd5;" horiz-adv-x="758" 
d="M45 350q0 179 91.5 275t242.5 96q49 0 94.5 -11t90 -38t77 -68t52.5 -106.5t20 -147.5q0 -75 -17 -135.5t-41.5 -98.5t-60 -65.5t-65.5 -41t-65.5 -21t-52 -8.5t-32.5 -1q-17 0 -33.5 1t-52 8.5t-65.5 21t-65.5 41t-60 65.5t-41 98.5t-16.5 135.5zM145 350q0 -39 5 -74.5
t20 -76.5t40 -71t68.5 -50t100.5 -20q15 0 28.5 1t38.5 7.5t45.5 17.5t44 33t39.5 51.5t27 76.5t11 105q0 131 -59 211.5t-175 80.5q-61 0 -106.5 -24t-69 -56.5t-37.5 -76.5t-17.5 -74.5t-3.5 -60.5zM514 868h61q-7 -44 -36 -76t-80 -32q-6 0 -11 0.5t-11 1.5t-9.5 1.5
t-9.5 2.5t-8.5 3t-9 4t-9 4t-10.5 5l-10 5q-5 2 -17.5 9t-18 9t-15 4.5t-19.5 2.5q-22 0 -37.5 -10.5t-18.5 -30.5h-62q6 43 38 74t80 31q40 0 78 -23q47 -29 78 -29q47 0 57 44z" />
    <glyph glyph-name="Odieresis" unicode="&#xd6;" horiz-adv-x="758" 
d="M45 350q0 179 91.5 275t242.5 96q49 0 94.5 -11t90 -38t77 -68t52.5 -106.5t20 -147.5q0 -75 -17 -135.5t-41.5 -98.5t-60 -65.5t-65.5 -41t-65.5 -21t-52 -8.5t-32.5 -1q-17 0 -33.5 1t-52 8.5t-65.5 21t-65.5 41t-60 65.5t-41 98.5t-16.5 135.5zM145 350q0 -39 5 -74.5
t20 -76.5t40 -71t68.5 -50t100.5 -20q15 0 28.5 1t38.5 7.5t45.5 17.5t44 33t39.5 51.5t27 76.5t11 105q0 131 -59 211.5t-175 80.5q-61 0 -106.5 -24t-69 -56.5t-37.5 -76.5t-17.5 -74.5t-3.5 -60.5zM224 772v79h94v-79h-94zM440 772v79h94v-79h-94z" />
    <glyph glyph-name="multiply" unicode="&#xd7;" 
d="M65 158l191 191l-191 191l44 44l191 -191l191 191l44 -44l-191 -191l191 -191l-44 -44l-191 191l-191 -191z" />
    <glyph glyph-name="Oslash" unicode="&#xd8;" horiz-adv-x="758" 
d="M720 716l-88 -105q81 -100 81 -261q0 -75 -17 -135.5t-41.5 -98.5t-60 -65.5t-65.5 -41t-65.5 -21t-52 -8.5t-32.5 -1q-141 0 -218 71l-94 -113l-45 37l99 118q-76 94 -76 258q0 179 91.5 275t242.5 96q137 0 211 -68l81 97zM569 536l-350 -417q55 -61 160 -61
q15 0 28.5 1t38.5 7.5t45.5 17.5t44 33t39.5 51.5t27 76.5t11 105q0 107 -44 186zM184 167l349 418q-27 27 -72 42t-82 15q-28 0 -54 -5t-60.5 -23.5t-59.5 -48t-42.5 -85.5t-17.5 -130q0 -114 39 -183z" />
    <glyph glyph-name="Ugrave" unicode="&#xd9;" horiz-adv-x="696" 
d="M72 700h94v-417q0 -34 2 -57.5t12 -58t28 -56t54 -37.5t86 -16q101 0 141.5 55t40.5 170v417h94v-429q0 -59 -12 -106t-29 -77t-44 -51.5t-50 -32.5t-53.5 -17t-48 -7t-39.5 -1q-73 0 -126.5 19.5t-81.5 47.5t-44 71t-20 76.5t-4 77.5v429zM340 900l75 -140h-84l-103 140
h112z" />
    <glyph glyph-name="Uacute" unicode="&#xda;" horiz-adv-x="696" 
d="M72 700h94v-417q0 -34 2 -57.5t12 -58t28 -56t54 -37.5t86 -16q101 0 141.5 55t40.5 170v417h94v-429q0 -59 -12 -106t-29 -77t-44 -51.5t-50 -32.5t-53.5 -17t-48 -7t-39.5 -1q-73 0 -126.5 19.5t-81.5 47.5t-44 71t-20 76.5t-4 77.5v429zM355 900h112l-102 -140h-84z
" />
    <glyph glyph-name="Ucircumflex" unicode="&#xdb;" horiz-adv-x="696" 
d="M72 700h94v-417q0 -34 2 -57.5t12 -58t28 -56t54 -37.5t86 -16q101 0 141.5 55t40.5 170v417h94v-429q0 -59 -12 -106t-29 -77t-44 -51.5t-50 -32.5t-53.5 -17t-48 -7t-39.5 -1q-73 0 -126.5 19.5t-81.5 47.5t-44 71t-20 76.5t-4 77.5v429zM152 760l125 140h142l125 -140
h-94l-102 105l-102 -105h-94z" />
    <glyph glyph-name="Udieresis" unicode="&#xdc;" horiz-adv-x="696" 
d="M72 700h94v-417q0 -34 2 -57.5t12 -58t28 -56t54 -37.5t86 -16q101 0 141.5 55t40.5 170v417h94v-429q0 -59 -12 -106t-29 -77t-44 -51.5t-50 -32.5t-53.5 -17t-48 -7t-39.5 -1q-73 0 -126.5 19.5t-81.5 47.5t-44 71t-20 76.5t-4 77.5v429zM193 772v79h94v-79h-94z
M409 772v79h94v-79h-94z" />
    <glyph glyph-name="Yacute" unicode="&#xdd;" horiz-adv-x="453" 
d="M227 376l194 324h112l-259 -408v-292h-94v292l-260 408h112zM233 900h112l-102 -140h-84z" />
    <glyph glyph-name="Thorn" unicode="&#xde;" horiz-adv-x="639" 
d="M85 700h94v-139h191q237 0 237 -201q0 -220 -246 -220h-182v-140h-94v700zM179 482v-263h172q83 0 121.5 34.5t38.5 104.5q0 65 -39 94.5t-121 29.5h-172z" />
    <glyph glyph-name="germandbls" unicode="&#xdf;" horiz-adv-x="560" 
d="M72 0v455q0 41 2.5 70t14.5 66.5t33.5 60.5t63 39.5t98.5 16.5q92 0 140.5 -47t48.5 -123q0 -49 -26 -88.5t-67 -49.5v-3q64 -12 104 -62.5t40 -128.5q0 -49 -13 -87.5t-36 -60.5t-45.5 -36.5t-50.5 -20t-42 -7t-28 -1.5q-35 0 -75 7v65q24 -9 59 -9q12 0 25 1.5
t35.5 10.5t38.5 24t28.5 45t12.5 71q0 150 -174 150h-25v61l31 -1q120 0 120 114q0 46 -23.5 80t-78.5 34q-29 0 -48.5 -5.5t-38 -23t-27.5 -54.5t-9 -95v-468h-88z" />
    <glyph glyph-name="agrave" unicode="&#xe0;" horiz-adv-x="553" 
d="M139 358h-84q0 29 9 56t31 54t67 43.5t109 16.5q36 0 67.5 -6.5t64.5 -23t52 -53t18 -88.5l-5 -235q0 -19 1 -27t5.5 -18t15.5 -13t31 -2v-62q-16 -4 -40 -4q-42 0 -62.5 14t-28.5 60q-25 -46 -71.5 -68t-102.5 -22q-84 0 -131.5 38t-47.5 115q0 71 52 109.5t197 51.5
q66 4 80 13q19 13 19 57q0 102 -114 102q-135 0 -132 -108zM383 217l2 43q-9 -7 -21.5 -11.5t-22.5 -6t-31.5 -3.5t-36.5 -4q-80 -13 -101 -23q-44 -21 -44 -76q0 -44 27 -69t71 -25q28 0 53 8t48 26.5t38 54.5t18 86zM268 700l70 -132h-80l-96 132h106z" />
    <glyph glyph-name="aacute" unicode="&#xe1;" horiz-adv-x="553" 
d="M139 358h-84q0 29 9 56t31 54t67 43.5t109 16.5q36 0 67.5 -6.5t64.5 -23t52 -53t18 -88.5l-5 -235q0 -19 1 -27t5.5 -18t15.5 -13t31 -2v-62q-16 -4 -40 -4q-42 0 -62.5 14t-28.5 60q-25 -46 -71.5 -68t-102.5 -22q-84 0 -131.5 38t-47.5 115q0 71 52 109.5t197 51.5
q66 4 80 13q19 13 19 57q0 102 -114 102q-135 0 -132 -108zM383 217l2 43q-9 -7 -21.5 -11.5t-22.5 -6t-31.5 -3.5t-36.5 -4q-80 -13 -101 -23q-44 -21 -44 -76q0 -44 27 -69t71 -25q28 0 53 8t48 26.5t38 54.5t18 86zM284 700h106l-96 -132h-80z" />
    <glyph glyph-name="acircumflex" unicode="&#xe2;" horiz-adv-x="553" 
d="M139 358h-84q0 29 9 56t31 54t67 43.5t109 16.5q36 0 67.5 -6.5t64.5 -23t52 -53t18 -88.5l-5 -235q0 -19 1 -27t5.5 -18t15.5 -13t31 -2v-62q-16 -4 -40 -4q-42 0 -62.5 14t-28.5 60q-25 -46 -71.5 -68t-102.5 -22q-84 0 -131.5 38t-47.5 115q0 71 52 109.5t197 51.5
q66 4 80 13q19 13 19 57q0 102 -114 102q-135 0 -132 -108zM383 217l2 43q-9 -7 -21.5 -11.5t-22.5 -6t-31.5 -3.5t-36.5 -4q-80 -13 -101 -23q-44 -21 -44 -76q0 -44 27 -69t71 -25q28 0 53 8t48 26.5t38 54.5t18 86zM91 568l119 132h132l119 -132h-88l-97 99l-97 -99h-88z
" />
    <glyph glyph-name="atilde" unicode="&#xe3;" horiz-adv-x="553" 
d="M139 358h-84q0 29 9 56t31 54t67 43.5t109 16.5q36 0 67.5 -6.5t64.5 -23t52 -53t18 -88.5l-5 -235q0 -19 1 -27t5.5 -18t15.5 -13t31 -2v-62q-16 -4 -40 -4q-42 0 -62.5 14t-28.5 60q-25 -46 -71.5 -68t-102.5 -22q-84 0 -131.5 38t-47.5 115q0 71 52 109.5t197 51.5
q66 4 80 13q19 13 19 57q0 102 -114 102q-135 0 -132 -108zM383 217l2 43q-9 -7 -21.5 -11.5t-22.5 -6t-31.5 -3.5t-36.5 -4q-80 -13 -101 -23q-44 -21 -44 -76q0 -44 27 -69t71 -25q28 0 53 8t48 26.5t38 54.5t18 86zM403 700h58q-8 -40 -34 -71t-77 -31q-32 0 -82 26
q-46 24 -67 24q-47 0 -51 -40h-59q7 42 36.5 71t74.5 29q36 0 74 -22q48 -28 74 -28q18 0 33 12t20 30z" />
    <glyph glyph-name="adieresis" unicode="&#xe4;" horiz-adv-x="553" 
d="M139 358h-84q0 29 9 56t31 54t67 43.5t109 16.5q36 0 67.5 -6.5t64.5 -23t52 -53t18 -88.5l-5 -235q0 -19 1 -27t5.5 -18t15.5 -13t31 -2v-62q-16 -4 -40 -4q-42 0 -62.5 14t-28.5 60q-25 -46 -71.5 -68t-102.5 -22q-84 0 -131.5 38t-47.5 115q0 71 52 109.5t197 51.5
q66 4 80 13q19 13 19 57q0 102 -114 102q-135 0 -132 -108zM383 217l2 43q-9 -7 -21.5 -11.5t-22.5 -6t-31.5 -3.5t-36.5 -4q-80 -13 -101 -23q-44 -21 -44 -76q0 -44 27 -69t71 -25q28 0 53 8t48 26.5t38 54.5t18 86zM133 608v92h88v-92h-88zM331 608v92h88v-92h-88z" />
    <glyph glyph-name="aring" unicode="&#xe5;" horiz-adv-x="553" 
d="M139 358h-84q0 29 9 56t31 54t67 43.5t109 16.5q36 0 67.5 -6.5t64.5 -23t52 -53t18 -88.5l-5 -235q0 -19 1 -27t5.5 -18t15.5 -13t31 -2v-62q-16 -4 -40 -4q-42 0 -62.5 14t-28.5 60q-25 -46 -71.5 -68t-102.5 -22q-84 0 -131.5 38t-47.5 115q0 71 52 109.5t197 51.5
q66 4 80 13q19 13 19 57q0 102 -114 102q-135 0 -132 -108zM383 217l2 43q-9 -7 -21.5 -11.5t-22.5 -6t-31.5 -3.5t-36.5 -4q-80 -13 -101 -23q-44 -21 -44 -76q0 -44 27 -69t71 -25q28 0 53 8t48 26.5t38 54.5t18 86zM184 660q0 39 26.5 65.5t65.5 26.5t65.5 -26.5
t26.5 -65.5t-26.5 -65.5t-65.5 -26.5t-65.5 26.5t-26.5 65.5zM224 660q0 -22 15 -37t37 -15t37 15t15 37t-15 37t-37 15t-37 -15t-15 -37z" />
    <glyph glyph-name="ae" unicode="&#xe6;" horiz-adv-x="914" 
d="M144 358h-84q-2 73 52.5 121.5t162.5 48.5q140 0 174 -86q56 86 183 86q32 0 60.5 -4.5t62.5 -21.5t58.5 -45t41 -79t16.5 -119v-25h-393q0 -32 8 -63t25 -61.5t50 -49t77 -18.5q110 0 140 105h84q-5 -30 -18.5 -57t-38 -53t-66 -41.5t-95.5 -15.5q-31 0 -54 3
t-54.5 12.5t-58 33.5t-46.5 61q-62 -110 -198 -110q-196 0 -196 153q0 71 53 110.5t199 50.5q67 4 82 13q19 13 19 57q0 102 -114 102q-135 0 -132 -108zM390 217v43q-10 -7 -22.5 -11t-22 -5.5t-32 -4t-37.5 -4.5q-5 -1 -22.5 -3.5t-23 -3.5t-20.5 -4.5t-20 -5.5
l-16.5 -6.5t-16 -9l-12 -11.5t-10 -14.5t-5 -18t-2.5 -22.5q0 -38 25.5 -66t77.5 -28q47 0 80.5 18.5t49.5 47.5t22.5 56t6.5 53zM478 296h302q1 28 -5 55.5t-21 54.5t-45.5 43.5t-73.5 16.5q-77 0 -117 -49.5t-40 -120.5z" />
    <glyph glyph-name="ccedilla" unicode="&#xe7;" horiz-adv-x="548" 
d="M428 181h84q-2 -29 -12 -58t-32 -64t-68 -57t-109 -22q-16 0 -30 1t-41 7t-48.5 16t-46.5 31t-42 49.5t-28.5 73t-11.5 100.5q0 49 10.5 92.5t36 85.5t75.5 67t120 25q101 0 157.5 -51t65.5 -128h-84q-20 117 -137 117q-78 0 -114.5 -57.5t-36.5 -150.5q0 -94 39 -155
t118 -61q67 0 99.5 43t35.5 96zM168 -232l17 56q22 -8 62 -8q63 0 63 37t-59 37h-27h-17l15 52h32q133 0 133 -98q0 -33 -28 -58.5t-100 -25.5q-37 0 -91 8z" />
    <glyph glyph-name="egrave" unicode="&#xe8;" horiz-adv-x="570" 
d="M438 147h84q-12 -67 -64.5 -117t-157.5 -50q-52 0 -93.5 13t-67.5 32.5t-45.5 47.5t-29 52t-14.5 53t-6 44t-1 30q0 29 3 56.5t17 70t38.5 73t73.5 53.5t116 23q58 0 101.5 -18t67.5 -44t39 -65.5t20 -71t7 -70.5q0 -4 0.5 -12.5t0.5 -12.5h-391q0 -75 40.5 -133.5
t120.5 -58.5q60 0 96 29.5t45 75.5zM136 296h298q-1 30 -7.5 56t-20.5 53.5t-43 44t-70 16.5q-46 0 -79 -17t-49 -44.5t-22.5 -54t-6.5 -54.5zM277 700l70 -132h-80l-96 132h106z" />
    <glyph glyph-name="eacute" unicode="&#xe9;" horiz-adv-x="570" 
d="M438 147h84q-12 -67 -64.5 -117t-157.5 -50q-52 0 -93.5 13t-67.5 32.5t-45.5 47.5t-29 52t-14.5 53t-6 44t-1 30q0 29 3 56.5t17 70t38.5 73t73.5 53.5t116 23q58 0 101.5 -18t67.5 -44t39 -65.5t20 -71t7 -70.5q0 -4 0.5 -12.5t0.5 -12.5h-391q0 -75 40.5 -133.5
t120.5 -58.5q60 0 96 29.5t45 75.5zM136 296h298q-1 30 -7.5 56t-20.5 53.5t-43 44t-70 16.5q-46 0 -79 -17t-49 -44.5t-22.5 -54t-6.5 -54.5zM293 700h106l-96 -132h-80z" />
    <glyph glyph-name="ecircumflex" unicode="&#xea;" horiz-adv-x="570" 
d="M438 147h84q-12 -67 -64.5 -117t-157.5 -50q-52 0 -93.5 13t-67.5 32.5t-45.5 47.5t-29 52t-14.5 53t-6 44t-1 30q0 29 3 56.5t17 70t38.5 73t73.5 53.5t116 23q58 0 101.5 -18t67.5 -44t39 -65.5t20 -71t7 -70.5q0 -4 0.5 -12.5t0.5 -12.5h-391q0 -75 40.5 -133.5
t120.5 -58.5q60 0 96 29.5t45 75.5zM136 296h298q-1 30 -7.5 56t-20.5 53.5t-43 44t-70 16.5q-46 0 -79 -17t-49 -44.5t-22.5 -54t-6.5 -54.5zM100 568l119 132h132l119 -132h-88l-97 99l-97 -99h-88z" />
    <glyph glyph-name="edieresis" unicode="&#xeb;" horiz-adv-x="570" 
d="M438 147h84q-12 -67 -64.5 -117t-157.5 -50q-52 0 -93.5 13t-67.5 32.5t-45.5 47.5t-29 52t-14.5 53t-6 44t-1 30q0 29 3 56.5t17 70t38.5 73t73.5 53.5t116 23q58 0 101.5 -18t67.5 -44t39 -65.5t20 -71t7 -70.5q0 -4 0.5 -12.5t0.5 -12.5h-391q0 -75 40.5 -133.5
t120.5 -58.5q60 0 96 29.5t45 75.5zM136 296h298q-1 30 -7.5 56t-20.5 53.5t-43 44t-70 16.5q-46 0 -79 -17t-49 -44.5t-22.5 -54t-6.5 -54.5zM142 608v92h88v-92h-88zM340 608v92h88v-92h-88z" />
    <glyph glyph-name="igrave" unicode="&#xec;" horiz-adv-x="233" 
d="M72 508h89v-508h-89v508zM109 700l70 -132h-80l-96 132h106z" />
    <glyph glyph-name="iacute" unicode="&#xed;" horiz-adv-x="233" 
d="M72 508h89v-508h-89v508zM125 700h106l-96 -132h-80z" />
    <glyph glyph-name="icircumflex" unicode="&#xee;" horiz-adv-x="233" 
d="M72 508h89v-508h-89v508zM-68 568l119 132h132l119 -132h-88l-97 99l-97 -99h-88z" />
    <glyph glyph-name="idieresis" unicode="&#xef;" horiz-adv-x="233" 
d="M72 508h89v-508h-89v508zM-26 608v92h88v-92h-88zM172 608v92h88v-92h-88z" />
    <glyph glyph-name="eth" unicode="&#xf0;" horiz-adv-x="605" 
d="M150 686l13 47q97 -17 174 -51l85 51l26 -32l-67 -40q101 -52 136.5 -135t35.5 -203q0 -85 -17.5 -149t-43.5 -100t-63 -58t-69 -29t-69 -7q-112 0 -178 68.5t-66 187.5t59.5 195.5t183.5 76.5q145 0 196 -115h3q-14 163 -161 235l-139 -84l-26 32l119 72q-64 27 -132 38
zM460 247q0 21 -2 41t-11.5 50.5t-25.5 52.5t-47.5 38.5t-74.5 16.5q-42 0 -73 -17t-47 -40.5t-25.5 -56.5t-11.5 -55.5t-2 -46.5q0 -188 159 -188q18 0 34 2.5t41 14t42.5 32t30.5 61t13 95.5z" />
    <glyph glyph-name="ntilde" unicode="&#xf1;" horiz-adv-x="573" 
d="M72 508h88v-71q62 91 174 91q167 0 167 -190v-338h-88v311q0 25 -0.5 38t-6 39t-15.5 40t-32 26t-53 12q-23 0 -44 -6.5t-46 -24.5t-40.5 -58.5t-15.5 -99.5v-277h-88v508zM413 700h58q-8 -40 -34 -71t-77 -31q-32 0 -82 26q-46 24 -67 24q-47 0 -51 -40h-59
q7 42 36.5 71t74.5 29q36 0 74 -22q48 -28 74 -28q18 0 33 12t20 30z" />
    <glyph glyph-name="ograve" unicode="&#xf2;" horiz-adv-x="586" 
d="M43 254q0 53 13.5 100t41.5 87t78 63.5t117 23.5t117 -23.5t78 -63.5t41.5 -87t13.5 -100t-13.5 -100t-41.5 -87t-78 -63.5t-117 -23.5t-117 23.5t-78 63.5t-41.5 87t-13.5 100zM136 255q0 -58 13 -100.5t30.5 -63t42 -33t39.5 -14.5t32 -2t32 2t39.5 14.5t42 33t30.5 63
t13 100.5t-13 100.5t-30.5 63t-42 33t-39.5 14.5t-32 2t-32 -2t-39.5 -14.5t-42 -33t-30.5 -63t-13 -100.5zM285 700l70 -132h-80l-96 132h106z" />
    <glyph glyph-name="oacute" unicode="&#xf3;" horiz-adv-x="586" 
d="M43 254q0 53 13.5 100t41.5 87t78 63.5t117 23.5t117 -23.5t78 -63.5t41.5 -87t13.5 -100t-13.5 -100t-41.5 -87t-78 -63.5t-117 -23.5t-117 23.5t-78 63.5t-41.5 87t-13.5 100zM136 255q0 -58 13 -100.5t30.5 -63t42 -33t39.5 -14.5t32 -2t32 2t39.5 14.5t42 33t30.5 63
t13 100.5t-13 100.5t-30.5 63t-42 33t-39.5 14.5t-32 2t-32 -2t-39.5 -14.5t-42 -33t-30.5 -63t-13 -100.5zM301 700h106l-96 -132h-80z" />
    <glyph glyph-name="ocircumflex" unicode="&#xf4;" horiz-adv-x="586" 
d="M43 254q0 53 13.5 100t41.5 87t78 63.5t117 23.5t117 -23.5t78 -63.5t41.5 -87t13.5 -100t-13.5 -100t-41.5 -87t-78 -63.5t-117 -23.5t-117 23.5t-78 63.5t-41.5 87t-13.5 100zM136 255q0 -58 13 -100.5t30.5 -63t42 -33t39.5 -14.5t32 -2t32 2t39.5 14.5t42 33t30.5 63
t13 100.5t-13 100.5t-30.5 63t-42 33t-39.5 14.5t-32 2t-32 -2t-39.5 -14.5t-42 -33t-30.5 -63t-13 -100.5zM108 568l119 132h132l119 -132h-88l-97 99l-97 -99h-88z" />
    <glyph glyph-name="otilde" unicode="&#xf5;" horiz-adv-x="586" 
d="M43 254q0 53 13.5 100t41.5 87t78 63.5t117 23.5t117 -23.5t78 -63.5t41.5 -87t13.5 -100t-13.5 -100t-41.5 -87t-78 -63.5t-117 -23.5t-117 23.5t-78 63.5t-41.5 87t-13.5 100zM136 255q0 -58 13 -100.5t30.5 -63t42 -33t39.5 -14.5t32 -2t32 2t39.5 14.5t42 33t30.5 63
t13 100.5t-13 100.5t-30.5 63t-42 33t-39.5 14.5t-32 2t-32 -2t-39.5 -14.5t-42 -33t-30.5 -63t-13 -100.5zM420 700h58q-8 -40 -34 -71t-77 -31q-32 0 -82 26q-46 24 -67 24q-47 0 -51 -40h-59q7 42 36.5 71t74.5 29q35 0 74 -22q48 -28 74 -28q18 0 33 12t20 30z" />
    <glyph glyph-name="odieresis" unicode="&#xf6;" horiz-adv-x="586" 
d="M43 254q0 53 13.5 100t41.5 87t78 63.5t117 23.5t117 -23.5t78 -63.5t41.5 -87t13.5 -100t-13.5 -100t-41.5 -87t-78 -63.5t-117 -23.5t-117 23.5t-78 63.5t-41.5 87t-13.5 100zM136 255q0 -58 13 -100.5t30.5 -63t42 -33t39.5 -14.5t32 -2t32 2t39.5 14.5t42 33t30.5 63
t13 100.5t-13 100.5t-30.5 63t-42 33t-39.5 14.5t-32 2t-32 -2t-39.5 -14.5t-42 -33t-30.5 -63t-13 -100.5zM150 608v92h88v-92h-88zM348 608v92h88v-92h-88z" />
    <glyph glyph-name="divide" unicode="&#xf7;" 
d="M240 500q0 23 15.5 41.5t44.5 18.5t44.5 -18.5t15.5 -41.5t-15.5 -41.5t-44.5 -18.5t-44.5 18.5t-15.5 41.5zM240 152q0 23 15.5 41.5t44.5 18.5t44.5 -18.5t15.5 -41.5t-15.5 -41.5t-44.5 -18.5t-44.5 18.5t-15.5 41.5zM50 295v62h500v-62h-500z" />
    <glyph glyph-name="oslash" unicode="&#xf8;" horiz-adv-x="584" 
d="M43 0l56 66q-56 76 -56 189q0 124 63 198.5t186 74.5q101 0 156 -47l55 65l44 -38l-58 -69q52 -79 52 -184q0 -49 -11.5 -94t-38 -87.5t-77.5 -68t-122 -25.5q-97 0 -151 45l-53 -63zM156 134l243 289q-38 43 -107 43q-39 0 -68.5 -15t-45.5 -37t-26 -52t-13 -55t-3 -52
q0 -81 20 -121zM431 371l-242 -288q25 -25 48 -33t55 -8q16 0 31 2t39.5 14.5t42 33t30.5 63t13 100.5q0 80 -17 116z" />
    <glyph glyph-name="ugrave" unicode="&#xf9;" horiz-adv-x="573" 
d="M501 0h-88v72h-2q-23 -40 -64.5 -62.5t-65 -26t-42.5 -3.5q-167 0 -167 191v337h88v-311q0 -89 27 -122t80 -33q146 0 146 189v277h88v-508zM278 700l70 -132h-80l-96 132h106z" />
    <glyph glyph-name="uacute" unicode="&#xfa;" horiz-adv-x="573" 
d="M501 0h-88v72h-2q-23 -40 -64.5 -62.5t-65 -26t-42.5 -3.5q-167 0 -167 191v337h88v-311q0 -89 27 -122t80 -33q146 0 146 189v277h88v-508zM294 700h106l-96 -132h-80z" />
    <glyph glyph-name="ucircumflex" unicode="&#xfb;" horiz-adv-x="573" 
d="M501 0h-88v72h-2q-23 -40 -64.5 -62.5t-65 -26t-42.5 -3.5q-167 0 -167 191v337h88v-311q0 -89 27 -122t80 -33q146 0 146 189v277h88v-508zM101 568l119 132h132l119 -132h-88l-97 99l-97 -99h-88z" />
    <glyph glyph-name="udieresis" unicode="&#xfc;" horiz-adv-x="573" 
d="M501 0h-88v72h-2q-23 -40 -64.5 -62.5t-65 -26t-42.5 -3.5q-167 0 -167 191v337h88v-311q0 -89 27 -122t80 -33q146 0 146 189v277h88v-508zM143 608v92h88v-92h-88zM341 608v92h88v-92h-88z" />
    <glyph glyph-name="yacute" unicode="&#xfd;" horiz-adv-x="498" 
d="M91 -184v65q34 -5 44 -5q19 0 31.5 5.5t22.5 22t13.5 25t12.5 33.5l12 38l-220 508h105l163 -411l135 411h88l-202 -568q-22 -65 -41 -89q-34 -40 -92 -40q-48 0 -72 5zM257 700h106l-96 -132h-80z" />
    <glyph glyph-name="thorn" unicode="&#xfe;" horiz-adv-x="597" 
d="M72 700h88v-262q23 42 68 66t97 24q110 0 169.5 -75.5t59.5 -198.5q0 -138 -65.5 -206t-161.5 -68q-13 0 -29.5 2.5t-43.5 10.5t-52.5 28.5t-41.5 51.5v-258h-88v885zM154 252q0 -107 48.5 -158.5t108.5 -51.5q62 0 106 50.5t44 161.5q0 99 -40.5 155.5t-114.5 56.5
q-17 0 -33.5 -3.5t-39 -17t-39 -35t-28.5 -62.5t-12 -96z" />
    <glyph glyph-name="ydieresis" unicode="&#xff;" horiz-adv-x="498" 
d="M91 -184v65q34 -5 44 -5q19 0 31.5 5.5t22.5 22t13.5 25t12.5 33.5l12 38l-220 508h105l163 -411l135 411h88l-202 -568q-22 -65 -41 -89q-34 -40 -92 -40q-48 0 -72 5zM106 608v92h88v-92h-88zM304 608v92h88v-92h-88z" />
    <glyph glyph-name="Amacron" unicode="&#x100;" horiz-adv-x="622" 
d="M163 181l-66 -181h-101l265 700h100l265 -700h-101l-66 181h-296zM189 260h244l-122 345zM153 772v60h316v-60h-158h-158z" />
    <glyph glyph-name="amacron" unicode="&#x101;" horiz-adv-x="553" 
d="M139 358h-84q0 29 9 56t31 54t67 43.5t109 16.5q36 0 67.5 -6.5t64.5 -23t52 -53t18 -88.5l-5 -235q0 -19 1 -27t5.5 -18t15.5 -13t31 -2v-62q-16 -4 -40 -4q-42 0 -62.5 14t-28.5 60q-25 -46 -71.5 -68t-102.5 -22q-84 0 -131.5 38t-47.5 115q0 71 52 109.5t197 51.5
q66 4 80 13q19 13 19 57q0 102 -114 102q-135 0 -132 -108zM383 217l2 43q-9 -7 -21.5 -11.5t-22.5 -6t-31.5 -3.5t-36.5 -4q-80 -13 -101 -23q-44 -21 -44 -76q0 -44 27 -69t71 -25q28 0 53 8t48 26.5t38 54.5t18 86zM118 613v60h316v-60h-158h-158z" />
    <glyph glyph-name="Abreve" unicode="&#x102;" horiz-adv-x="622" 
d="M163 181l-66 -181h-101l265 700h100l265 -700h-101l-66 181h-296zM189 260h244l-122 345zM128 900h78q1 -38 30 -61t75 -23t71 19t34 65h78q-28 -140 -183 -140t-183 140z" />
    <glyph glyph-name="abreve" unicode="&#x103;" horiz-adv-x="553" 
d="M139 358h-84q0 29 9 56t31 54t67 43.5t109 16.5q36 0 67.5 -6.5t64.5 -23t52 -53t18 -88.5l-5 -235q0 -19 1 -27t5.5 -18t15.5 -13t31 -2v-62q-16 -4 -40 -4q-42 0 -62.5 14t-28.5 60q-25 -46 -71.5 -68t-102.5 -22q-84 0 -131.5 38t-47.5 115q0 71 52 109.5t197 51.5
q66 4 80 13q19 13 19 57q0 102 -114 102q-135 0 -132 -108zM383 217l2 43q-9 -7 -21.5 -11.5t-22.5 -6t-31.5 -3.5t-36.5 -4q-80 -13 -101 -23q-44 -21 -44 -76q0 -44 27 -69t71 -25q28 0 53 8t48 26.5t38 54.5t18 86zM104 700h74q3 -33 27 -56t71 -23t71 23t27 56h74
q-8 -51 -48.5 -91.5t-123.5 -40.5t-123.5 40.5t-48.5 91.5z" />
    <glyph glyph-name="Aogonek" unicode="&#x104;" horiz-adv-x="727" 
d="M163 181l-66 -181h-101l265 700h100l265 -700q-59 -46 -59 -103q0 -25 11.5 -42t34.5 -17q22 0 33 16.5t11 35.5h74q-3 -46 -34.5 -80t-88.5 -34q-58 0 -94.5 27.5t-36.5 74.5q0 69 69 122h-21l-66 181h-296zM189 260h244l-122 345z" />
    <glyph glyph-name="aogonek" unicode="&#x105;" horiz-adv-x="553" 
d="M139 358h-84q0 29 9 56t31 54t67 43.5t109 16.5q36 0 67.5 -6.5t64.5 -23t52 -53t18 -88.5l-5 -235q0 -39 9 -49.5t33 -10.5h11v-62q-59 -46 -59 -103q0 -25 11.5 -42t34.5 -17q22 0 33 16.5t11 35.5h74q-3 -46 -34.5 -80t-88.5 -34q-58 0 -94.5 27.5t-36.5 74.5
q0 69 69 122q-23 5 -34.5 21t-16.5 49q-25 -46 -71.5 -68t-102.5 -22q-84 0 -131.5 38t-47.5 115q0 71 52 109.5t197 51.5q66 4 80 13q19 13 19 57q0 102 -114 102q-135 0 -132 -108zM383 217l2 43q-9 -7 -21.5 -11.5t-22.5 -6t-31.5 -3.5t-36.5 -4q-31 -5 -45 -7
t-37.5 -9.5t-34 -17t-19.5 -26t-9 -39.5q0 -13 4 -27t13.5 -30.5t30.5 -26.5t50 -10q28 0 53 8t48 26.5t38 54.5t18 86z" />
    <glyph glyph-name="Cacute" unicode="&#x106;" horiz-adv-x="712" 
d="M580 232h94q-4 -34 -13.5 -65t-31.5 -66.5t-53 -61.5t-82.5 -43t-115.5 -17q-156 0 -244.5 95.5t-88.5 263.5q0 76 15.5 138t39 101t57 68t63 43t64.5 22t53.5 9.5t37.5 1.5q64 0 114.5 -14.5t81 -37.5t51.5 -55.5t30 -63.5t13 -66h-94q-2 24 -11 47t-28.5 50.5t-60 44
t-96.5 16.5q-63 0 -109.5 -25t-71.5 -68.5t-37 -95t-12 -111.5q0 -125 64 -204.5t173 -79.5q83 0 138.5 49t59.5 125zM363 900h112l-102 -140h-84z" />
    <glyph glyph-name="cacute" unicode="&#x107;" horiz-adv-x="548" 
d="M428 181h84q-2 -29 -12 -58t-32 -64t-68 -57t-109 -22q-16 0 -30 1t-41 7t-48.5 16t-46.5 31t-42 49.5t-28.5 73t-11.5 100.5q0 49 10.5 92.5t36 85.5t75.5 67t120 25q101 0 157.5 -51t65.5 -128h-84q-20 117 -137 117q-78 0 -114.5 -57.5t-36.5 -150.5q0 -94 39 -155
t118 -61q67 0 99.5 43t35.5 96zM282 700h106l-96 -132h-80z" />
    <glyph glyph-name="Ccircumflex" unicode="&#x108;" horiz-adv-x="712" 
d="M580 232h94q-4 -34 -13.5 -65t-31.5 -66.5t-53 -61.5t-82.5 -43t-115.5 -17q-156 0 -244.5 95.5t-88.5 263.5q0 76 15.5 138t39 101t57 68t63 43t64.5 22t53.5 9.5t37.5 1.5q64 0 114.5 -14.5t81 -37.5t51.5 -55.5t30 -63.5t13 -66h-94q-2 24 -11 47t-28.5 50.5t-60 44
t-96.5 16.5q-63 0 -109.5 -25t-71.5 -68.5t-37 -95t-12 -111.5q0 -125 64 -204.5t173 -79.5q83 0 138.5 49t59.5 125zM160 760l125 140h142l125 -140h-94l-102 105l-102 -105h-94z" />
    <glyph glyph-name="ccircumflex" unicode="&#x109;" horiz-adv-x="548" 
d="M428 181h84q-2 -29 -12 -58t-32 -64t-68 -57t-109 -22q-16 0 -30 1t-41 7t-48.5 16t-46.5 31t-42 49.5t-28.5 73t-11.5 100.5q0 49 10.5 92.5t36 85.5t75.5 67t120 25q101 0 157.5 -51t65.5 -128h-84q-20 117 -137 117q-78 0 -114.5 -57.5t-36.5 -150.5q0 -94 39 -155
t118 -61q67 0 99.5 43t35.5 96zM89 568l119 132h132l119 -132h-88l-97 99l-97 -99h-88z" />
    <glyph glyph-name="Ccaron" unicode="&#x10c;" horiz-adv-x="712" 
d="M580 232h94q-4 -34 -13.5 -65t-31.5 -66.5t-53 -61.5t-82.5 -43t-115.5 -17q-156 0 -244.5 95.5t-88.5 263.5q0 76 15.5 138t39 101t57 68t63 43t64.5 22t53.5 9.5t37.5 1.5q64 0 114.5 -14.5t81 -37.5t51.5 -55.5t30 -63.5t13 -66h-94q-2 24 -11 47t-28.5 50.5t-60 44
t-96.5 16.5q-63 0 -109.5 -25t-71.5 -68.5t-37 -95t-12 -111.5q0 -125 64 -204.5t173 -79.5q83 0 138.5 49t59.5 125zM427 760h-142l-125 140h94l102 -105l102 105h94z" />
    <glyph glyph-name="ccaron" unicode="&#x10d;" horiz-adv-x="548" 
d="M428 181h84q-2 -29 -12 -58t-32 -64t-68 -57t-109 -22q-16 0 -30 1t-41 7t-48.5 16t-46.5 31t-42 49.5t-28.5 73t-11.5 100.5q0 49 10.5 92.5t36 85.5t75.5 67t120 25q101 0 157.5 -51t65.5 -128h-84q-20 117 -137 117q-78 0 -114.5 -57.5t-36.5 -150.5q0 -94 39 -155
t118 -61q67 0 99.5 43t35.5 96zM340 568h-132l-119 132h88l97 -99l97 99h88z" />
    <glyph glyph-name="Dcaron" unicode="&#x10e;" horiz-adv-x="719" 
d="M85 700h257q22 0 41.5 -1t55.5 -8.5t65 -20t62.5 -39t56 -62t37.5 -91.5t15 -126q0 -71 -15 -127.5t-36.5 -93t-56.5 -62.5t-64.5 -39t-71 -20t-66 -8.5t-58.5 -1.5h-222v700zM179 621v-542h131q136 0 200.5 65.5t64.5 205.5q0 76 -20 131t-55 84.5t-75 42.5t-88 13h-158
zM430 760h-142l-125 140h94l102 -105l102 105h94z" />
    <glyph glyph-name="dcaron" unicode="&#x10f;" horiz-adv-x="719" 
d="M425 700h88v-700h-82v70h-3q-46 -90 -168 -90q-109 0 -170 75t-61 200q0 36 4.5 69.5t19.5 72t39.5 66.5t67 46.5t98.5 18.5q116 0 167 -86v258zM122 255q0 -55 12 -96t28.5 -62.5t39.5 -34.5t40.5 -16.5t36.5 -3.5q64 0 108 52.5t44 162.5q0 104 -44.5 156.5
t-112.5 52.5t-110 -52.5t-42 -158.5zM607 700h99v-140q0 -53 -30.5 -81t-68.5 -36v55q21 2 35.5 20.5t14.5 41.5v31h-50v109z" />
    <glyph glyph-name="Dcroat" unicode="&#x110;" horiz-adv-x="728" 
d="M94 700h257q22 0 41.5 -1t55.5 -8.5t65 -20t62.5 -39t56 -62t37.5 -91.5t15 -126q0 -71 -15 -127.5t-36.5 -93t-56.5 -62.5t-64.5 -39t-71 -20t-66 -8.5t-58.5 -1.5h-222v366h-94v62h94v272zM188 621v-193h198v-62h-198v-287h131q136 0 200.5 65.5t64.5 205.5
q0 76 -20 131t-55 84.5t-75 42.5t-88 13h-158z" />
    <glyph glyph-name="dcroat" unicode="&#x111;" horiz-adv-x="599" 
d="M439 700h88v-65h85v-54h-85v-581h-83v70h-2q-46 -90 -168 -90q-109 0 -170 75t-61 200q0 36 4.5 69.5t19.5 72t39.5 66.5t67 46.5t98.5 18.5q116 0 167 -86v139h-184v54h184v65zM136 255q0 -55 12 -96t28.5 -62.5t39.5 -34.5t40.5 -16.5t36.5 -3.5q14 0 28.5 2.5t38 15
t41 33.5t30.5 63.5t13 100.5q0 105 -43.5 157t-112.5 52q-68 0 -110 -52.5t-42 -158.5z" />
    <glyph glyph-name="Emacron" unicode="&#x112;" horiz-adv-x="612" 
d="M179 401h367v-79h-367v-243h416v-79h-510v700h499v-79h-405v-220zM148 772v60h316v-60h-158h-158z" />
    <glyph glyph-name="emacron" unicode="&#x113;" horiz-adv-x="570" 
d="M438 147h84q-12 -67 -64.5 -117t-157.5 -50q-52 0 -93.5 13t-67.5 32.5t-45.5 47.5t-29 52t-14.5 53t-6 44t-1 30q0 29 3 56.5t17 70t38.5 73t73.5 53.5t116 23q58 0 101.5 -18t67.5 -44t39 -65.5t20 -71t7 -70.5q0 -4 0.5 -12.5t0.5 -12.5h-391q0 -75 40.5 -133.5
t120.5 -58.5q60 0 96 29.5t45 75.5zM136 296h298q-1 30 -7.5 56t-20.5 53.5t-43 44t-70 16.5q-46 0 -79 -17t-49 -44.5t-22.5 -54t-6.5 -54.5zM127 613v60h316v-60h-158h-158z" />
    <glyph glyph-name="Edotaccent" unicode="&#x116;" horiz-adv-x="612" 
d="M179 401h367v-79h-367v-243h416v-79h-510v700h499v-79h-405v-220zM259 772v79h94v-79h-94z" />
    <glyph glyph-name="edotaccent" unicode="&#x117;" horiz-adv-x="570" 
d="M438 147h84q-12 -67 -64.5 -117t-157.5 -50q-52 0 -93.5 13t-67.5 32.5t-45.5 47.5t-29 52t-14.5 53t-6 44t-1 30q0 29 3 56.5t17 70t38.5 73t73.5 53.5t116 23q58 0 101.5 -18t67.5 -44t39 -65.5t20 -71t7 -70.5q0 -4 0.5 -12.5t0.5 -12.5h-391q0 -75 40.5 -133.5
t120.5 -58.5q60 0 96 29.5t45 75.5zM136 296h298q-1 30 -7.5 56t-20.5 53.5t-43 44t-70 16.5q-46 0 -79 -17t-49 -44.5t-22.5 -54t-6.5 -54.5zM239 608v92h92v-92h-92z" />
    <glyph glyph-name="Eogonek" unicode="&#x118;" horiz-adv-x="612" 
d="M179 401h367v-79h-367v-243h416v-79h-50q-30 -17 -47 -45t-17 -58q0 -25 11.5 -42t34.5 -17q22 0 33 16.5t11 35.5h74q-3 -46 -34.5 -80t-88.5 -34q-58 0 -94.5 27.5t-36.5 74.5q0 69 69 122h-375v700h499v-79h-405v-220z" />
    <glyph glyph-name="eogonek" unicode="&#x119;" horiz-adv-x="580" 
d="M442 145h89q-11 -49 -52.5 -100.5t-82.5 -51.5h-1q-53 -44 -53 -95q0 -24 11 -40.5t33 -16.5q20 0 31.5 14.5t10.5 35.5h71q-3 -49 -35.5 -79t-81.5 -30q-55 0 -90.5 27t-35.5 71q0 53 47 100q-111 -9 -185.5 62.5t-74.5 209.5q0 20 1 38t7 47t15.5 53t28.5 51t45 45
t66 30t89 12q58 0 103 -17.5t70.5 -43.5t41.5 -61t21.5 -65.5t5.5 -62.5q0 -34 -1 -45h-398q6 -100 51 -145t112 -45q53 0 93 27.5t48 74.5zM139 297h303q-1 29 -7.5 55t-21.5 53.5t-44.5 44t-71.5 16.5q-78 0 -118 -49.5t-40 -119.5z" />
    <glyph glyph-name="Ecaron" unicode="&#x11a;" horiz-adv-x="612" 
d="M179 401h367v-79h-367v-243h416v-79h-510v700h499v-79h-405v-220zM377 760h-142l-125 140h94l102 -105l102 105h94z" />
    <glyph glyph-name="ecaron" unicode="&#x11b;" horiz-adv-x="570" 
d="M438 147h84q-12 -67 -64.5 -117t-157.5 -50q-52 0 -93.5 13t-67.5 32.5t-45.5 47.5t-29 52t-14.5 53t-6 44t-1 30q0 29 3 56.5t17 70t38.5 73t73.5 53.5t116 23q58 0 101.5 -18t67.5 -44t39 -65.5t20 -71t7 -70.5q0 -4 0.5 -12.5t0.5 -12.5h-391q0 -75 40.5 -133.5
t120.5 -58.5q60 0 96 29.5t45 75.5zM136 296h298q-1 30 -7.5 56t-20.5 53.5t-43 44t-70 16.5q-46 0 -79 -17t-49 -44.5t-22.5 -54t-6.5 -54.5zM351 568h-132l-119 132h88l97 -99l97 99h88z" />
    <glyph glyph-name="Gcircumflex" unicode="&#x11c;" horiz-adv-x="740" 
d="M396 365h286v-365h-73v113h-2q-30 -64 -90.5 -99t-142.5 -35q-66 0 -122.5 20t-104 62.5t-75 118.5t-27.5 177q0 175 91.5 269.5t250.5 94.5q131 0 202.5 -66t82.5 -162h-94q-5 59 -50 104t-143 45q-63 0 -109.5 -23.5t-70.5 -55.5t-38.5 -76t-18 -73.5t-3.5 -59.5
q0 -15 1.5 -33t7 -48t15 -57.5t27.5 -57t42.5 -51t62 -35.5t83.5 -14q61 0 105 23t66 59.5t31.5 72.5t9.5 73h-200v79zM174 760l125 140h142l125 -140h-94l-102 105l-102 -105h-94z" />
    <glyph glyph-name="gcircumflex" unicode="&#x11d;" 
d="M82 -57h84q20 -73 134 -73q33 0 58 9.5t39.5 26t24 33t13 37t4.5 31t1 21.5v55q-35 -57 -71.5 -80t-92.5 -23q-98 0 -163.5 70t-65.5 208q0 21 1.5 37.5t6.5 52.5t19.5 63.5t37 56t63 44.5t92.5 16q127 0 176 -90h3v70h82v-495q0 -55 -19.5 -96t-46 -61t-62 -32
t-57.5 -14.5t-43 -2.5h-26.5t-32 2.5t-38 7.5t-37 15t-36 24t-28 36.5t-20.5 50.5zM296 42q13 0 28.5 3.5t38 17t40 35.5t30.5 64.5t13 97.5q0 97 -40.5 151.5t-117.5 54.5q-148 0 -148 -205q0 -58 12.5 -101t30 -65t41.5 -34.5t39.5 -15.5t32.5 -3zM115 568l119 132h132
l119 -132h-88l-97 99l-97 -99h-88z" />
    <glyph glyph-name="Gbreve" unicode="&#x11e;" horiz-adv-x="740" 
d="M396 365h286v-365h-73v113h-2q-30 -64 -90.5 -99t-142.5 -35q-66 0 -122.5 20t-104 62.5t-75 118.5t-27.5 177q0 175 91.5 269.5t250.5 94.5q131 0 202.5 -66t82.5 -162h-94q-5 59 -50 104t-143 45q-63 0 -109.5 -23.5t-70.5 -55.5t-38.5 -76t-18 -73.5t-3.5 -59.5
q0 -15 1.5 -33t7 -48t15 -57.5t27.5 -57t42.5 -51t62 -35.5t83.5 -14q61 0 105 23t66 59.5t31.5 72.5t9.5 73h-200v79zM187 900h78q1 -38 30 -61t75 -23t71 19t34 65h78q-5 -25 -15 -46.5t-29.5 -44t-55 -36t-83.5 -13.5t-83.5 13.5t-55 36t-29.5 44t-15 46.5z" />
    <glyph glyph-name="gbreve" unicode="&#x11f;" 
d="M82 -57h84q20 -73 134 -73q33 0 58 9.5t39.5 26t24 33t13 37t4.5 31t1 21.5v55q-35 -57 -71.5 -80t-92.5 -23q-98 0 -163.5 70t-65.5 208q0 21 1.5 37.5t6.5 52.5t19.5 63.5t37 56t63 44.5t92.5 16q127 0 176 -90h3v70h82v-495q0 -55 -19.5 -96t-46 -61t-62 -32
t-57.5 -14.5t-43 -2.5h-26.5t-32 2.5t-38 7.5t-37 15t-36 24t-28 36.5t-20.5 50.5zM296 42q13 0 28.5 3.5t38 17t40 35.5t30.5 64.5t13 97.5q0 97 -40.5 151.5t-117.5 54.5q-148 0 -148 -205q0 -58 12.5 -101t30 -65t41.5 -34.5t39.5 -15.5t32.5 -3zM128 700h74
q3 -33 27 -56t71 -23t71 23t27 56h74q-8 -51 -48.5 -91.5t-123.5 -40.5t-123.5 40.5t-48.5 91.5z" />
    <glyph glyph-name="Gcommaaccent" unicode="&#x122;" horiz-adv-x="740" 
d="M396 365h286v-365h-73v113h-2q-30 -64 -90.5 -99t-142.5 -35q-66 0 -122.5 20t-104 62.5t-75 118.5t-27.5 177q0 175 91.5 269.5t250.5 94.5q131 0 202.5 -66t82.5 -162h-94q-5 59 -50 104t-143 45q-63 0 -109.5 -23.5t-70.5 -55.5t-38.5 -76t-18 -73.5t-3.5 -59.5
q0 -15 1.5 -33t7 -48t15 -57.5t27.5 -57t42.5 -51t62 -35.5t83.5 -14q61 0 105 23t66 59.5t31.5 72.5t9.5 73h-200v79zM320 -60h99v-101q0 -78 -99 -99v55q21 2 35.5 14.5t14.5 29.5v11h-50v90z" />
    <glyph glyph-name="gcommaaccent" unicode="&#x123;" 
d="M82 -57h84q20 -73 134 -73q33 0 58 9.5t39.5 26t24 33t13 37t4.5 31t1 21.5v55q-35 -57 -71.5 -80t-92.5 -23q-98 0 -163.5 70t-65.5 208q0 21 1.5 37.5t6.5 52.5t19.5 63.5t37 56t63 44.5t92.5 16q127 0 176 -90h3v70h82v-495q0 -55 -19.5 -96t-46 -61t-62 -32
t-57.5 -14.5t-43 -2.5h-26.5t-32 2.5t-38 7.5t-37 15t-36 24t-28 36.5t-20.5 50.5zM296 42q13 0 28.5 3.5t38 17t40 35.5t30.5 64.5t13 97.5q0 97 -40.5 151.5t-117.5 54.5q-148 0 -148 -205q0 -58 12.5 -101t30 -65t41.5 -34.5t39.5 -15.5t32.5 -3zM347 599h-99v101
q0 78 99 99v-55q-21 -2 -35.5 -14.5t-14.5 -29.5v-11h50v-90z" />
    <glyph glyph-name="Hcircumflex" unicode="&#x124;" horiz-adv-x="710" 
d="M179 329v-329h-94v700h94v-292h352v292h94v-700h-94v329h-352zM159 760l125 140h142l125 -140h-94l-102 105l-102 -105h-94z" />
    <glyph glyph-name="hcircumflex" unicode="&#x125;" horiz-adv-x="572" 
d="M72 700h88v-263q67 91 174 91q166 0 166 -190v-338h-88v311q0 27 -0.5 39.5t-5.5 39t-15.5 40t-32 25t-52.5 11.5q-23 0 -44 -6.5t-46 -24.5t-40.5 -58.5t-15.5 -99.5v-277h-88v700zM93 780l119 132h132l119 -132h-88l-97 99l-97 -99h-88z" />
    <glyph glyph-name="Imacron" unicode="&#x12a;" horiz-adv-x="264" 
d="M85 700h94v-700h-94v700zM-26 772v60h316v-60h-158h-158z" />
    <glyph glyph-name="imacron" unicode="&#x12b;" horiz-adv-x="233" 
d="M72 508h89v-508h-89v508zM-41 613v60h316v-60h-158h-158z" />
    <glyph glyph-name="Iogonek" unicode="&#x12e;" horiz-adv-x="264" 
d="M85 700h94v-700h-4q-29 -17 -46.5 -46t-17.5 -57q0 -25 11.5 -42t34.5 -17q22 0 33 16.5t11 35.5h74q-3 -46 -34.5 -80t-88.5 -34q-58 0 -94.5 27.5t-36.5 74.5q0 51 36 91q25 25 33 31h-5v700z" />
    <glyph glyph-name="iogonek" unicode="&#x12f;" horiz-adv-x="228" 
d="M70 508h88v-508h-2q-18 -10 -31 -25q-33 -39 -33 -78q0 -25 11.5 -42t34.5 -17q22 0 33 16.5t11 35.5h74q-3 -46 -34.5 -80t-88.5 -34q-58 0 -94.5 27.5t-36.5 74.5q0 31 11 53q8 18 21.5 34.5t23 25t13.5 9.5h-1v508zM70 608v92h88v-92h-88z" />
    <glyph glyph-name="Idotaccent" unicode="&#x130;" horiz-adv-x="238" 
d="M72 700h94v-700h-94v700zM72 772v79h94v-79h-94z" />
    <glyph glyph-name="dotlessi" unicode="&#x131;" horiz-adv-x="233" 
d="M72 508h89v-508h-89v508z" />
    <glyph glyph-name="Jcircumflex" unicode="&#x134;" horiz-adv-x="520" 
d="M23 232h94q0 -88 27 -131t94 -43q69 0 92.5 44t23.5 131v467h94v-458q0 -139 -48.5 -201t-162.5 -62q-214 0 -214 217v36zM204 760l125 140h142l125 -140h-94l-102 105l-102 -105h-94z" />
    <glyph glyph-name="jcircumflex" unicode="&#x135;" horiz-adv-x="231" 
d="M73 508h88v-555q0 -72 -26.5 -107t-93.5 -35q-9 0 -57 4v62q19 3 30.5 5t22.5 6.5t16 5t10 8t6.5 9t2.5 14t1 16.5v23v544zM50 700h132l119 -132h-88l-97 99l-97 -99h-89z" />
    <glyph glyph-name="Kcommaaccent" unicode="&#x136;" horiz-adv-x="667" 
d="M179 353l346 347h127l-292 -288l311 -412h-125l-255 349l-112 -109v-240h-94v700h94v-347zM284 -60h99v-101q0 -78 -99 -99v55q21 2 35.5 14.5t14.5 29.5v11h-50v90z" />
    <glyph glyph-name="kcommaaccent" unicode="&#x137;" horiz-adv-x="523" 
d="M160 266l242 242h105l-200 -196l220 -312h-102l-179 258l-86 -85v-173h-88v700h88v-434zM232 -60h99v-101q0 -78 -99 -99v55q21 2 35.5 14.5t14.5 29.5v11h-50v90z" />
    <glyph glyph-name="Lacute" unicode="&#x139;" horiz-adv-x="529" 
d="M535 79v-79h-450v700h94v-621h356zM271 900h112l-102 -140h-84z" />
    <glyph glyph-name="lacute" unicode="&#x13a;" horiz-adv-x="232" 
d="M72 700h88v-700h-88v700zM144 883h106l-96 -132h-80z" />
    <glyph glyph-name="Lcommaaccent" unicode="&#x13b;" horiz-adv-x="529" 
d="M535 79v-79h-450v700h94v-621h356zM215 -60h99v-101q0 -78 -99 -99v55q21 2 35.5 14.5t14.5 29.5v11h-50v90z" />
    <glyph glyph-name="lcommaaccent" unicode="&#x13c;" horiz-adv-x="232" 
d="M72 700h88v-700h-88v700zM66 -60h99v-101q0 -78 -99 -99v55q21 2 35.5 14.5t14.5 29.5v11h-50v90z" />
    <glyph glyph-name="Lcaron" unicode="&#x13d;" horiz-adv-x="529" 
d="M535 79v-79h-450v700h94v-621h356zM417 700h99v-140q0 -53 -30.5 -81t-68.5 -36v55q21 2 35.5 20.5t14.5 41.5v31h-50v109z" />
    <glyph glyph-name="lcaron" unicode="&#x13e;" horiz-adv-x="319" 
d="M72 700h88v-700h-88v700zM229 700h99v-140q0 -53 -30.5 -81t-68.5 -36v55q21 2 35.5 20.5t14.5 41.5v31h-50v109z" />
    <glyph glyph-name="Lslash" unicode="&#x141;" horiz-adv-x="531" 
d="M537 79v-79h-450v194l-77 -76v84l77 76v422h94v-348l200 200v-84l-200 -200v-189h356z" />
    <glyph glyph-name="lslash" unicode="&#x142;" horiz-adv-x="294" 
d="M103 700h88v-247l123 85v-70l-123 -85v-383h-88v331l-123 -84v70l123 84v299z" />
    <glyph glyph-name="Nacute" unicode="&#x143;" horiz-adv-x="740" 
d="M179 555v-555h-94v700h104l372 -555v555h94v-700h-103zM377 900h112l-102 -140h-84z" />
    <glyph glyph-name="nacute" unicode="&#x144;" horiz-adv-x="573" 
d="M72 508h88v-71q62 91 174 91q167 0 167 -190v-338h-88v311q0 25 -0.5 38t-6 39t-15.5 40t-32 26t-53 12q-23 0 -44 -6.5t-46 -24.5t-40.5 -58.5t-15.5 -99.5v-277h-88v508zM294 700h106l-96 -132h-80z" />
    <glyph glyph-name="Ncommaaccent" unicode="&#x145;" horiz-adv-x="740" 
d="M179 555v-555h-94v700h104l372 -555v555h94v-700h-103zM320 -60h99v-101q0 -78 -99 -99v55q21 2 35.5 14.5t14.5 29.5v11h-50v90z" />
    <glyph glyph-name="ncommaaccent" unicode="&#x146;" horiz-adv-x="573" 
d="M72 508h88v-71q62 91 174 91q167 0 167 -190v-338h-88v311q0 25 -0.5 38t-6 39t-15.5 40t-32 26t-53 12q-23 0 -44 -6.5t-46 -24.5t-40.5 -58.5t-15.5 -99.5v-277h-88v508zM237 -60h99v-101q0 -78 -99 -99v55q21 2 35.5 14.5t14.5 29.5v11h-50v90z" />
    <glyph glyph-name="Ncaron" unicode="&#x147;" horiz-adv-x="740" 
d="M179 555v-555h-94v700h104l372 -555v555h94v-700h-103zM441 760h-142l-125 140h94l102 -105l102 105h94z" />
    <glyph glyph-name="ncaron" unicode="&#x148;" horiz-adv-x="573" 
d="M72 508h88v-71q62 91 174 91q167 0 167 -190v-338h-88v311q0 25 -0.5 38t-6 39t-15.5 40t-32 26t-53 12q-23 0 -44 -6.5t-46 -24.5t-40.5 -58.5t-15.5 -99.5v-277h-88v508zM352 568h-132l-119 132h88l97 -99l97 99h88z" />
    <glyph glyph-name="Omacron" unicode="&#x14c;" horiz-adv-x="758" 
d="M45 350q0 179 91.5 275t242.5 96q49 0 94.5 -11t90 -38t77 -68t52.5 -106.5t20 -147.5q0 -75 -17 -135.5t-41.5 -98.5t-60 -65.5t-65.5 -41t-65.5 -21t-52 -8.5t-32.5 -1q-17 0 -33.5 1t-52 8.5t-65.5 21t-65.5 41t-60 65.5t-41 98.5t-16.5 135.5zM145 350q0 -39 5 -74.5
t20 -76.5t40 -71t68.5 -50t100.5 -20q15 0 28.5 1t38.5 7.5t45.5 17.5t44 33t39.5 51.5t27 76.5t11 105q0 131 -59 211.5t-175 80.5q-61 0 -106.5 -24t-69 -56.5t-37.5 -76.5t-17.5 -74.5t-3.5 -60.5zM221 772v60h316v-60h-158h-158z" />
    <glyph glyph-name="omacron" unicode="&#x14d;" horiz-adv-x="586" 
d="M43 254q0 53 13.5 100t41.5 87t78 63.5t117 23.5t117 -23.5t78 -63.5t41.5 -87t13.5 -100t-13.5 -100t-41.5 -87t-78 -63.5t-117 -23.5t-117 23.5t-78 63.5t-41.5 87t-13.5 100zM136 255q0 -58 13 -100.5t30.5 -63t42 -33t39.5 -14.5t32 -2t32 2t39.5 14.5t42 33t30.5 63
t13 100.5t-13 100.5t-30.5 63t-42 33t-39.5 14.5t-32 2t-32 -2t-39.5 -14.5t-42 -33t-30.5 -63t-13 -100.5zM135 613v60h316v-60h-158h-158z" />
    <glyph glyph-name="Obreve" unicode="&#x14e;" horiz-adv-x="758" 
d="M45 350q0 179 91.5 275t242.5 96q49 0 94.5 -11t90 -38t77 -68t52.5 -106.5t20 -147.5q0 -75 -17 -135.5t-41.5 -98.5t-60 -65.5t-65.5 -41t-65.5 -21t-52 -8.5t-32.5 -1q-17 0 -33.5 1t-52 8.5t-65.5 21t-65.5 41t-60 65.5t-41 98.5t-16.5 135.5zM145 350q0 -39 5 -74.5
t20 -76.5t40 -71t68.5 -50t100.5 -20q15 0 28.5 1t38.5 7.5t45.5 17.5t44 33t39.5 51.5t27 76.5t11 105q0 131 -59 211.5t-175 80.5q-61 0 -106.5 -24t-69 -56.5t-37.5 -76.5t-17.5 -74.5t-3.5 -60.5zM196 900h78q1 -38 30 -61t75 -23t71 19t34 65h78q-28 -140 -183 -140
q-48 0 -83.5 13.5t-55 36t-29.5 44t-15 46.5z" />
    <glyph glyph-name="obreve" unicode="&#x14f;" horiz-adv-x="586" 
d="M43 254q0 53 13.5 100t41.5 87t78 63.5t117 23.5t117 -23.5t78 -63.5t41.5 -87t13.5 -100t-13.5 -100t-41.5 -87t-78 -63.5t-117 -23.5t-117 23.5t-78 63.5t-41.5 87t-13.5 100zM136 255q0 -58 13 -100.5t30.5 -63t42 -33t39.5 -14.5t32 -2t32 2t39.5 14.5t42 33t30.5 63
t13 100.5t-13 100.5t-30.5 63t-42 33t-39.5 14.5t-32 2t-32 -2t-39.5 -14.5t-42 -33t-30.5 -63t-13 -100.5zM121 700h74q3 -33 27 -56t71 -23t71 23t27 56h74q-8 -51 -48.5 -91.5t-123.5 -40.5t-123.5 40.5t-48.5 91.5z" />
    <glyph glyph-name="Ohungarumlaut" unicode="&#x150;" horiz-adv-x="758" 
d="M45 350q0 179 91.5 275t242.5 96q49 0 94.5 -11t90 -38t77 -68t52.5 -106.5t20 -147.5q0 -75 -17 -135.5t-41.5 -98.5t-60 -65.5t-65.5 -41t-65.5 -21t-52 -8.5t-32.5 -1q-17 0 -33.5 1t-52 8.5t-65.5 21t-65.5 41t-60 65.5t-41 98.5t-16.5 135.5zM145 350q0 -39 5 -74.5
t20 -76.5t40 -71t68.5 -50t100.5 -20q15 0 28.5 1t38.5 7.5t45.5 17.5t44 33t39.5 51.5t27 76.5t11 105q0 131 -59 211.5t-175 80.5q-61 0 -106.5 -24t-69 -56.5t-37.5 -76.5t-17.5 -74.5t-3.5 -60.5zM284 900h106l-96 -140h-80zM437 900h106l-96 -140h-80z" />
    <glyph glyph-name="ohungarumlaut" unicode="&#x151;" horiz-adv-x="586" 
d="M43 254q0 53 13.5 100t41.5 87t78 63.5t117 23.5t117 -23.5t78 -63.5t41.5 -87t13.5 -100t-13.5 -100t-41.5 -87t-78 -63.5t-117 -23.5t-117 23.5t-78 63.5t-41.5 87t-13.5 100zM136 255q0 -58 13 -100.5t30.5 -63t42 -33t39.5 -14.5t32 -2t32 2t39.5 14.5t42 33t30.5 63
t13 100.5t-13 100.5t-30.5 63t-42 33t-39.5 14.5t-32 2t-32 -2t-39.5 -14.5t-42 -33t-30.5 -63t-13 -100.5zM198 700h106l-96 -132h-80zM351 700h106l-96 -132h-80z" />
    <glyph glyph-name="OE" unicode="&#x152;" horiz-adv-x="1141" 
d="M613 700h499v-79h-405v-220h367v-79h-367v-243h417v-79h-511v84q-74 -105 -234 -105q-167 0 -250.5 104.5t-83.5 266.5q0 74 17 137t54 117t104 85.5t158 31.5q166 0 235 -117v96zM379 58q15 0 28.5 1t38.5 7.5t45.5 17.5t44 33t39.5 51.5t27 76.5t11 105q0 74 -18 130
t-43 85.5t-59.5 48t-60.5 23.5t-53 5q-28 0 -54 -5t-60.5 -23t-59.5 -48t-42.5 -86t-17.5 -130q0 -39 5 -74.5t20 -76.5t40 -71t68.5 -50t100.5 -20z" />
    <glyph glyph-name="oe" unicode="&#x153;" horiz-adv-x="972" 
d="M840 148h84q-40 -168 -225 -168q-29 0 -50 2.5t-52.5 11.5t-58 31.5t-46.5 58.5q-55 -104 -200 -104q-123 0 -186 76.5t-63 199.5q0 30 3.5 59t19 70t41 70.5t74.5 51t115 21.5q138 0 196 -100q65 100 199 100q47 0 85 -11.5t62.5 -29t42.5 -43.5t27 -49t14 -51.5t6 -46
t1 -37.5v-25h-393q0 -48 15 -90t52.5 -72.5t92.5 -30.5q61 0 97 30.5t47 75.5zM136 256q0 -58 13 -100.5t30.5 -63.5t42 -33t39.5 -14.5t31 -2.5q39 0 68 15t45.5 37.5t26.5 53t13 56t3 52.5q0 26 -3 51t-13 55t-26.5 52t-45.5 37t-68 15q-16 0 -31 -2.5t-39.5 -14.5
t-42 -32.5t-30.5 -62t-13 -98.5zM536 297h300q-10 89 -41.5 129t-101.5 40q-46 0 -78 -16.5t-48 -44.5t-23 -54t-8 -54z" />
    <glyph glyph-name="Racute" unicode="&#x154;" horiz-adv-x="681" 
d="M85 0v700h310q232 0 232 -188q0 -62 -32.5 -111.5t-87.5 -61.5v-3q34 -13 55 -30t30 -42t12 -44t4 -53q0 -14 0.5 -37t1 -31.5t1.5 -24t2.5 -22.5t4.5 -17.5t7.5 -18t10.5 -16.5h-99q-17 23 -21.5 50t-4.5 98q0 33 -3.5 54.5t-15.5 46t-40 36.5t-73 12h-200v-297h-94z
M179 621v-245h210q16 0 32 2.5t36 11t35 21.5t25 36.5t10 54.5q0 119 -152 119h-196zM347 900h112l-102 -140h-84z" />
    <glyph glyph-name="racute" unicode="&#x155;" horiz-adv-x="369" 
d="M356 528v-62q-93 -4 -141 -45t-54 -133q-1 -9 -1 -27v-27v-234h-88v508h88v-98h2q17 54 64 84.5t104 32.5zM192 700h106l-96 -132h-80z" />
    <glyph glyph-name="Rcommaaccent" unicode="&#x156;" horiz-adv-x="681" 
d="M85 0v700h310q232 0 232 -188q0 -62 -32.5 -111.5t-87.5 -61.5v-3q34 -13 55 -30t30 -42t12 -44t4 -53q0 -14 0.5 -37t1 -31.5t1.5 -24t2.5 -22.5t4.5 -17.5t7.5 -18t10.5 -16.5h-99q-17 23 -21.5 50t-4.5 98q0 33 -3.5 54.5t-15.5 46t-40 36.5t-73 12h-200v-297h-94z
M179 621v-245h210q16 0 32 2.5t36 11t35 21.5t25 36.5t10 54.5q0 119 -152 119h-196zM291 -60h99v-101q0 -78 -99 -99v55q21 2 35.5 14.5t14.5 29.5v11h-50v90z" />
    <glyph glyph-name="rcommaaccent" unicode="&#x157;" horiz-adv-x="369" 
d="M356 528v-62q-93 -4 -141 -45t-54 -133q-1 -9 -1 -27v-27v-234h-88v508h88v-98h2q17 54 64 84.5t104 32.5zM135 -60h99v-101q0 -78 -99 -99v55q21 2 35.5 14.5t14.5 29.5v11h-50v90z" />
    <glyph glyph-name="Rcaron" unicode="&#x158;" horiz-adv-x="681" 
d="M85 0v700h310q232 0 232 -188q0 -62 -32.5 -111.5t-87.5 -61.5v-3q34 -13 55 -30t30 -42t12 -44t4 -53q0 -14 0.5 -37t1 -31.5t1.5 -24t2.5 -22.5t4.5 -17.5t7.5 -18t10.5 -16.5h-99q-17 23 -21.5 50t-4.5 98q0 33 -3.5 54.5t-15.5 46t-40 36.5t-73 12h-200v-297h-94z
M179 621v-245h210q16 0 32 2.5t36 11t35 21.5t25 36.5t10 54.5q0 119 -152 119h-196zM411 760h-142l-125 140h94l102 -105l102 105h94z" />
    <glyph glyph-name="rcaron" unicode="&#x159;" horiz-adv-x="369" 
d="M356 528v-62q-93 -4 -141 -45t-54 -133q-1 -9 -1 -27v-27v-234h-88v508h88v-98h2q17 54 64 84.5t104 32.5zM251 568h-132l-119 132h88l97 -99l97 99h88z" />
    <glyph glyph-name="Sacute" unicode="&#x15a;" horiz-adv-x="656" 
d="M45 222h94q-2 -71 52 -117.5t148 -46.5q87 0 129.5 37.5t42.5 92.5q0 31 -12 53.5t-35 35.5t-43.5 20.5t-50.5 13.5q-15 3 -47 10l-46.5 10t-42 10t-40.5 12.5l-34 15t-31.5 18.5t-24 23t-20 30t-11 36t-4.5 44q0 97 72 149t193 52q122 0 187 -57.5t72 -145.5h-94
q-14 124 -168 124q-73 0 -117.5 -31.5t-44.5 -85.5q0 -21 5.5 -37t20.5 -27.5t26 -19t38 -14.5t39 -9.5l46 -9.5q33 -6 48 -9.5l45.5 -11t46.5 -15t39.5 -19.5t36.5 -27t26.5 -34.5t19 -45t5.5 -56.5q0 -43 -13 -77.5t-31.5 -56t-47 -37t-52 -23t-54 -12t-45.5 -5t-34 -0.5
q-277 0 -289 243zM335 900h112l-102 -140h-84z" />
    <glyph glyph-name="sacute" unicode="&#x15b;" horiz-adv-x="506" 
d="M36 151h88q2 -56 41.5 -82.5t96.5 -26.5q33 0 57 8.5t35 19t17.5 26.5t7 23.5t0.5 18.5q0 30 -19.5 49t-87.5 35l-54 12q-39 9 -62 17t-48.5 23.5t-37.5 42.5t-12 65q0 41 17 70.5t45.5 45.5t61 23t69.5 7q192 0 206 -153h-84q-9 91 -119 91q-8 0 -15.5 -0.5t-25.5 -4.5
t-30.5 -11.5t-23 -24t-10.5 -39.5q0 -13 3.5 -24t7.5 -18.5t14.5 -14.5l16.5 -11t22.5 -8.5t22.5 -6t26.5 -6t26.5 -5.5q40 -9 60 -14.5t47.5 -17.5t40.5 -25.5t23 -36.5t10 -54q0 -45 -20.5 -78t-46 -49t-60 -25t-51.5 -10.5t-31 -1.5q-108 0 -165.5 48.5t-59.5 122.5z
M261 700h106l-96 -132h-80z" />
    <glyph glyph-name="Scircumflex" unicode="&#x15c;" horiz-adv-x="656" 
d="M45 222h94q-2 -71 52 -117.5t148 -46.5q87 0 129.5 37.5t42.5 92.5q0 31 -12 53.5t-35 35.5t-43.5 20.5t-50.5 13.5q-15 3 -47 10l-46.5 10t-42 10t-40.5 12.5l-34 15t-31.5 18.5t-24 23t-20 30t-11 36t-4.5 44q0 97 72 149t193 52q122 0 187 -57.5t72 -145.5h-94
q-14 124 -168 124q-73 0 -117.5 -31.5t-44.5 -85.5q0 -21 5.5 -37t20.5 -27.5t26 -19t38 -14.5t39 -9.5l46 -9.5q33 -6 48 -9.5l45.5 -11t46.5 -15t39.5 -19.5t36.5 -27t26.5 -34.5t19 -45t5.5 -56.5q0 -43 -13 -77.5t-31.5 -56t-47 -37t-52 -23t-54 -12t-45.5 -5t-34 -0.5
q-277 0 -289 243zM132 760l125 140h142l125 -140h-94l-102 105l-102 -105h-94z" />
    <glyph glyph-name="scircumflex" unicode="&#x15d;" horiz-adv-x="506" 
d="M36 151h88q2 -56 41.5 -82.5t96.5 -26.5q33 0 57 8.5t35 19t17.5 26.5t7 23.5t0.5 18.5q0 30 -19.5 49t-87.5 35l-54 12q-39 9 -62 17t-48.5 23.5t-37.5 42.5t-12 65q0 41 17 70.5t45.5 45.5t61 23t69.5 7q192 0 206 -153h-84q-9 91 -119 91q-8 0 -15.5 -0.5t-25.5 -4.5
t-30.5 -11.5t-23 -24t-10.5 -39.5q0 -13 3.5 -24t7.5 -18.5t14.5 -14.5l16.5 -11t22.5 -8.5t22.5 -6t26.5 -6t26.5 -5.5q40 -9 60 -14.5t47.5 -17.5t40.5 -25.5t23 -36.5t10 -54q0 -45 -20.5 -78t-46 -49t-60 -25t-51.5 -10.5t-31 -1.5q-108 0 -165.5 48.5t-59.5 122.5z
M68 568l119 132h132l119 -132h-88l-97 99l-97 -99h-88z" />
    <glyph glyph-name="Scedilla" unicode="&#x15e;" horiz-adv-x="656" 
d="M45 222h94q-2 -71 52 -117.5t148 -46.5q87 0 129.5 37.5t42.5 92.5q0 31 -12 53.5t-35 35.5t-43.5 20.5t-50.5 13.5q-15 3 -47 10l-46.5 10t-42 10t-40.5 12.5l-34 15t-31.5 18.5t-24 23t-20 30t-11 36t-4.5 44q0 97 72 149t193 52q122 0 187 -57.5t72 -145.5h-94
q-14 124 -168 124q-73 0 -117.5 -31.5t-44.5 -85.5q0 -21 5.5 -37t20.5 -27.5t26 -19t38 -14.5t39 -9.5l46 -9.5q33 -6 48 -9.5l45.5 -11t46.5 -15t39.5 -19.5t36.5 -27t26.5 -34.5t19 -45t5.5 -56.5q0 -43 -13 -77.5t-31.5 -56t-47 -37t-52 -23t-54 -12t-45.5 -5t-34 -0.5
q-277 0 -289 243zM222 -232l17 56q22 -8 62 -8q63 0 63 37t-59 37h-27h-17l15 52h32q133 0 133 -98q0 -33 -28 -58.5t-100 -25.5q-37 0 -91 8z" />
    <glyph glyph-name="Scedilla" unicode="&#xf6c1;" horiz-adv-x="656" 
d="M45 222h94q-2 -71 52 -117.5t148 -46.5q87 0 129.5 37.5t42.5 92.5q0 31 -12 53.5t-35 35.5t-43.5 20.5t-50.5 13.5q-15 3 -47 10l-46.5 10t-42 10t-40.5 12.5l-34 15t-31.5 18.5t-24 23t-20 30t-11 36t-4.5 44q0 97 72 149t193 52q122 0 187 -57.5t72 -145.5h-94
q-14 124 -168 124q-73 0 -117.5 -31.5t-44.5 -85.5q0 -21 5.5 -37t20.5 -27.5t26 -19t38 -14.5t39 -9.5l46 -9.5q33 -6 48 -9.5l45.5 -11t46.5 -15t39.5 -19.5t36.5 -27t26.5 -34.5t19 -45t5.5 -56.5q0 -43 -13 -77.5t-31.5 -56t-47 -37t-52 -23t-54 -12t-45.5 -5t-34 -0.5
q-277 0 -289 243zM222 -232l17 56q22 -8 62 -8q63 0 63 37t-59 37h-27h-17l15 52h32q133 0 133 -98q0 -33 -28 -58.5t-100 -25.5q-37 0 -91 8z" />
    <glyph glyph-name="scedilla" unicode="&#x15f;" horiz-adv-x="506" 
d="M36 151h88q2 -56 41.5 -82.5t96.5 -26.5q33 0 57 8.5t35 19t17.5 26.5t7 23.5t0.5 18.5q0 30 -19.5 49t-87.5 35l-54 12q-39 9 -62 17t-48.5 23.5t-37.5 42.5t-12 65q0 41 17 70.5t45.5 45.5t61 23t69.5 7q192 0 206 -153h-84q-9 91 -119 91q-8 0 -15.5 -0.5t-25.5 -4.5
t-30.5 -11.5t-23 -24t-10.5 -39.5q0 -13 3.5 -24t7.5 -18.5t14.5 -14.5l16.5 -11t22.5 -8.5t22.5 -6t26.5 -6t26.5 -5.5q40 -9 60 -14.5t47.5 -17.5t40.5 -25.5t23 -36.5t10 -54q0 -45 -20.5 -78t-46 -49t-60 -25t-51.5 -10.5t-31 -1.5q-108 0 -165.5 48.5t-59.5 122.5z
M147 -232l17 56q22 -8 62 -8q63 0 63 37t-59 37h-27h-17l15 52h32q133 0 133 -98q0 -33 -28 -58.5t-100 -25.5q-37 0 -91 8z" />
    <glyph glyph-name="scedilla" unicode="&#xf6c2;" horiz-adv-x="506" 
d="M36 151h88q2 -56 41.5 -82.5t96.5 -26.5q33 0 57 8.5t35 19t17.5 26.5t7 23.5t0.5 18.5q0 30 -19.5 49t-87.5 35l-54 12q-39 9 -62 17t-48.5 23.5t-37.5 42.5t-12 65q0 41 17 70.5t45.5 45.5t61 23t69.5 7q192 0 206 -153h-84q-9 91 -119 91q-8 0 -15.5 -0.5t-25.5 -4.5
t-30.5 -11.5t-23 -24t-10.5 -39.5q0 -13 3.5 -24t7.5 -18.5t14.5 -14.5l16.5 -11t22.5 -8.5t22.5 -6t26.5 -6t26.5 -5.5q40 -9 60 -14.5t47.5 -17.5t40.5 -25.5t23 -36.5t10 -54q0 -45 -20.5 -78t-46 -49t-60 -25t-51.5 -10.5t-31 -1.5q-108 0 -165.5 48.5t-59.5 122.5z
M147 -232l17 56q22 -8 62 -8q63 0 63 37t-59 37h-27h-17l15 52h32q133 0 133 -98q0 -33 -28 -58.5t-100 -25.5q-37 0 -91 8z" />
    <glyph glyph-name="Scaron" unicode="&#x160;" horiz-adv-x="656" 
d="M45 222h94q-2 -71 52 -117.5t148 -46.5q87 0 129.5 37.5t42.5 92.5q0 31 -12 53.5t-35 35.5t-43.5 20.5t-50.5 13.5q-15 3 -47 10l-46.5 10t-42 10t-40.5 12.5l-34 15t-31.5 18.5t-24 23t-20 30t-11 36t-4.5 44q0 97 72 149t193 52q122 0 187 -57.5t72 -145.5h-94
q-14 124 -168 124q-73 0 -117.5 -31.5t-44.5 -85.5q0 -21 5.5 -37t20.5 -27.5t26 -19t38 -14.5t39 -9.5l46 -9.5q33 -6 48 -9.5l45.5 -11t46.5 -15t39.5 -19.5t36.5 -27t26.5 -34.5t19 -45t5.5 -56.5q0 -43 -13 -77.5t-31.5 -56t-47 -37t-52 -23t-54 -12t-45.5 -5t-34 -0.5
q-277 0 -289 243zM399 760h-142l-125 140h94l102 -105l102 105h94z" />
    <glyph glyph-name="scaron" unicode="&#x161;" horiz-adv-x="506" 
d="M36 151h88q2 -56 41.5 -82.5t96.5 -26.5q33 0 57 8.5t35 19t17.5 26.5t7 23.5t0.5 18.5q0 30 -19.5 49t-87.5 35l-54 12q-39 9 -62 17t-48.5 23.5t-37.5 42.5t-12 65q0 41 17 70.5t45.5 45.5t61 23t69.5 7q192 0 206 -153h-84q-9 91 -119 91q-8 0 -15.5 -0.5t-25.5 -4.5
t-30.5 -11.5t-23 -24t-10.5 -39.5q0 -13 3.5 -24t7.5 -18.5t14.5 -14.5l16.5 -11t22.5 -8.5t22.5 -6t26.5 -6t26.5 -5.5q40 -9 60 -14.5t47.5 -17.5t40.5 -25.5t23 -36.5t10 -54q0 -45 -20.5 -78t-46 -49t-60 -25t-51.5 -10.5t-31 -1.5q-108 0 -165.5 48.5t-59.5 122.5z
M319 568h-132l-119 132h88l97 -99l97 99h88z" />
    <glyph glyph-name="Tcedilla" unicode="&#x162;" horiz-adv-x="575" 
d="M241 621h-228v79h549v-79h-227v-621h-94v621zM181 -232l17 56q22 -8 62 -8q63 0 63 37t-59 37h-27h-17l15 52h32q133 0 133 -98q0 -33 -28 -58.5t-100 -25.5q-37 0 -91 8z" />
    <glyph glyph-name="tcedilla" unicode="&#x163;" horiz-adv-x="320" 
d="M13 508h91v152h88v-152h108v-62h-108v-323v-5q0 -23 1.5 -34t14 -21t37.5 -10q24 0 55 9v-62q-47 -20 -92 -20q-30 0 -51 8.5t-31 19.5t-15.5 31t-6 31.5t-0.5 34.5v341h-91v62zM83 -232l17 56q22 -8 62 -8q63 0 63 37t-59 37h-27h-17l15 52h32q133 0 133 -98
q0 -33 -28 -58.5t-100 -25.5q-37 0 -91 8z" />
    <glyph glyph-name="Tcaron" unicode="&#x164;" horiz-adv-x="575" 
d="M241 621h-228v79h549v-79h-227v-621h-94v621zM358 760h-142l-125 140h94l102 -105l102 105h94z" />
    <glyph glyph-name="tcaron" unicode="&#x165;" horiz-adv-x="454" 
d="M13 508h91v152h88v-152h108v-62h-108v-323v-5q0 -23 1.5 -34t14 -21t37.5 -10q24 0 55 9v-62q-47 -20 -92 -20q-30 0 -51 8.5t-31 19.5t-15.5 31t-6 31.5t-0.5 34.5v341h-91v62zM356 700h99v-140q0 -53 -30.5 -81t-68.5 -36v55q21 2 35.5 20.5t14.5 41.5v31h-50v109z" />
    <glyph glyph-name="Utilde" unicode="&#x168;" horiz-adv-x="696" 
d="M72 700h94v-417q0 -34 2 -57.5t12 -58t28 -56t54 -37.5t86 -16q101 0 141.5 55t40.5 170v417h94v-429q0 -59 -12 -106t-29 -77t-44 -51.5t-50 -32.5t-53.5 -17t-48 -7t-39.5 -1q-73 0 -126.5 19.5t-81.5 47.5t-44 71t-20 76.5t-4 77.5v429zM483 868h61q-7 -44 -36 -76
t-80 -32q-6 0 -11 0.5t-11 1.5t-9.5 1.5t-9.5 2.5t-8.5 3t-9 4t-9 4t-10.5 5l-10 5q-5 2 -17.5 9t-18 9t-15 4.5t-19.5 2.5q-22 0 -37.5 -10.5t-18.5 -30.5h-62q6 43 38 74t80 31q40 0 78 -23q47 -29 78 -29q47 0 57 44z" />
    <glyph glyph-name="utilde" unicode="&#x169;" horiz-adv-x="573" 
d="M501 0h-88v72h-2q-23 -40 -64.5 -62.5t-65 -26t-42.5 -3.5q-167 0 -167 191v337h88v-311q0 -89 27 -122t80 -33q146 0 146 189v277h88v-508zM413 700h58q-8 -40 -34 -71t-77 -31q-32 0 -82 26q-46 24 -67 24q-47 0 -51 -40h-59q7 42 36.5 71t74.5 29q36 0 74 -22
q48 -28 74 -28q18 0 33 12t20 30z" />
    <glyph glyph-name="Umacron" unicode="&#x16a;" horiz-adv-x="696" 
d="M72 700h94v-417q0 -34 2 -57.5t12 -58t28 -56t54 -37.5t86 -16q101 0 141.5 55t40.5 170v417h94v-429q0 -59 -12 -106t-29 -77t-44 -51.5t-50 -32.5t-53.5 -17t-48 -7t-39.5 -1q-73 0 -126.5 19.5t-81.5 47.5t-44 71t-20 76.5t-4 77.5v429zM190 772v60h316v-60h-158h-158
z" />
    <glyph glyph-name="umacron" unicode="&#x16b;" horiz-adv-x="573" 
d="M501 0h-88v72h-2q-23 -40 -64.5 -62.5t-65 -26t-42.5 -3.5q-167 0 -167 191v337h88v-311q0 -89 27 -122t80 -33q146 0 146 189v277h88v-508zM128 613v60h316v-60h-158h-158z" />
    <glyph glyph-name="Ubreve" unicode="&#x16c;" horiz-adv-x="696" 
d="M72 700h94v-417q0 -34 2 -57.5t12 -58t28 -56t54 -37.5t86 -16q101 0 141.5 55t40.5 170v417h94v-429q0 -59 -12 -106t-29 -77t-44 -51.5t-50 -32.5t-53.5 -17t-48 -7t-39.5 -1q-73 0 -126.5 19.5t-81.5 47.5t-44 71t-20 76.5t-4 77.5v429zM165 900h78q1 -38 30 -61
t75 -23t71 19t34 65h78q-5 -25 -15 -46.5t-29.5 -44t-55 -36t-83.5 -13.5t-83.5 13.5t-55 36t-29.5 44t-15 46.5z" />
    <glyph glyph-name="ubreve" unicode="&#x16d;" horiz-adv-x="573" 
d="M501 0h-88v72h-2q-23 -40 -64.5 -62.5t-65 -26t-42.5 -3.5q-167 0 -167 191v337h88v-311q0 -89 27 -122t80 -33q146 0 146 189v277h88v-508zM114 700h74q3 -33 27 -56t71 -23t71 23t27 56h74q-8 -51 -48.5 -91.5t-123.5 -40.5t-123.5 40.5t-48.5 91.5z" />
    <glyph glyph-name="Uring" unicode="&#x16e;" horiz-adv-x="696" 
d="M72 700h94v-417q0 -34 2 -57.5t12 -58t28 -56t54 -37.5t86 -16q101 0 141.5 55t40.5 170v417h94v-429q0 -59 -12 -106t-29 -77t-44 -51.5t-50 -32.5t-53.5 -17t-48 -7t-39.5 -1q-73 0 -126.5 19.5t-81.5 47.5t-44 71t-20 76.5t-4 77.5v429zM250 822q0 41 28.5 69.5
t69.5 28.5t69.5 -28.5t28.5 -69.5t-28.5 -69.5t-69.5 -28.5t-69.5 28.5t-28.5 69.5zM292 822q0 -23 16.5 -39.5t39.5 -16.5t39.5 16.5t16.5 39.5t-16.5 39.5t-39.5 16.5t-39.5 -16.5t-16.5 -39.5z" />
    <glyph glyph-name="uring" unicode="&#x16f;" horiz-adv-x="573" 
d="M501 0h-88v72h-2q-23 -40 -64.5 -62.5t-65 -26t-42.5 -3.5q-167 0 -167 191v337h88v-311q0 -89 27 -122t80 -33q146 0 146 189v277h88v-508zM194 660q0 39 26.5 65.5t65.5 26.5t65.5 -26.5t26.5 -65.5t-26.5 -65.5t-65.5 -26.5t-65.5 26.5t-26.5 65.5zM234 660
q0 -22 15 -37t37 -15t37 15t15 37t-15 37t-37 15t-37 -15t-15 -37z" />
    <glyph glyph-name="Uhungarumlaut" unicode="&#x170;" horiz-adv-x="696" 
d="M72 700h94v-417q0 -34 2 -57.5t12 -58t28 -56t54 -37.5t86 -16q101 0 141.5 55t40.5 170v417h94v-429q0 -59 -12 -106t-29 -77t-44 -51.5t-50 -32.5t-53.5 -17t-48 -7t-39.5 -1q-73 0 -126.5 19.5t-81.5 47.5t-44 71t-20 76.5t-4 77.5v429zM253 900h106l-96 -140h-80z
M406 900h106l-96 -140h-80z" />
    <glyph glyph-name="uhungarumlaut" unicode="&#x171;" horiz-adv-x="573" 
d="M501 0h-88v72h-2q-23 -40 -64.5 -62.5t-65 -26t-42.5 -3.5q-167 0 -167 191v337h88v-311q0 -89 27 -122t80 -33q146 0 146 189v277h88v-508zM192 700h106l-96 -132h-80zM345 700h106l-96 -132h-80z" />
    <glyph glyph-name="Uogonek" unicode="&#x172;" horiz-adv-x="696" 
d="M72 700h94v-417q0 -34 2 -57.5t12 -58t28 -56t54 -37.5t86 -16q101 0 141.5 55t40.5 170v417h94v-429q0 -73 -18 -127.5t-44.5 -85t-63 -49.5t-67 -24.5t-63.5 -5.5q-16 -15 -26.5 -39t-10.5 -43q0 -25 11.5 -42t34.5 -17q22 0 33 16.5t11 35.5h74q-3 -46 -34.5 -80
t-88.5 -34q-58 0 -94.5 27.5t-36.5 74.5q0 56 48 104q-217 23 -217 289v429z" />
    <glyph glyph-name="uogonek" unicode="&#x173;" horiz-adv-x="573" 
d="M72 508h88v-311q0 -89 27 -122t80 -33q146 0 146 189v277h88v-508h-3q-29 -17 -46.5 -46t-17.5 -57q0 -25 11.5 -42t34.5 -17q22 0 33 16.5t11 35.5h74q-3 -46 -34.5 -80t-88.5 -34q-58 0 -94.5 27.5t-36.5 74.5q0 31 11 53q8 18 21.5 34.5t23 25t13.5 9.5v72h-2
q-23 -40 -64.5 -62.5t-65 -26t-42.5 -3.5q-167 0 -167 191v337z" />
    <glyph glyph-name="Ydieresis" unicode="&#x178;" horiz-adv-x="453" 
d="M227 376l194 324h112l-259 -408v-292h-94v292l-260 408h112zM71 772v79h94v-79h-94zM287 772v79h94v-79h-94z" />
    <glyph glyph-name="Zacute" unicode="&#x179;" horiz-adv-x="593" 
d="M48 700h499v-75l-406 -546h426v-79h-541v86l411 535h-389v79zM303 900h112l-102 -140h-84z" />
    <glyph glyph-name="zacute" unicode="&#x17a;" horiz-adv-x="468" 
d="M47 508h380v-62l-295 -384h310v-62h-416v62l304 384h-283v62zM242 700h106l-96 -132h-80z" />
    <glyph glyph-name="Zdotaccent" unicode="&#x17b;" horiz-adv-x="593" 
d="M48 700h499v-75l-406 -546h426v-79h-541v86l411 535h-389v79zM249 772v79h94v-79h-94z" />
    <glyph glyph-name="zdotaccent" unicode="&#x17c;" horiz-adv-x="468" 
d="M47 508h380v-62l-295 -384h310v-62h-416v62l304 384h-283v62zM188 608v92h92v-92h-92z" />
    <glyph glyph-name="Zcaron" unicode="&#x17d;" horiz-adv-x="593" 
d="M48 700h499v-75l-406 -546h426v-79h-541v86l411 535h-389v79zM367 760h-142l-125 140h94l102 -105l102 105h94z" />
    <glyph glyph-name="zcaron" unicode="&#x17e;" horiz-adv-x="468" 
d="M47 508h380v-62l-295 -384h310v-62h-416v62l304 384h-283v62zM300 568h-132l-119 132h88l97 -99l97 99h88z" />
    <glyph glyph-name="Schwa" unicode="&#x18f;" horiz-adv-x="764" 
d="M48 361h568q-1 69 -19 122t-43 82t-58 47.5t-60 24t-54 5.5q-19 0 -38 -1.5t-52 -10.5t-58.5 -24.5t-48.5 -47t-31 -74.5h-97q23 116 110.5 176.5t214.5 60.5q152 0 243 -96t91 -275q0 -75 -17 -135.5t-41.5 -98.5t-60 -65.5t-65.5 -41t-65.5 -21t-52 -8.5t-32.5 -1
q-77 0 -138 25t-97.5 64t-60 91t-31.5 102t-7 100zM613 278h-463q3 -26 10.5 -52.5t25 -58t42 -54.5t64.5 -39t90 -16q105 0 164.5 65t66.5 155z" />
    <glyph glyph-name="florin" unicode="&#x192;" horiz-adv-x="580" 
d="M465 508l-13 -62h-109l-103 -490q-5 -24 -9 -38t-15 -37t-25.5 -36t-41 -23.5t-60.5 -10.5q-31 0 -55 4l14 65q5 -1 14 -1q42 0 61 18t29 65l102 484h-93l13 62h93l15 69q27 123 162 123q34 0 62 -7l-12 -60q-25 5 -62 5q-50 0 -63 -69l-13 -61h109z" />
    <glyph glyph-name="cyrObar" unicode="&#x19f;" horiz-adv-x="758" 
d="M45 350q0 179 91.5 275t242.5 96q49 0 94.5 -11t90 -38t77 -68t52.5 -106.5t20 -147.5q0 -75 -17 -135.5t-41.5 -98.5t-60 -65.5t-65.5 -41t-65.5 -21t-52 -8.5t-32.5 -1q-17 0 -33.5 1t-52 8.5t-65.5 21t-65.5 41t-60 65.5t-41 98.5t-16.5 135.5zM147 391h465
q-2 26 -6.5 51t-19.5 63.5t-38.5 67t-67.5 49t-101 20.5q-63 0 -109.5 -24t-71 -64.5t-36.5 -79.5t-15 -83zM612 312h-466q0 -22 3.5 -48t18 -64.5t38 -68t68.5 -51.5t105 -22q53 0 95 17.5t67 44t41 62t22.5 67t7.5 63.5z" />
    <glyph glyph-name="cyrObar" unicode="&#x4e8;" horiz-adv-x="758" 
d="M45 350q0 179 91.5 275t242.5 96q49 0 94.5 -11t90 -38t77 -68t52.5 -106.5t20 -147.5q0 -75 -17 -135.5t-41.5 -98.5t-60 -65.5t-65.5 -41t-65.5 -21t-52 -8.5t-32.5 -1q-17 0 -33.5 1t-52 8.5t-65.5 21t-65.5 41t-60 65.5t-41 98.5t-16.5 135.5zM147 391h465
q-2 26 -6.5 51t-19.5 63.5t-38.5 67t-67.5 49t-101 20.5q-63 0 -109.5 -24t-71 -64.5t-36.5 -79.5t-15 -83zM612 312h-466q0 -22 3.5 -48t18 -64.5t38 -68t68.5 -51.5t105 -22q53 0 95 17.5t67 44t41 62t22.5 67t7.5 63.5z" />
    <glyph glyph-name="Icaron" unicode="&#x1cf;" horiz-adv-x="264" 
d="M85 700h94v-700h-94v700zM203 760h-142l-125 140h94l102 -105l102 105h94z" />
    <glyph glyph-name="icaron" unicode="&#x1d0;" horiz-adv-x="233" 
d="M72 508h89v-508h-89v508zM183 568h-132l-119 132h88l97 -99l97 99h88z" />
    <glyph glyph-name="eturn" unicode="&#x1dd;" horiz-adv-x="570" 
d="M136 361h-84q9 46 33.5 80t50.5 50t59 25t49 10.5t30 1.5q51 0 92 -13t67 -32t45 -46.5t28 -51.5t14 -53t6 -44t1 -32q0 -55 -12 -100t-30 -73t-44 -49t-48 -31t-48 -15.5t-39.5 -6.5t-26.5 -1q-242 0 -236 294h391q0 30 -7.5 61t-24.5 62t-49 50t-76 19q-50 0 -91.5 -28
t-49.5 -77zM434 212h-299q1 -46 14.5 -80t30 -50.5t39 -26.5t34.5 -11.5t24 -1.5q149 0 157 170z" />
    <glyph glyph-name="Gcaron" unicode="&#x1e6;" horiz-adv-x="740" 
d="M396 365h286v-365h-73v113h-2q-30 -64 -90.5 -99t-142.5 -35q-66 0 -122.5 20t-104 62.5t-75 118.5t-27.5 177q0 175 91.5 269.5t250.5 94.5q131 0 202.5 -66t82.5 -162h-94q-5 59 -50 104t-143 45q-63 0 -109.5 -23.5t-70.5 -55.5t-38.5 -76t-18 -73.5t-3.5 -59.5
q0 -15 1.5 -33t7 -48t15 -57.5t27.5 -57t42.5 -51t62 -35.5t83.5 -14q61 0 105 23t66 59.5t31.5 72.5t9.5 73h-200v79zM441 760h-142l-125 140h94l102 -105l102 105h94z" />
    <glyph glyph-name="gcaron" unicode="&#x1e7;" 
d="M82 -57h84q20 -73 134 -73q33 0 58 9.5t39.5 26t24 33t13 37t4.5 31t1 21.5v55q-35 -57 -71.5 -80t-92.5 -23q-98 0 -163.5 70t-65.5 208q0 21 1.5 37.5t6.5 52.5t19.5 63.5t37 56t63 44.5t92.5 16q127 0 176 -90h3v70h82v-495q0 -55 -19.5 -96t-46 -61t-62 -32
t-57.5 -14.5t-43 -2.5h-26.5t-32 2.5t-38 7.5t-37 15t-36 24t-28 36.5t-20.5 50.5zM296 42q13 0 28.5 3.5t38 17t40 35.5t30.5 64.5t13 97.5q0 97 -40.5 151.5t-117.5 54.5q-148 0 -148 -205q0 -58 12.5 -101t30 -65t41.5 -34.5t39.5 -15.5t32.5 -3zM366 568h-132l-119 132
h88l97 -99l97 99h88z" />
    <glyph glyph-name="Scommaaccent" unicode="&#x218;" horiz-adv-x="656" 
d="M45 222h94q-2 -71 52 -117.5t148 -46.5q87 0 129.5 37.5t42.5 92.5q0 31 -12 53.5t-35 35.5t-43.5 20.5t-50.5 13.5q-15 3 -47 10l-46.5 10t-42 10t-40.5 12.5l-34 15t-31.5 18.5t-24 23t-20 30t-11 36t-4.5 44q0 97 72 149t193 52q122 0 187 -57.5t72 -145.5h-94
q-14 124 -168 124q-73 0 -117.5 -31.5t-44.5 -85.5q0 -21 5.5 -37t20.5 -27.5t26 -19t38 -14.5t39 -9.5l46 -9.5q33 -6 48 -9.5l45.5 -11t46.5 -15t39.5 -19.5t36.5 -27t26.5 -34.5t19 -45t5.5 -56.5q0 -43 -13 -77.5t-31.5 -56t-47 -37t-52 -23t-54 -12t-45.5 -5t-34 -0.5
q-277 0 -289 243zM278 -60h99v-101q0 -78 -99 -99v55q21 2 35.5 14.5t14.5 29.5v11h-50v90z" />
    <glyph glyph-name="scommaaccent" unicode="&#x219;" horiz-adv-x="506" 
d="M36 151h88q2 -56 41.5 -82.5t96.5 -26.5q33 0 57 8.5t35 19t17.5 26.5t7 23.5t0.5 18.5q0 30 -19.5 49t-87.5 35l-54 12q-39 9 -62 17t-48.5 23.5t-37.5 42.5t-12 65q0 41 17 70.5t45.5 45.5t61 23t69.5 7q192 0 206 -153h-84q-9 91 -119 91q-8 0 -15.5 -0.5t-25.5 -4.5
t-30.5 -11.5t-23 -24t-10.5 -39.5q0 -13 3.5 -24t7.5 -18.5t14.5 -14.5l16.5 -11t22.5 -8.5t22.5 -6t26.5 -6t26.5 -5.5q40 -9 60 -14.5t47.5 -17.5t40.5 -25.5t23 -36.5t10 -54q0 -45 -20.5 -78t-46 -49t-60 -25t-51.5 -10.5t-31 -1.5q-108 0 -165.5 48.5t-59.5 122.5z
M203 -60h99v-101q0 -78 -99 -99v55q21 2 35.5 14.5t14.5 29.5v11h-50v90z" />
    <glyph glyph-name="Tcommaaccent" unicode="&#x21a;" horiz-adv-x="575" 
d="M241 621h-228v79h549v-79h-227v-621h-94v621zM238 -60h99v-101q0 -78 -99 -99v55q21 2 35.5 14.5t14.5 29.5v11h-50v90z" />
    <glyph glyph-name="tcommaaccent" unicode="&#x21b;" horiz-adv-x="320" 
d="M13 508h91v152h88v-152h108v-62h-108v-323v-5q0 -23 1.5 -34t14 -21t37.5 -10q24 0 55 9v-62q-47 -20 -92 -20q-30 0 -51 8.5t-31 19.5t-15.5 31t-6 31.5t-0.5 34.5v341h-91v62zM154 -60h99v-101q0 -78 -99 -99v55q21 2 35.5 14.5t14.5 29.5v11h-50v90z" />
    <glyph glyph-name="Ecedilla" unicode="&#x228;" horiz-adv-x="612" 
d="M179 401h367v-79h-367v-243h416v-79h-510v700h499v-79h-405v-220zM200 -232l17 56q22 -8 62 -8q63 0 63 37t-59 37h-27h-17l15 52h32q133 0 133 -98q0 -33 -28 -58.5t-100 -25.5q-37 0 -91 8z" />
    <glyph glyph-name="ecedilla" unicode="&#x229;" horiz-adv-x="570" 
d="M438 147h84q-12 -67 -64.5 -117t-157.5 -50q-52 0 -93.5 13t-67.5 32.5t-45.5 47.5t-29 52t-14.5 53t-6 44t-1 30q0 29 3 56.5t17 70t38.5 73t73.5 53.5t116 23q58 0 101.5 -18t67.5 -44t39 -65.5t20 -71t7 -70.5q0 -4 0.5 -12.5t0.5 -12.5h-391q0 -75 40.5 -133.5
t120.5 -58.5q60 0 96 29.5t45 75.5zM136 296h298q-1 30 -7.5 56t-20.5 53.5t-43 44t-70 16.5q-46 0 -79 -17t-49 -44.5t-22.5 -54t-6.5 -54.5zM179 -232l17 56q22 -8 62 -8q63 0 63 37t-59 37h-27h-17l15 52h32q133 0 133 -98q0 -33 -28 -58.5t-100 -25.5q-37 0 -91 8z" />
    <glyph glyph-name="schwa" unicode="&#x259;" horiz-adv-x="570" 
d="M136 361h-84q9 46 33.5 80t50.5 50t59 25t49 10.5t30 1.5q51 0 92 -13t67 -32t45 -46.5t28 -51.5t14 -53t6 -44t1 -32q0 -55 -12 -100t-30 -73t-44 -49t-48 -31t-48 -15.5t-39.5 -6.5t-26.5 -1q-242 0 -236 294h391q0 30 -7.5 61t-24.5 62t-49 50t-76 19q-50 0 -91.5 -28
t-49.5 -77zM434 212h-299q1 -46 14.5 -80t30 -50.5t39 -26.5t34.5 -11.5t24 -1.5q149 0 157 170z" />
    <glyph glyph-name="cyrobar" unicode="&#x275;" horiz-adv-x="569" 
d="M35 255q0 122 63 197.5t186 75.5t186.5 -75.5t63.5 -197.5q0 -77 -24.5 -133t-55 -82t-72.5 -41t-61 -17t-37 -2q-123 0 -186 76.5t-63 198.5zM129 288h311q-2 32 -10 60.5t-24.5 56.5t-48 44.5t-73.5 16.5t-72.5 -16.5t-47.5 -44.5t-25 -56.5t-10 -60.5zM440 226h-311
q1 -29 8 -56.5t22.5 -58.5t47.5 -50t77 -19q37 0 65.5 13.5t44.5 33t27 46.5t14.5 48t4.5 43z" />
    <glyph glyph-name="cyrobar" unicode="&#x4e9;" horiz-adv-x="569" 
d="M35 255q0 122 63 197.5t186 75.5t186.5 -75.5t63.5 -197.5q0 -77 -24.5 -133t-55 -82t-72.5 -41t-61 -17t-37 -2q-123 0 -186 76.5t-63 198.5zM129 288h311q-2 32 -10 60.5t-24.5 56.5t-48 44.5t-73.5 16.5t-72.5 -16.5t-47.5 -44.5t-25 -56.5t-10 -60.5zM440 226h-311
q1 -29 8 -56.5t22.5 -58.5t47.5 -50t77 -19q37 0 65.5 13.5t44.5 33t27 46.5t14.5 48t4.5 43z" />
    <glyph glyph-name="prime" unicode="&#x2b9;" horiz-adv-x="260" 
d="M210 700l-108 -192h-52l28 192h132z" />
    <glyph glyph-name="dblprime" unicode="&#x2ba;" horiz-adv-x="448" 
d="M210 700l-108 -192h-52l28 192h132zM398 700l-108 -192h-52l28 192h132z" />
    <glyph glyph-name="afii57929" unicode="&#x2bc;" horiz-adv-x="199" 
d="M50 700h99v-140q0 -53 -30.5 -81t-68.5 -36v55q21 2 35.5 20.5t14.5 41.5v31h-50v109z" />
    <glyph glyph-name="afii64937" unicode="&#x2bd;" horiz-adv-x="311" 
d="M205 700v-109h-50v-31q0 -23 14.5 -41.5t35.5 -20.5v-55q-30 6 -54 23q-45 34 -45 94v140h99z" />
    <glyph glyph-name="circumflex" unicode="&#x2c6;" horiz-adv-x="470" 
d="M50 568l119 132h132l119 -132h-88l-97 99l-97 -99h-88z" />
    <glyph glyph-name="caron" unicode="&#x2c7;" horiz-adv-x="470" 
d="M301 568h-132l-119 132h88l97 -99l97 99h88z" />
    <glyph glyph-name="breve" unicode="&#x2d8;" horiz-adv-x="444" 
d="M50 700h74q3 -33 27 -56t71 -23t71 23t27 56h74q-8 -51 -48.5 -91.5t-123.5 -40.5t-123.5 40.5t-48.5 91.5z" />
    <glyph glyph-name="dotaccent" unicode="&#x2d9;" horiz-adv-x="192" 
d="M50 608v92h92v-92h-92z" />
    <glyph glyph-name="ring" unicode="&#x2da;" horiz-adv-x="284" 
d="M50 660q0 39 26.5 65.5t65.5 26.5t65.5 -26.5t26.5 -65.5t-26.5 -65.5t-65.5 -26.5t-65.5 26.5t-26.5 65.5zM90 660q0 -22 15 -37t37 -15t37 15t15 37t-15 37t-37 15t-37 -15t-15 -37z" />
    <glyph glyph-name="ogonek" unicode="&#x2db;" horiz-adv-x="350" 
d="M117 0h85q-29 -17 -46.5 -46t-17.5 -57q0 -25 11.5 -42t34.5 -17q22 0 33 16.5t11 35.5h74q-3 -46 -34.5 -80t-88.5 -34q-58 0 -94.5 27.5t-36.5 74.5q0 69 69 122z" />
    <glyph glyph-name="tilde" unicode="&#x2dc;" horiz-adv-x="470" 
d="M362 700h58q-8 -40 -34 -71t-77 -31q-32 0 -82 26q-46 24 -67 24q-47 0 -51 -40h-59q7 42 36.5 71t74.5 29q35 0 74 -22q48 -28 74 -28q18 0 33 12t20 30z" />
    <glyph glyph-name="hungarumlaut" unicode="&#x2dd;" horiz-adv-x="429" 
d="M120 700h106l-96 -132h-80zM273 700h106l-96 -132h-80z" />
    <glyph glyph-name="accent" unicode="&#x301;" horiz-adv-x="2" 
d="M-267 700h106l-96 -132h-80z" />
    <glyph glyph-name="accent" unicode="&#xf400;" horiz-adv-x="2" 
d="M-267 700h106l-96 -132h-80z" />
    <glyph glyph-name="uni0313" unicode="&#x313;" horiz-adv-x="311" 
d="M106 700h99v-140q0 -53 -30.5 -81t-68.5 -36v55q21 2 35.5 20.5t14.5 41.5v31h-50v109z" />
    <glyph glyph-name="uni0315" unicode="&#x315;" horiz-adv-x="199" 
d="M50 700h99v-140q0 -53 -30.5 -81t-68.5 -36v55q21 2 35.5 20.5t14.5 41.5v31h-50v109z" />
    <glyph glyph-name="uni0326" unicode="&#x326;" horiz-adv-x="199" 
d="M50 -60h99v-101q0 -78 -99 -99v55q21 2 35.5 14.5t14.5 29.5v11h-50v90z" />
    <glyph glyph-name="iotasubnosp" unicode="&#x345;" horiz-adv-x="2" 
d="M-494 -127v78h88v-46q-1 -29 25 -29q1 0 15 2v-62q-28 -5 -49 -5q-42 0 -60.5 13t-18.5 49z" />
    <glyph glyph-name="numeralgreek" unicode="&#x374;" horiz-adv-x="260" 
d="M78 700h132l-108 -192h-52z" />
    <glyph glyph-name="numeralgreeksub" unicode="&#x375;" horiz-adv-x="260" 
d="M78 100h132l-108 -191h-52z" />
    <glyph glyph-name="iotasub" unicode="&#x37a;" horiz-adv-x="168" 
d="M40 -127v78h88v-46q-1 -29 25 -29q1 0 15 2v-62q-28 -5 -49 -5q-42 0 -60.5 13t-18.5 49z" />
    <glyph glyph-name="tonos" unicode="&#x384;" horiz-adv-x="200" 
d="M30 568l70 146h110l-100 -146h-80z" />
    <glyph glyph-name="dieresistonos" unicode="&#x385;" horiz-adv-x="380" 
d="M114 568l57 146h90l-99 -146h-48zM360 608h-78v92h78v-92zM98 608h-78v92h78v-92z" />
    <glyph glyph-name="Alphatonos" unicode="&#x386;" horiz-adv-x="680" 
d="M30 568l70 146h110l-100 -146h-80zM369 605l-122 -345h244zM517 181h-296l-66 -181h-101l265 700h100l265 -700h-101z" />
    <glyph glyph-name="anoteleia" unicode="&#x387;" horiz-adv-x="250" 
d="M175 213h-99v110h99v-110z" />
    <glyph glyph-name="Epsilontonos" unicode="&#x388;" horiz-adv-x="788" 
d="M30 568l70 146h110l-100 -146h-80zM355 621v-220h367v-79h-367v-243h416v-79h-510v700h499v-79h-405z" />
    <glyph glyph-name="Etatonos" unicode="&#x389;" horiz-adv-x="886" 
d="M30 568l70 146h110l-100 -146h-80zM707 329h-352v-329h-94v700h94v-292h352v292h94v-700h-94v329z" />
    <glyph glyph-name="Iotatonos" unicode="&#x38a;" horiz-adv-x="440" 
d="M30 568l70 146h110l-100 -146h-80zM261 0v700h94v-700h-94z" />
    <glyph glyph-name="Omicrontonos" unicode="&#x38c;" horiz-adv-x="878" 
d="M30 568l70 146h110l-100 -146h-80zM265 350q0 -143 61 -218t173 -74q104 0 169 71t65 221q0 130 -60 211q-59 81 -174 81t-175 -80q-59 -80 -59 -212zM165 350q-1 177 91 274q91 97 243 97q153 0 243 -97q91 -97 91 -274q0 -173 -88 -271q-87 -99 -246 -99
q-161 0 -248 99q-86 100 -86 271z" />
    <glyph glyph-name="Upsilontonos" unicode="&#x38e;" horiz-adv-x="840" 
d="M30 568l70 146h110l-100 -146h-80zM343 700l195 -324l194 324h112l-259 -408v-292h-94v292l-260 408h112z" />
    <glyph glyph-name="Omegatonos" unicode="&#x38f;" horiz-adv-x="880" 
d="M30 568l70 146h100l-90 -146h-80zM432 0h-253v79h174v28q-87 22 -138.5 100t-51.5 192q0 138 86 230t261 92q148 0 237 -84q90 -84 90 -238q0 -116 -51 -193t-139 -99v-28h174v-79h-253v157q83 17 126 79.5t43 162.5q0 116 -66 179q-65 62 -171 64q-107 0 -172 -64
q-65 -63 -65 -179q0 -100 42.5 -162.5t126.5 -79.5v-157z" />
    <glyph glyph-name="iotadieresistonos" unicode="&#x390;" horiz-adv-x="232" 
d="M72 89v419h88v-390q0 -31 9 -43.5t33 -12.5h10v-62l-39 -3q-51 0 -76 20.5t-25 71.5zM40 568l57 146h90l-99 -146h-48zM286 608h-78v92h78v-92zM24 608h-78v92h78v-92z" />
    <glyph glyph-name="Alpha" unicode="&#x391;" horiz-adv-x="622" 
d="M163 181l-66 -181h-101l265 700h100l265 -700h-101l-66 181h-296zM189 260h244l-122 345z" />
    <glyph glyph-name="Beta" unicode="&#x392;" horiz-adv-x="689" 
d="M85 700h307q61 0 104 -15.5t64.5 -43t31 -56.5t9.5 -63q0 -56 -33.5 -99t-83.5 -51v-3q25 -4 48 -14t46.5 -29t38 -53t14.5 -78q0 -195 -250 -195h-296v700zM179 621v-218h189q72 0 104.5 30.5t32.5 78.5q0 18 -5 34.5t-18 34.5t-41.5 29t-69.5 11h-192zM179 324v-245
h195q24 0 42.5 2t42 9t39 20t26.5 36.5t11 56.5q0 121 -161 121h-195z" />
    <glyph glyph-name="Gamma" unicode="&#x393;" horiz-adv-x="544" 
d="M179 621v-621h-94v700h446v-79h-352z" />
    <glyph glyph-name="Delta" unicode="&#x394;" horiz-adv-x="610" 
d="M285 603l-200 -524h400zM-4 0l273 700h72l273 -700h-618z" />
    <glyph glyph-name="Delta" unicode="&#x2206;" horiz-adv-x="610" 
d="M285 603l-200 -524h400zM-4 0l273 700h72l273 -700h-618z" />
    <glyph glyph-name="Epsilon" unicode="&#x395;" horiz-adv-x="612" 
d="M179 401h367v-79h-367v-243h416v-79h-510v700h499v-79h-405v-220z" />
    <glyph glyph-name="Zeta" unicode="&#x396;" horiz-adv-x="593" 
d="M48 700h499v-75l-406 -546h426v-79h-541v86l411 535h-389v79z" />
    <glyph glyph-name="Eta" unicode="&#x397;" horiz-adv-x="710" 
d="M179 329v-329h-94v700h94v-292h352v292h94v-700h-94v329h-352z" />
    <glyph glyph-name="Theta" unicode="&#x398;" horiz-adv-x="758" 
d="M200 321v79h358v-79h-358zM145 350q0 -143 61 -217.5t173 -74.5q104 0 169 71t65 221q0 130 -60 211q-59 81 -174 81t-175 -80q-59 -80 -59 -212zM45 350q0 179 91 274q91 97 243 97q153 0 243 -97q91 -97 91 -274q-2 -173 -88 -271q-87 -99 -246 -99q-161 0 -248 99
q-86 100 -86 271z" />
    <glyph glyph-name="Iota" unicode="&#x399;" horiz-adv-x="264" 
d="M85 700h94v-700h-94v700z" />
    <glyph glyph-name="Kappa" unicode="&#x39a;" horiz-adv-x="627" 
d="M179 381l315 319h115l-333 -324l355 -376h-123l-329 365v-365h-94v700h94v-319z" />
    <glyph glyph-name="Lambda" unicode="&#x39b;" horiz-adv-x="594" 
d="M495 0l-198 603l-198 -603h-102l244 700h112l245 -700h-103z" />
    <glyph glyph-name="Mu" unicode="&#x39c;" horiz-adv-x="890" 
d="M407 0l-228 588h-2l2 -27v-561h-94v700h141l219 -576l219 576h141v-700h-94v561l2 27h-3l-227 -588h-76z" />
    <glyph glyph-name="Nu" unicode="&#x39d;" horiz-adv-x="740" 
d="M179 555v-555h-94v700h104l372 -555v555h94v-700h-103z" />
    <glyph glyph-name="Xi" unicode="&#x39e;" horiz-adv-x="544" 
d="M36 621v79h472v-79h-472zM66 326v79h412v-79h-412zM17 0v79h510v-79h-510z" />
    <glyph glyph-name="Omicron" unicode="&#x39f;" horiz-adv-x="758" 
d="M45 350q0 179 91.5 275t242.5 96q49 0 94.5 -11t90 -38t77 -68t52.5 -106.5t20 -147.5q0 -75 -17 -135.5t-41.5 -98.5t-60 -65.5t-65.5 -41t-65.5 -21t-52 -8.5t-32.5 -1q-17 0 -33.5 1t-52 8.5t-65.5 21t-65.5 41t-60 65.5t-41 98.5t-16.5 135.5zM145 350q0 -39 5 -74.5
t20 -76.5t40 -71t68.5 -50t100.5 -20q15 0 28.5 1t38.5 7.5t45.5 17.5t44 33t39.5 51.5t27 76.5t11 105q0 131 -59 211.5t-175 80.5q-61 0 -106.5 -24t-69 -56.5t-37.5 -76.5t-17.5 -74.5t-3.5 -60.5z" />
    <glyph glyph-name="Pi" unicode="&#x3a0;" horiz-adv-x="710" 
d="M179 621v-621h-94v700h540v-700h-94v621h-352z" />
    <glyph glyph-name="Rho" unicode="&#x3a1;" horiz-adv-x="639" 
d="M85 700h285q237 0 237 -201q0 -220 -246 -220h-182v-279h-94v700zM179 621v-263h172q83 0 121.5 34.5t38.5 104.5q0 65 -39 94.5t-121 29.5h-172z" />
    <glyph glyph-name="Sigma" unicode="&#x3a3;" horiz-adv-x="550" 
d="M517 700v-79h-349l208 -253l-225 -289h382v-79h-500v69l234 299l-218 261v71h468z" />
    <glyph glyph-name="Tau" unicode="&#x3a4;" horiz-adv-x="575" 
d="M241 621h-228v79h549v-79h-227v-621h-94v621z" />
    <glyph glyph-name="Upsilon" unicode="&#x3a5;" horiz-adv-x="453" 
d="M227 376l194 324h112l-259 -408v-292h-94v292l-260 408h112z" />
    <glyph glyph-name="Phi" unicode="&#x3a6;" horiz-adv-x="860" 
d="M477 555v-397h26q215 -2 215 199q0 196 -215 198h-26zM357 158h26v397h-26q-215 0 -215 -198q0 -201 215 -199zM477 0h-94v79h-39q-141 0 -221.5 72.5t-80.5 205.5t80 205t222 72h39v66h94v-66h39q139 0 220 -72q82 -70 82 -205q0 -133 -81 -205.5t-221 -72.5h-39v-79z
" />
    <glyph glyph-name="Chi" unicode="&#x3a7;" horiz-adv-x="570" 
d="M285 425l175 275h117l-232 -342l245 -358h-121l-184 291l-184 -291h-121l245 358l-232 342h117z" />
    <glyph glyph-name="Psi" unicode="&#x3a8;" horiz-adv-x="740" 
d="M417 0h-94v209q-62 0 -117.5 19.5t-86.5 51.5q-35 35 -51 88q-15 54 -15 156v176h94v-177q0 -74 4 -102t16 -52q19 -40 59.5 -61.5t96.5 -19.5v412h94v-412q113 -5 156 81q11 21 15 52q5 35 5 102v177h94v-176q0 -104 -15 -156q-13 -51 -52 -88q-33 -32 -88 -51.5
t-115 -19.5v-209z" />
    <glyph glyph-name="Omega" unicode="&#x3a9;" horiz-adv-x="760" 
d="M59 79h174v28q-85 22 -137.5 100t-52.5 192q0 65 20 122t59.5 102.5t105.5 71.5t152 26t152 -26t105.5 -71.5t59.5 -102.5t20 -122q0 -114 -52.5 -192t-137.5 -100v-28h174v-79h-253v157q29 6 54.5 18.5t53.5 38.5t44.5 73.5t16.5 111.5q0 116 -66 179.5t-171 63.5
t-171 -63.5t-66 -179.5q0 -64 16.5 -111.5t44.5 -73.5t53.5 -38.5t54.5 -18.5v-157h-253v79z" />
    <glyph glyph-name="Omega" unicode="&#x2126;" horiz-adv-x="760" 
d="M59 79h174v28q-85 22 -137.5 100t-52.5 192q0 65 20 122t59.5 102.5t105.5 71.5t152 26t152 -26t105.5 -71.5t59.5 -102.5t20 -122q0 -114 -52.5 -192t-137.5 -100v-28h174v-79h-253v157q29 6 54.5 18.5t53.5 38.5t44.5 73.5t16.5 111.5q0 116 -66 179.5t-171 63.5
t-171 -63.5t-66 -179.5q0 -64 16.5 -111.5t44.5 -73.5t53.5 -38.5t54.5 -18.5v-157h-253v79z" />
    <glyph glyph-name="Iotadieresis" unicode="&#x3aa;" horiz-adv-x="264" 
d="M255 748h-88v92h88v-92zM97 748h-88v92h88v-92zM85 0v700h94v-700h-94z" />
    <glyph glyph-name="Upsilondieresis" unicode="&#x3ab;" horiz-adv-x="605" 
d="M446 748h-88v92h88v-92zM248 748h-88v92h88v-92zM108 700l195 -324l194 324h112l-259 -408v-292h-94v292l-259 408h111z" />
    <glyph glyph-name="alphatonos" unicode="&#x3ac;" horiz-adv-x="620" 
d="M440 222l5 45l-6 49q-9 67 -48 108.5t-98 41.5q-72 0 -114.5 -54t-42.5 -158q0 -103 40.5 -157.5t113.5 -54.5q62 -1 101 47t49 133zM460 426l13 82h88l-39 -239q6 -149 58 -269h-88q-26 57 -31 107h-2q-19 -59 -68 -92.5t-120 -33.5q-106 0 -167 68.5t-61 204.5
q0 120 59 197q60 77 173 77q132 0 183 -102h2zM240 568l70 146h110l-100 -146h-80z" />
    <glyph glyph-name="epsilontonos" unicode="&#x3ad;" horiz-adv-x="516" 
d="M400 156h84q-1 -21 -5.5 -40.5t-19.5 -45.5t-38 -45t-65 -32t-98 -13q-64 0 -109 15t-67 39.5t-31 49.5t-9 52q0 56 32 90t75 41v2q-88 23 -88 111q0 16 3 32.5t15.5 38.5t33 38t59.5 27.5t90 11.5q28 0 55 -4.5t64.5 -18.5t62 -49t27.5 -88h-84q0 36 -27 67t-93 31
q-37 0 -62 -10t-35.5 -26.5t-14 -29.5t-3.5 -26q0 -79 106 -79h65v-62h-75q-115 0 -115 -91q0 -50 36 -75t96 -25q65 0 100 33t35 81zM188 568l70 146h110l-100 -146h-80z" />
    <glyph glyph-name="etatonos" unicode="&#x3ae;" horiz-adv-x="566" 
d="M160 0h-88v390q0 31 -9 43.5t-33 12.5h-10v62q16 4 39 4q95 0 101 -67q59 83 174 83q166 0 166 -190v-522h-88v517q0 133 -106 133q-71 -1 -108.5 -49.5t-37.5 -139.5v-277zM213 568l70 146h110l-100 -146h-80z" />
    <glyph glyph-name="iotatonos" unicode="&#x3af;" horiz-adv-x="232" 
d="M72 89v419h88v-390q0 -31 9 -43.5t33 -12.5h10v-62l-39 -3q-51 0 -76 20.5t-25 71.5zM46 568l70 146h110l-100 -146h-80z" />
    <glyph glyph-name="upsilondieresistonos" unicode="&#x3b0;" horiz-adv-x="546" 
d="M66 508h88v-284q0 -97 25.5 -139.5t84.5 -42.5q67 -1 98 52.5t31 172.5q-1 159 -44 241l81 12q56 -86 56 -253q0 -285 -220 -286q-102 0 -151 58t-49 184v285zM197 568l57 146h90l-99 -146h-48zM443 608h-78v92h78v-92zM181 608h-78v92h78v-92z" />
    <glyph glyph-name="alpha" unicode="&#x3b1;" horiz-adv-x="620" 
d="M440 222l5 45l-6 49q-9 67 -48 108.5t-98 41.5q-72 0 -114.5 -54t-42.5 -158q0 -103 40.5 -157.5t113.5 -54.5q62 -1 101 47t49 133zM460 426l13 82h88l-39 -239q6 -149 58 -269h-88q-26 57 -31 107h-2q-19 -59 -68 -92.5t-120 -33.5q-106 0 -167 68.5t-61 204.5
q0 120 59 197q60 77 173 77q132 0 183 -102h2z" />
    <glyph glyph-name="beta" unicode="&#x3b2;" horiz-adv-x="560" 
d="M160 468v-348q23 -38 60 -58t77 -20q60 0 98 45.5t38 120.5q-1 154 -174 155h-35v62h41q64 -1 97 29.5t33 83.5q0 58 -30.5 89t-85.5 31q-64 0 -92 -42.5t-27 -147.5zM160 -184h-88v639q0 71 4 96q4 28 14 54q43 115 194 115q91 0 145 -46.5t54 -129.5q-1 -53 -29 -92
t-74 -52v-3q68 -13 106 -64.5t38 -126.5q0 -105 -60 -165t-163 -60q-94 2 -141 54v-219z" />
    <glyph glyph-name="gamma" unicode="&#x3b3;" horiz-adv-x="520" 
d="M321 -184h-88v234l-151 362q-10 21 -20 29.5t-29 8.5q-16 0 -27 -4v62q4 0 24.5 2t29.5 2q40 0 64.5 -17.5t42.5 -59.5l114 -288l145 361h94l-199 -458v-234z" />
    <glyph glyph-name="delta" unicode="&#x3b4;" horiz-adv-x="566" 
d="M136 236q0 -97 38.5 -145.5t108.5 -48.5q69 -1 108 48t39 146q0 96 -39.5 146t-107.5 50q-70 -1 -108.5 -50.5t-38.5 -145.5zM468 570h-88q-2 88 -98 88q-46 0 -72.5 -21t-25.5 -58q0 -35 19 -53q19 -17 129 -37q90 -15 140.5 -81t50.5 -172q-1 -121 -65.5 -188
t-174.5 -67q-111 0 -175.5 67t-64.5 188q0 92 38.5 155t103.5 80v2q-94 20 -94 108q-1 67 49.5 103t143.5 36q89 0 137 -38.5t47 -111.5z" />
    <glyph glyph-name="epsilon" unicode="&#x3b5;" horiz-adv-x="516" 
d="M400 156h84q-1 -21 -5.5 -40.5t-19.5 -45.5t-38 -45t-65 -32t-98 -13q-64 0 -109 15t-67 39.5t-31 49.5t-9 52q0 56 32 90t75 41v2q-88 23 -88 111q0 16 3 32.5t15.5 38.5t33 38t59.5 27.5t90 11.5q28 0 55 -4.5t64.5 -18.5t62 -49t27.5 -88h-84q0 36 -27 67t-93 31
q-37 0 -62 -10t-35.5 -26.5t-14 -29.5t-3.5 -26q0 -79 106 -79h65v-62h-75q-115 0 -115 -91q0 -50 36 -75t96 -25q65 0 100 33t35 81z" />
    <glyph glyph-name="zeta" unicode="&#x3b6;" horiz-adv-x="440" 
d="M92 638v62h349v-62q-154 -13 -239 -142q-65 -100 -65 -245q0 -97 36.5 -143t121.5 -46h20q70 -1 109.5 -30t39.5 -87q0 -129 -172 -129h-35v62h29q48 1 69 14.5t21 44.5q0 63 -80 63h-20q-232 0 -232 250q-1 123 54 229q57 108 161 157v2h-167z" />
    <glyph glyph-name="eta" unicode="&#x3b7;" horiz-adv-x="566" 
d="M160 0h-88v390q0 31 -9 43.5t-33 12.5h-10v62q16 4 39 4q95 0 101 -67q59 83 174 83q166 0 166 -190v-522h-88v517q0 133 -106 133q-71 -1 -108.5 -49.5t-37.5 -139.5v-277z" />
    <glyph glyph-name="theta" unicode="&#x3b8;" horiz-adv-x="620" 
d="M467 345h-314q-5 -136 37 -219q42 -84 120 -84q77 0 119 84q42 86 38 219zM155 407h310q-3 109 -43 179q-41 71 -112 72q-72 0 -113 -72q-40 -70 -42 -179zM60 350q0 171 66 270q67 100 184 100q116 0 182 -100q66 -98 68 -270q0 -173 -67 -271q-68 -98 -183 -98
q-116 0 -184 98q-66 99 -66 271z" />
    <glyph glyph-name="iota" unicode="&#x3b9;" horiz-adv-x="232" 
d="M72 89v419h88v-390q0 -31 9 -43.5t33 -12.5h10v-62l-39 -3q-51 0 -76 20.5t-25 71.5z" />
    <glyph glyph-name="kappa" unicode="&#x3ba;" horiz-adv-x="489" 
d="M160 286l217 222h103l-238 -236l251 -272h-105l-228 254v-254h-88v508h88v-222z" />
    <glyph glyph-name="lambda" unicode="&#x3bb;" horiz-adv-x="530" 
d="M263 397l-168 -397h-95l224 498l-35 106q-12 38 -45 38q-16 0 -27 -4v62q4 0 24.5 2t29.5 2q39 -1 60.5 -18t36.5 -59l180 -518q11 -33 20.5 -42.5t28.5 -8.5q19 0 27 4v-62q-10 0 -27.5 -1.5t-22.5 -1.5q-45 0 -69 18.5t-42 75.5z" />
    <glyph glyph-name="nu" unicode="&#x3bd;" horiz-adv-x="460" 
d="M100 508l142 -420l116 330q10 31 12 53q0 13 -8 37l84 12q8 -27 8 -47q0 -29 -11 -59l-153 -414h-104l-186 508h100z" />
    <glyph glyph-name="xi" unicode="&#x3be;" horiz-adv-x="460" 
d="M48 700h370v-62h-96q-85 0 -124 -31t-39 -97q0 -65 38.5 -93.5t133.5 -27.5h72v-62h-72q-118 -1 -157 -39t-39 -109q0 -117 129 -117h47q70 -1 109.5 -30t39.5 -87q0 -129 -172 -129h-35v62h29q50 1 70 15.5t20 45.5q0 32 -19 46.5t-61 14.5h-33q-217 0 -217 181
q0 72 36 118t99 61v2q-49 11 -78 50t-28 94q-2 94 71 130v2h-94v62z" />
    <glyph glyph-name="omicron" unicode="&#x3bf;" horiz-adv-x="586" 
d="M43 254q0 53 13.5 100t41.5 87t78 63.5t117 23.5t117 -23.5t78 -63.5t41.5 -87t13.5 -100t-13.5 -100t-41.5 -87t-78 -63.5t-117 -23.5t-117 23.5t-78 63.5t-41.5 87t-13.5 100zM136 255q0 -58 13 -100.5t30.5 -63t42 -33t39.5 -14.5t32 -2t32 2t39.5 14.5t42 33t30.5 63
t13 100.5t-13 100.5t-30.5 63t-42 33t-39.5 14.5t-32 2t-32 -2t-39.5 -14.5t-42 -33t-30.5 -63t-13 -100.5z" />
    <glyph glyph-name="pi" unicode="&#x3c0;" horiz-adv-x="598" 
d="M112 0v446h-13q-36 0 -67 -20v62q36 20 85 20h449v-62h-64v-324q0 -11 0.5 -18t2.5 -17t6.5 -15.5t13 -8.5t20.5 -2l10 1v-62q-17 -4 -43 -4q-35 0 -56 7.5t-29.5 23t-10.5 28t-2 34.5v357h-214v-446h-88z" />
    <glyph glyph-name="rho" unicode="&#x3c1;" horiz-adv-x="590" 
d="M148 252q0 -95 43 -153q44 -57 113 -57q72 0 111 55.5t39 156.5q-1 100 -41 156t-114 56q-72 0 -111.5 -56.5t-39.5 -157.5zM154 -184h-88v413q0 154 61 226.5t188 72.5q116 0 174 -76t58 -198q0 -126 -60.5 -199.5t-166.5 -73.5q-56 0 -100.5 24t-65.5 68v-257z" />
    <glyph glyph-name="sigma1" unicode="&#x3c2;" horiz-adv-x="540" 
d="M508 349h-84q-19 117 -137 117q-75 0 -113 -55.5t-38 -152.5q0 -92 42 -144t115 -52h66q70 -1 109.5 -30t39.5 -87q-1 -129 -172 -129h-35v62h29q48 1 68.5 14.5t21.5 44.5q-1 63 -80 63h-49q-123 0 -185.5 68t-62.5 190q0 126 62 197.5t180 72.5q92 -1 152 -47.5
t71 -131.5z" />
    <glyph glyph-name="sigma" unicode="&#x3c3;" horiz-adv-x="592" 
d="M137 255q-1 -106 40.5 -159.5t116.5 -53.5q74 0 115.5 53.5t41.5 159.5q0 105 -41.5 158t-115.5 53q-75 0 -116 -53t-41 -158zM403 508h187v-62h-108q62 -79 62 -196q0 -118 -64 -194q-64 -75 -186 -75q-117 0 -183.5 72.5t-66.5 200.5q-2 128 66 201q67 73 184 73
q55 0 109 -20z" />
    <glyph glyph-name="tau" unicode="&#x3c4;" horiz-adv-x="432" 
d="M179 89v357h-72q-60 0 -104 -22v65q43 19 104 19h322v-62h-162v-328q0 -31 9 -43.5t33 -12.5h10v-62l-15 -2q-15 -1 -24 -1q-51 0 -76 20.5t-25 71.5z" />
    <glyph glyph-name="upsilon" unicode="&#x3c5;" horiz-adv-x="546" 
d="M66 508h88v-284q0 -97 25.5 -139.5t84.5 -42.5q67 -1 98 52.5t31 172.5q-1 159 -44 241l81 12q56 -86 56 -253q0 -285 -220 -286q-102 0 -151 58t-49 184v285z" />
    <glyph glyph-name="phi" unicode="&#x3c6;" horiz-adv-x="774" 
d="M431 446v-384q102 0 154 51.5t53 144.5q0 92 -53 141t-154 47zM431 -184h-88v184q-300 6 -300 256q0 110 66 180q67 72 176 72v-62q-69 -7 -109 -57.5t-40 -133.5q0 -94 54.5 -145t152.5 -48v446h88q150 0 225 -66t75 -185q0 -126 -78 -190t-222 -67v-184z" />
    <glyph glyph-name="chi" unicode="&#x3c7;" horiz-adv-x="450" 
d="M6 446v62q7 0 24.5 2t24.5 2q57 0 82 -48l104 -209l122 253h88l-171 -333l130 -261q10 -22 21 -31t28 -9q15 0 27 4v-62q-9 0 -27.5 -2t-25.5 -2q-62 0 -85 50l-121 247l-147 -293h-93l199 376l-114 234q-14 24 -39 24q-16 0 -27 -4z" />
    <glyph glyph-name="psi" unicode="&#x3c8;" horiz-adv-x="736" 
d="M407 -184h-88v184q-142 0 -205 88q-25 31 -37 78q-11 49 -11 161v181h88v-173q0 -161 40 -214q21 -29 54 -44.5t71 -14.5v638h88v-638q45 -2 84 20q92 48 92 201q0 65 -14 122q-14 55 -40 103l91 12q21 -39 39 -98q17 -68 17 -141q0 -198 -140 -258q-50 -23 -129 -23
v-184z" />
    <glyph glyph-name="omega" unicode="&#x3c9;" horiz-adv-x="740" 
d="M371 82h-2q-8 -42 -34 -67q-39 -34 -98 -34q-83 0 -130 52q-64 69 -64 203q0 105 41 174q64 106 193 108v-62q-76 -6 -114 -81q-27 -56 -27 -139q0 -114 35 -158q27 -36 68 -36q38 0 63 28q12 17 18 43q6 27 6 97v68h88v-68q-1 -68 5 -97q6 -27 19 -43q21 -28 63 -28
q38 0 68 36q35 48 35 158q0 80 -27 139q-40 75 -114 81v62q128 -2 193 -108q41 -72 41 -174q-1 -134 -64 -203q-48 -52 -130 -52q-61 0 -98 34q-28 23 -34 67z" />
    <glyph glyph-name="iotadieresis" unicode="&#x3ca;" horiz-adv-x="232" 
d="M72 89v419h88v-390q0 -31 9 -43.5t33 -12.5h10v-62l-39 -3q-51 0 -76 20.5t-25 71.5zM-30 608v92h88v-92h-88zM168 608v92h88v-92h-88z" />
    <glyph glyph-name="upsilondieresis" unicode="&#x3cb;" horiz-adv-x="546" 
d="M66 508h88v-284q0 -97 25.5 -139.5t84.5 -42.5q67 -1 98 52.5t31 172.5q-1 159 -44 241l81 12q56 -86 56 -253q0 -285 -220 -286q-102 0 -151 58t-49 184v285zM127 608v92h88v-92h-88zM325 608v92h88v-92h-88z" />
    <glyph glyph-name="omicrontonos" unicode="&#x3cc;" horiz-adv-x="586" 
d="M43 254q0 53 13.5 100t41.5 87t78 63.5t117 23.5t117 -23.5t78 -63.5t41.5 -87t13.5 -100t-13.5 -100t-41.5 -87t-78 -63.5t-117 -23.5t-117 23.5t-78 63.5t-41.5 87t-13.5 100zM136 255q0 -58 13 -100.5t30.5 -63t42 -33t39.5 -14.5t32 -2t32 2t39.5 14.5t42 33t30.5 63
t13 100.5t-13 100.5t-30.5 63t-42 33t-39.5 14.5t-32 2t-32 -2t-39.5 -14.5t-42 -33t-30.5 -63t-13 -100.5zM223 568l70 146h110l-100 -146h-80z" />
    <glyph glyph-name="upsilontonos" unicode="&#x3cd;" horiz-adv-x="546" 
d="M66 508h88v-284q0 -97 25.5 -139.5t84.5 -42.5q67 -1 98 52.5t31 172.5q-1 159 -44 241l81 12q56 -86 56 -253q0 -285 -220 -286q-102 0 -151 58t-49 184v285zM203 571l70 146h110l-100 -146h-80z" />
    <glyph glyph-name="omegatonos" unicode="&#x3ce;" horiz-adv-x="740" 
d="M371 82h-2q-8 -42 -34 -67q-39 -34 -98 -34q-83 0 -130 52q-64 69 -64 203q0 105 41 174q64 106 193 108v-62q-76 -6 -114 -81q-27 -56 -27 -139q0 -114 35 -158q27 -36 68 -36q38 0 63 28q12 17 18 43q6 27 6 97v68h88v-68q-1 -68 5 -97q6 -27 19 -43q21 -28 63 -28
q38 0 68 36q35 48 35 158q0 80 -27 139q-40 75 -114 81v62q128 -2 193 -108q41 -72 41 -174q-1 -134 -64 -203q-48 -52 -130 -52q-61 0 -98 34q-28 23 -34 67zM300 568l70 146h110l-100 -146h-80z" />
    <glyph glyph-name="beta1" unicode="&#x3d0;" horiz-adv-x="588" 
d="M156 372l173 71q90 36 92 119q0 45 -25 70.5t-66 25.5q-80 0 -125.5 -75.5t-48.5 -210.5zM211 335l-58 -25q-6 -116 35 -193q40 -75 126 -75q67 0 106 44t39 122q0 70 -40 110.5t-112 40.5q-40 0 -96 -24zM386 410v-3q76 -10 121 -64t45 -137q0 -105 -63.5 -165
t-180.5 -60q-118 0 -183 84t-65 253q0 178 67 290t203 112q84 0 131.5 -45.5t47.5 -116.5q0 -52 -32 -91t-91 -57z" />
    <glyph glyph-name="theta1" unicode="&#x3d1;" horiz-adv-x="620" 
d="M334 508h109q-5 69 -43 109.5t-96 40.5q-37 0 -56.5 -20t-19.5 -52q-1 -42 23.5 -60t82.5 -18zM41 386h-21v62h52q55 0 78.5 -25.5t23.5 -80.5v-71q0 -131 33 -181t101 -48q76 0 110 68t34 223q0 58 -4 113h-130q-178 0 -178 134q0 65 42.5 102.5t122.5 37.5
q100 0 160 -54.5t68 -157.5h67v-62h-60q5 -58 5 -108q0 -180 -56.5 -268.5t-183.5 -88.5q-226 1 -224 261v67q-1 46 -7.5 61.5t-32.5 15.5z" />
    <glyph glyph-name="Upsilon1" unicode="&#x3d2;" horiz-adv-x="640" 
d="M320 410q34 118 108 193q80 83 199 97v-79q-97 -23 -161 -109q-42 -54 -71 -136q-28 -80 -28 -152v-224h-94v224q-2 74 -29 152q-29 81 -70 136q-66 86 -161 109v79q116 -14 199 -97q72 -75 108 -193z" />
    <glyph glyph-name="Upsilon1tonos" unicode="&#x3d3;" horiz-adv-x="860" 
d="M540 410q34 118 108 193q80 83 199 97v-79q-97 -23 -161 -109q-42 -54 -71 -136q-28 -80 -28 -152v-224h-94v224q-2 74 -29 152q-29 81 -70 136q-66 86 -161 109v79q116 -14 199 -97q72 -75 108 -193zM30 568l70 146h110l-100 -146h-80z" />
    <glyph glyph-name="Upsilon1dieresis" unicode="&#x3d4;" horiz-adv-x="640" 
d="M320 410q34 118 108 193q80 83 199 97v-79q-97 -23 -161 -109q-42 -54 -71 -136q-28 -80 -28 -152v-224h-94v224q-2 74 -29 152q-29 81 -70 136q-66 86 -161 109v79q116 -14 199 -97q72 -75 108 -193zM176 730v92h88v-92h-88zM374 730v92h88v-92h-88z" />
    <glyph glyph-name="phi1" unicode="&#x3d5;" horiz-adv-x="794" 
d="M353 -185v172q-87 2 -149.5 24.5t-96 61.5t-49 84t-15.5 100q0 34 6 66t25.5 70.5t52 66t91 45t135.5 15.5v180h88v-180q39 1 77.5 -4t82 -22t75.5 -44.5t53.5 -77.5t21.5 -115q0 -122 -74 -194t-236 -76v-172h-88zM353 49v409q-37 2 -71.5 -5.5t-69 -27.5t-55.5 -63
t-21 -104q0 -52 15.5 -91.5t38.5 -61.5t54 -35t56.5 -17t52.5 -4zM441 458v-409q64 0 109.5 20t67.5 53t31 66t9 70q0 24 -4 48.5t-18.5 54.5t-37 51.5t-63 35t-94.5 10.5z" />
    <glyph glyph-name="pi1" unicode="&#x3d6;" horiz-adv-x="700" 
d="M423 446h-146q-66 -5 -103.5 -59t-37.5 -151q0 -194 93 -194q37 -1 57 29q20 32 20 139v68h88v-68q0 -109 19 -138q19 -30 58 -30q93 0 93 194q0 97 -38 151t-103 59zM20 426v62q37 20 85 20h575v-62h-138v-2q114 -56 115 -228q0 -108 -49 -171.5t-135 -63.5
q-53 0 -85 26.5t-37 74.5h-2q-6 -48 -37.5 -74.5t-84.5 -26.5q-86 0 -135 63.5t-49 171.5q0 173 115 228v2h-53q-43 0 -85 -20z" />
    <glyph glyph-name="Stigma" unicode="&#x3da;" horiz-adv-x="703" 
d="M665 484h-94q-8 75 -59 116.5t-137 41.5q-110 0 -170 -76t-60 -212q0 -127 64 -201q65 -74 173 -74h115q89 -1 128.5 -33t39.5 -101q0 -128 -172 -129h-65v79h59q84 0 84 51q0 54 -74 54h-119q-157 0 -245 90.5t-88 255.5q0 177 86.5 276t243.5 99q133 0 205.5 -61.5
t84.5 -175.5z" />
    <glyph glyph-name="Digamma" unicode="&#x3dc;" horiz-adv-x="572" 
d="M183 621v-228h329v-79h-329v-360q0 -77 -30.5 -109t-95.5 -33q-9 0 -30.5 2t-26.5 2v79h14q42 1 58 19.5t17 65.5v720h470v-79h-376z" />
    <glyph glyph-name="Koppa" unicode="&#x3de;" horiz-adv-x="500" 
d="M365 229h-345l120 471h94l-99 -392h345l-126 -492h-94z" />
    <glyph glyph-name="Sampi" unicode="&#x3e0;" horiz-adv-x="900" 
d="M178 141l-56 56l313 312q-181 113 -415 112v79q396 1 633 -254q237 -256 227 -630h-94q3 140 -36 273q-38 132 -113 232l-318 -321l-55 55l323 324q-42 48 -88 84z" />
    <glyph glyph-name="kappa1" unicode="&#x3f0;" 
d="M186 178h2l280 330h105l-55 -64q-24 -95 -24 -234q0 -100 17 -126q18 -25 55 -24q9 0 14 1v-61h-13q-13 -1 -35 -1q-82 0 -104 46q-22 45 -22 153q0 100 16 139h-2l-286 -337h-105l62 73q22 96 22 217q0 105 -20 131q-20 27 -58 27q-3 0 -8 -1t-7 -1v62q10 0 50 2
q80 0 105 -49q26 -50 26 -147q0 -74 -15 -136z" />
    <glyph glyph-name="rho1" unicode="&#x3f1;" horiz-adv-x="580" 
d="M138 252q0 -95 43 -153q44 -57 113 -57q72 0 111 55.5t39 156.5q0 99 -40.5 155.5t-114.5 56.5q-72 0 -111.5 -56.5t-39.5 -157.5zM537 254q0 -118 -57 -196q-57 -77 -171 -77q-72 0 -123.5 35t-73.5 101h-2q1 -87 35.5 -137.5t106.5 -71.5q236 -66 246 -84
q10 -20 12 -48h-75q0 2 -1.5 4.5t-2.5 3.5q-1 4 -187 47q-106 24 -153 105q-46 79 -46 249q0 166 63.5 254.5t190.5 88.5q115 0 176.5 -72.5t61.5 -201.5z" />
    <glyph glyph-name="sigmalunate" unicode="&#x3f2;" horiz-adv-x="440" 
d="M136 258q0 -101 40 -158.5t117 -57.5q66 -1 114 26v-68q-53 -19 -116 -19q-123 1 -185.5 73.5t-62.5 203.5q0 128 62 199t180 71q67 0 122 -20v-68q-56 24 -120 26q-76 0 -113.5 -54.5t-37.5 -153.5z" />
    <glyph glyph-name="yot" unicode="&#x3f3;" horiz-adv-x="231" 
d="M73 508h88v-555q0 -72 -26.5 -107t-93.5 -35q-9 0 -57 4v62q19 3 30.5 5t22.5 6.5t16 5t10 8t6.5 9t2.5 14t1 16.5v23v544zM73 608v92h88v-92h-88z" />
    <glyph glyph-name="afii10023" unicode="&#x401;" horiz-adv-x="613" 
d="M179 401h367v-79h-367v-243h417v-79h-511v700h500v-79h-406v-220zM187 772v79h94v-79h-94zM403 772v79h94v-79h-94z" />
    <glyph glyph-name="afii10051" unicode="&#x402;" horiz-adv-x="756" 
d="M13 621v79h527v-79h-227v-225q82 7 153 7q245 0 245 -204q0 -99 -56 -155.5t-155 -56.5q-42 0 -79 13v79q43 -13 71 -13q16 0 30.5 2t32.5 10t31 21t22 37t9 56q0 62 -36 97t-133 35q-67 0 -135 -7v-317h-94v621h-206z" />
    <glyph glyph-name="afii10052" unicode="&#x403;" horiz-adv-x="544" 
d="M179 621v-621h-94v700h446v-79h-352zM279 900h112l-102 -140h-84z" />
    <glyph glyph-name="afii10053" unicode="&#x404;" horiz-adv-x="724" 
d="M490 400v-79h-345q2 -71 21 -122.5t43 -77.5t59 -41.5t59 -18.5t52 -3q171 0 200 185h100q-6 -45 -21.5 -86t-47.5 -84t-91.5 -68.5t-139.5 -25.5q-84 0 -147 26.5t-97.5 65.5t-56 93.5t-27.5 99.5t-6 94t8 95.5t30.5 96.5t57.5 86.5t95 60.5t137 24q75 0 132.5 -21.5
t89 -57t47.5 -71.5t21 -75h-100q-5 26 -16 49t-31.5 46t-58 37t-86.5 14q-110 0 -167 -69t-59 -173h345z" />
    <glyph glyph-name="afii10054" unicode="&#x405;" horiz-adv-x="656" 
d="M45 222h94q-2 -71 52 -117.5t148 -46.5q87 0 129.5 37.5t42.5 92.5q0 31 -12 53.5t-35 35.5t-43.5 20.5t-50.5 13.5q-15 3 -47 10l-46.5 10t-42 10t-40.5 12.5l-34 15t-31.5 18.5t-24 23t-20 30t-11 36t-4.5 44q0 97 72 149t193 52q122 0 187 -57.5t72 -145.5h-94
q-14 124 -168 124q-73 0 -117.5 -31.5t-44.5 -85.5q0 -21 5.5 -37t20.5 -27.5t26 -19t38 -14.5t39 -9.5l46 -9.5q33 -6 48 -9.5l45.5 -11t46.5 -15t39.5 -19.5t36.5 -27t26.5 -34.5t19 -45t5.5 -56.5q0 -43 -13 -77.5t-31.5 -56t-47 -37t-52 -23t-54 -12t-45.5 -5t-34 -0.5
q-277 0 -289 243z" />
    <glyph glyph-name="afii10055" unicode="&#x406;" horiz-adv-x="264" 
d="M85 700h94v-700h-94v700z" />
    <glyph glyph-name="afii10056" unicode="&#x407;" horiz-adv-x="304" 
d="M105 700h94v-700h-94v700zM27 772v79h94v-79h-94zM183 772v79h94v-79h-94z" />
    <glyph glyph-name="afii10057" unicode="&#x408;" horiz-adv-x="520" 
d="M23 232h94q0 -88 27 -131t94 -43q69 0 92.5 44t23.5 131v467h94v-458q0 -139 -48.5 -201t-162.5 -62q-214 0 -214 217v36z" />
    <glyph glyph-name="afii10058" unicode="&#x409;" horiz-adv-x="1078" 
d="M14 0v82q8 -2 12 -2h13q140 0 140 319v301h438v-285h201q19 0 39.5 -2t57 -14t63.5 -32.5t47.5 -62.5t20.5 -99q0 -22 -3.5 -43.5t-17.5 -52.5t-37 -53.5t-67 -39t-103 -16.5h-295v621h-251v-242q0 -85 -10.5 -151t-35.5 -119.5t-69.5 -82.5t-108.5 -29q-18 0 -34 3z
M617 336v-257h189q16 0 33 3.5t45 14t46 39.5t18 72q0 128 -154 128h-177z" />
    <glyph glyph-name="afii10059" unicode="&#x40a;" horiz-adv-x="1083" 
d="M179 336v-336h-94v700h94v-285h352v285h94v-285h201q17 0 36.5 -2t56 -14t63.5 -32.5t48 -62.5t21 -99q0 -37 -10 -70.5t-33.5 -65t-70 -50.5t-111.5 -19h-295v336h-352zM625 336v-257h190q15 0 32 3.5t44.5 14t45.5 39.5t18 72q0 128 -152 128h-178z" />
    <glyph glyph-name="afii10060" unicode="&#x40b;" horiz-adv-x="800" 
d="M710 0h-94v205q0 76 -36.5 97.5t-131.5 21.5q-35 0 -135 -7v-317h-94v621h-206v79h527v-79h-227v-225q86 7 153 7q100 0 153 -19t72 -57t19 -107v-220z" />
    <glyph glyph-name="afii10061" unicode="&#x40c;" horiz-adv-x="627" 
d="M179 381l315 319h115l-333 -324l355 -376h-123l-329 365v-365h-94v700h94v-319zM320 900h112l-102 -140h-84z" />
    <glyph glyph-name="afii10062" unicode="&#x40e;" horiz-adv-x="588" 
d="M325 279l168 421h99l-237 -575q-20 -47 -42.5 -76.5t-48 -41t-42.5 -14.5t-45 -3q-42 0 -78 10v82q32 -11 66 -11q18 0 30.5 3t28 12.5t28.5 31.5t23 56l-266 526h115zM111 870h78q1 -38 30 -61t75 -23q55 0 78.5 26.5t26.5 57.5h78q-5 -25 -15 -46.5t-29.5 -44t-55 -36
t-83.5 -13.5t-83.5 13.5t-55 36t-29.5 44t-15 46.5z" />
    <glyph glyph-name="afii10145" unicode="&#x40f;" horiz-adv-x="724" 
d="M540 79v621h94v-700h-227v-189h-90v189h-227v700h94v-621h356z" />
    <glyph glyph-name="afii10017" unicode="&#x410;" horiz-adv-x="622" 
d="M163 181l-66 -181h-101l265 700h100l265 -700h-101l-66 181h-296zM189 260h244l-122 345z" />
    <glyph glyph-name="afii10018" unicode="&#x411;" horiz-adv-x="668" 
d="M179 621v-210h215q234 0 234 -208q0 -38 -10.5 -71.5t-35 -64.5t-72.5 -49t-115 -18h-310v700h497v-79h-403zM179 332v-253h196q157 0 157 123q0 130 -157 130h-196z" />
    <glyph glyph-name="afii10019" unicode="&#x412;" horiz-adv-x="689" 
d="M85 700h307q61 0 104 -15.5t64.5 -43t31 -56.5t9.5 -63q0 -56 -33.5 -99t-83.5 -51v-3q25 -4 48 -14t46.5 -29t38 -53t14.5 -78q0 -195 -250 -195h-296v700zM179 621v-218h189q72 0 104.5 30.5t32.5 78.5q0 18 -5 34.5t-18 34.5t-41.5 29t-69.5 11h-192zM179 324v-245
h195q24 0 42.5 2t42 9t39 20t26.5 36.5t11 56.5q0 121 -161 121h-195z" />
    <glyph glyph-name="afii10020" unicode="&#x413;" horiz-adv-x="544" 
d="M179 621v-621h-94v700h446v-79h-352z" />
    <glyph glyph-name="afii10021" unicode="&#x414;" horiz-adv-x="738" 
d="M624 79h101l-9 -237h-82v158h-544v-158h-82l-8 237h63q133 166 133 477v144h428v-621zM530 621h-240v-87q0 -146 -25 -253t-90 -202h355v542z" />
    <glyph glyph-name="afii10022" unicode="&#x415;" horiz-adv-x="612" 
d="M179 401h367v-79h-367v-243h416v-79h-510v700h499v-79h-405v-220z" />
    <glyph glyph-name="afii10024" unicode="&#x416;" horiz-adv-x="908" 
d="M407 0v349l-297 -349h-114l323 375l-309 325h112l285 -308v308h94v-308l285 308h112l-309 -325l323 -375h-114l-297 349v-349h-94z" />
    <glyph glyph-name="afii10025" unicode="&#x417;" horiz-adv-x="667" 
d="M45 215h94q12 -157 199 -157q94 0 134.5 41.5t40.5 97.5q0 132 -160 132h-92v79h83q19 0 36.5 2.5t44.5 12t43.5 34t16.5 62.5q0 42 -19.5 69.5t-51.5 37.5t-51 13t-39 3q-15 0 -29 -1t-42 -8.5t-48 -20.5t-36.5 -40.5t-17.5 -65.5h-94q13 215 274 215q117 0 183.5 -49.5
t66.5 -146.5q0 -58 -32.5 -100t-86.5 -52v-2q147 -34 147 -183q0 -38 -12 -72.5t-40 -66.5t-82.5 -51t-130.5 -19q-288 0 -299 236z" />
    <glyph glyph-name="afii10026" unicode="&#x418;" horiz-adv-x="731" 
d="M179 137l373 563h94v-700h-94v567l-373 -567h-94v700h94v-563z" />
    <glyph glyph-name="afii10027" unicode="&#x419;" horiz-adv-x="731" 
d="M179 137l373 563h94v-700h-94v567l-373 -567h-94v700h94v-563zM194 858h75q3 -33 26.5 -56t70.5 -23t70.5 23t26.5 56h75q-28 -132 -172 -132t-172 132z" />
    <glyph glyph-name="afii10028" unicode="&#x41a;" horiz-adv-x="627" 
d="M179 381l315 319h115l-333 -324l355 -376h-123l-329 365v-365h-94v700h94v-319z" />
    <glyph glyph-name="afii10029" unicode="&#x41b;" horiz-adv-x="702" 
d="M13 0v82q36 -6 64.5 6t52 46.5t36 101.5t12.5 163v301h439v-700h-94v621h-251v-242q0 -117 -20.5 -198t-57 -122t-81.5 -54.5t-100 -4.5z" />
    <glyph glyph-name="afii10030" unicode="&#x41c;" horiz-adv-x="890" 
d="M407 0l-228 588h-2l2 -27v-561h-94v700h141l219 -576l219 576h141v-700h-94v561l2 27h-3l-227 -588h-76z" />
    <glyph glyph-name="afii10031" unicode="&#x41d;" horiz-adv-x="710" 
d="M179 329v-329h-94v700h94v-292h352v292h94v-700h-94v329h-352z" />
    <glyph glyph-name="afii10032" unicode="&#x41e;" horiz-adv-x="758" 
d="M45 350q0 179 91.5 275t242.5 96q49 0 94.5 -11t90 -38t77 -68t52.5 -106.5t20 -147.5q0 -75 -17 -135.5t-41.5 -98.5t-60 -65.5t-65.5 -41t-65.5 -21t-52 -8.5t-32.5 -1q-17 0 -33.5 1t-52 8.5t-65.5 21t-65.5 41t-60 65.5t-41 98.5t-16.5 135.5zM145 350q0 -39 5 -74.5
t20 -76.5t40 -71t68.5 -50t100.5 -20q15 0 28.5 1t38.5 7.5t45.5 17.5t44 33t39.5 51.5t27 76.5t11 105q0 131 -59 211.5t-175 80.5q-61 0 -106.5 -24t-69 -56.5t-37.5 -76.5t-17.5 -74.5t-3.5 -60.5z" />
    <glyph glyph-name="afii10033" unicode="&#x41f;" horiz-adv-x="710" 
d="M179 621v-621h-94v700h540v-700h-94v621h-352z" />
    <glyph glyph-name="afii10034" unicode="&#x420;" horiz-adv-x="639" 
d="M85 700h285q237 0 237 -201q0 -220 -246 -220h-182v-279h-94v700zM179 621v-263h172q83 0 121.5 34.5t38.5 104.5q0 65 -39 94.5t-121 29.5h-172z" />
    <glyph glyph-name="afii10035" unicode="&#x421;" horiz-adv-x="712" 
d="M580 232h94q-4 -34 -13.5 -65t-31.5 -66.5t-53 -61.5t-82.5 -43t-115.5 -17q-156 0 -244.5 95.5t-88.5 263.5q0 76 15.5 138t39 101t57 68t63 43t64.5 22t53.5 9.5t37.5 1.5q64 0 114.5 -14.5t81 -37.5t51.5 -55.5t30 -63.5t13 -66h-94q-2 24 -11 47t-28.5 50.5t-60 44
t-96.5 16.5q-63 0 -109.5 -25t-71.5 -68.5t-37 -95t-12 -111.5q0 -125 64 -204.5t173 -79.5q83 0 138.5 49t59.5 125z" />
    <glyph glyph-name="afii10036" unicode="&#x422;" horiz-adv-x="575" 
d="M241 621h-228v79h549v-79h-227v-621h-94v621z" />
    <glyph glyph-name="afii10037" unicode="&#x423;" horiz-adv-x="588" 
d="M325 279l168 421h99l-237 -575q-20 -47 -42.5 -76.5t-48 -41t-42.5 -14.5t-45 -3q-42 0 -78 10v82q32 -11 66 -11q18 0 30.5 3t28 12.5t28.5 31.5t23 56l-266 526h115z" />
    <glyph glyph-name="afii10038" unicode="&#x424;" horiz-adv-x="890" 
d="M398 -26v105h-39q-18 0 -37 1.5t-52 7.5t-61.5 16.5t-60.5 31.5t-54 49.5t-37 72.5t-15 99q0 16 1.5 33t8.5 46t19.5 54t36.5 52.5t56 47t82.5 32t112.5 12.5h39v106h94v-106h39q41 0 80 -6t83.5 -24t77 -47.5t54.5 -81t22 -118.5q0 -59 -17 -106.5t-46 -76.5t-61.5 -49
t-71 -29.5t-66.5 -13t-55 -3.5h-39v-105h-94zM398 153v407h-26q-64 0 -110.5 -17.5t-69 -39t-34.5 -54.5t-14 -51t-2 -41q0 -16 0.5 -28t5.5 -35t13 -40t25 -37t41 -33t61 -22t84 -9h26zM492 153h27q229 0 229 204q0 203 -229 203h-27v-407z" />
    <glyph glyph-name="afii10039" unicode="&#x425;" horiz-adv-x="570" 
d="M285 425l175 275h117l-232 -342l245 -358h-121l-184 291l-184 -291h-121l245 358l-232 342h117z" />
    <glyph glyph-name="afii10040" unicode="&#x426;" horiz-adv-x="739" 
d="M179 79h355v621h94v-621h98l-7 -237h-82v158h-552v700h94v-621z" />
    <glyph glyph-name="afii10041" unicode="&#x427;" horiz-adv-x="636" 
d="M58 700h94v-205q0 -76 37.5 -97.5t131.5 -21.5q59 0 136 7v317h94v-700h-94v304q-86 -7 -154 -7q-135 0 -190 37.5t-55 145.5v220z" />
    <glyph glyph-name="afii10042" unicode="&#x428;" horiz-adv-x="1018" 
d="M179 79h283v621h94v-621h283v621h94v-700h-848v700h94v-621z" />
    <glyph glyph-name="afii10043" unicode="&#x429;" horiz-adv-x="1050" 
d="M179 700v-621h283v621h94v-621h283v621h94v-621h104l-9 -237h-82v158h-861v700h94z" />
    <glyph glyph-name="afii10044" unicode="&#x42a;" horiz-adv-x="718" 
d="M259 700v-285h201q29 0 56 -4.5t59.5 -18t55.5 -35.5t39 -61.5t16 -90.5q0 -52 -17 -91.5t-41 -60t-57.5 -33.5t-58.5 -16.5t-52 -3.5h-295v621h-152v79h246zM259 336v-257h190q11 0 23.5 1.5t35 8.5t39.5 19.5t30 38.5t13 61q0 128 -154 128h-177z" />
    <glyph glyph-name="afii10045" unicode="&#x42b;" horiz-adv-x="858" 
d="M179 700v-285h202q107 0 166 -55t59 -155q0 -52 -16.5 -91.5t-40.5 -60.5t-57 -33.5t-58.5 -16t-52.5 -3.5h-296v700h94zM179 336v-257h189q23 0 44.5 5t45 17.5t38 40t14.5 66.5q0 27 -7.5 48t-17 34.5t-28.5 23t-32 13.5t-38 6.5t-35 2.5h-34h-139zM679 700h94v-700
h-94v700z" />
    <glyph glyph-name="afii10046" unicode="&#x42c;" horiz-adv-x="638" 
d="M179 700v-285h201q29 0 56 -4.5t59.5 -18t55.5 -35.5t39 -61.5t16 -90.5q0 -52 -17 -91.5t-41 -60t-57.5 -33.5t-58.5 -16.5t-52 -3.5h-295v700h94zM179 336v-257h190q11 0 23.5 1.5t35 8.5t39.5 19.5t30 38.5t13 61q0 128 -153 128h-178z" />
    <glyph glyph-name="afii10047" unicode="&#x42d;" horiz-adv-x="719" 
d="M244 401h330q0 21 -3.5 46t-17.5 61.5t-37 64.5t-66.5 48.5t-100.5 20.5q-89 0 -140 -41.5t-60 -104.5h-94q7 92 79.5 158.5t205.5 66.5q80 0 141.5 -24.5t97 -61t58 -87.5t30 -96.5t7.5 -93.5q0 -49 -6 -93.5t-27 -99t-55.5 -93.5t-96.5 -66t-145 -27q-63 0 -114 17.5
t-83 44.5t-55 63.5t-33 70t-14 68.5h94q3 -21 9 -41.5t21.5 -47.5t37 -47.5t58.5 -34.5t83 -14q52 0 93 16t64.5 40t39 56.5t21.5 60.5t8 58q2 17 0 33h-330v79z" />
    <glyph glyph-name="afii10048" unicode="&#x42e;" horiz-adv-x="993" 
d="M179 408h105q4 60 25.5 114t60 99.5t101.5 72.5t142 27q150 0 242.5 -96.5t92.5 -274.5q0 -79 -19.5 -144.5t-58.5 -117t-105 -80.5t-152 -29q-74 0 -132.5 21.5t-94 55.5t-59.5 81.5t-34 93.5t-13 98h-101v-329h-94v700h94v-292zM614 58q58 0 101.5 20t68 50t39.5 71.5
t20 77t5 73.5q0 74 -17.5 130t-42.5 85.5t-59.5 48t-60.5 23.5t-54 5q-27 0 -53 -5t-60.5 -23t-59.5 -48t-43 -86t-18 -130q0 -60 13 -110.5t39.5 -92.5t73 -65.5t108.5 -23.5z" />
    <glyph glyph-name="afii10049" unicode="&#x42f;" horiz-adv-x="680" 
d="M501 278h-159l-171 -278h-116l190 288q-29 1 -58 10.5t-60.5 30.5t-51.5 63t-20 99q0 94 57 151.5t184 57.5h299v-700h-94v278zM501 621h-197q-85 0 -119 -39t-34 -92q0 -133 166 -133h184v264z" />
    <glyph glyph-name="afii10065" unicode="&#x430;" horiz-adv-x="553" 
d="M139 358h-84q0 29 9 56t31 54t67 43.5t109 16.5q36 0 67.5 -6.5t64.5 -23t52 -53t18 -88.5l-5 -235q0 -19 1 -27t5.5 -18t15.5 -13t31 -2v-62q-16 -4 -40 -4q-42 0 -62.5 14t-28.5 60q-25 -46 -71.5 -68t-102.5 -22q-84 0 -131.5 38t-47.5 115q0 71 52 109.5t197 51.5
q66 4 80 13q19 13 19 57q0 102 -114 102q-135 0 -132 -108zM383 217l2 43q-9 -7 -21.5 -11.5t-22.5 -6t-31.5 -3.5t-36.5 -4q-80 -13 -101 -23q-44 -21 -44 -76q0 -44 27 -69t71 -25q28 0 53 8t48 26.5t38 54.5t18 86z" />
    <glyph glyph-name="afii10066" unicode="&#x431;" horiz-adv-x="592" 
d="M433 733h75q-2 -38 -20 -62t-48 -35t-59.5 -15.5t-68.5 -9t-62 -10.5q-64 -18 -102 -65.5t-40 -144.5h2q48 129 197 129q121 0 181.5 -79.5t60.5 -194.5q0 -51 -14.5 -97.5t-43.5 -85t-78.5 -61t-113.5 -22.5q-50 0 -90.5 14t-66.5 36t-45.5 54t-29.5 62t-15.5 66.5
t-7 60t-1.5 50.5q0 97 15 164.5t44.5 105.5t62.5 57t78 29q42 10 83.5 15.5t59 7t30 8.5t17.5 23zM136 240q0 -33 7 -64t23 -63t50 -51.5t81 -19.5q77 0 118 52t41 142q0 37 -5.5 69.5t-20.5 70t-49 60t-84 22.5t-84.5 -22t-50 -58.5t-21 -69t-5.5 -68.5z" />
    <glyph glyph-name="afii10067" unicode="&#x432;" horiz-adv-x="539" 
d="M72 508h242q161 0 161 -121q0 -87 -92 -119v-3q66 -16 88.5 -51t22.5 -82q0 -41 -16 -69t-45 -41t-57.5 -17.5t-64.5 -4.5h-239v508zM160 446v-150h122q56 0 80 23t24 55q0 72 -100 72h-126zM160 234v-172h129q114 0 114 78q0 94 -117 94h-126z" />
    <glyph glyph-name="afii10068" unicode="&#x433;" horiz-adv-x="433" 
d="M160 446v-446h-88v508h348v-62h-260z" />
    <glyph glyph-name="afii10069" unicode="&#x434;" horiz-adv-x="603" 
d="M0 62h64q83 122 83 361v85h364v-446h88l-7 -194h-74v132h-436v-132h-74zM423 446h-194v-71q0 -81 -17.5 -168t-54.5 -145h266v384z" />
    <glyph glyph-name="afii10070" unicode="&#x435;" horiz-adv-x="570" 
d="M438 147h84q-12 -67 -64.5 -117t-157.5 -50q-52 0 -93.5 13t-67.5 32.5t-45.5 47.5t-29 52t-14.5 53t-6 44t-1 30q0 29 3 56.5t17 70t38.5 73t73.5 53.5t116 23q58 0 101.5 -18t67.5 -44t39 -65.5t20 -71t7 -70.5q0 -4 0.5 -12.5t0.5 -12.5h-391q0 -75 40.5 -133.5
t120.5 -58.5q60 0 96 29.5t45 75.5zM136 296h298q-1 30 -7.5 56t-20.5 53.5t-43 44t-70 16.5q-46 0 -79 -17t-49 -44.5t-22.5 -54t-6.5 -54.5z" />
    <glyph glyph-name="afii10072" unicode="&#x436;" horiz-adv-x="702" 
d="M307 0v251l-202 -251h-109l233 267l-220 241h104l194 -230v230h88v-230l194 230h104l-220 -241l233 -267h-109l-202 251v-251h-88z" />
    <glyph glyph-name="afii10073" unicode="&#x437;" horiz-adv-x="517" 
d="M32 156h84q0 -48 35 -81t100 -33q60 0 96 25t36 75q0 91 -115 91h-75v62h65q106 0 106 79q0 13 -3.5 26t-14 29.5t-35.5 26.5t-62 10q-66 0 -93 -31t-27 -67h-84q3 53 27.5 88t62 49t64.5 18.5t55 4.5q51 0 90 -11.5t59.5 -27.5t33 -38t15.5 -38.5t3 -32.5
q0 -88 -88 -111v-3q44 -7 75.5 -40t31.5 -90q0 -27 -9 -52t-31 -49.5t-67 -39.5t-109 -15q-56 0 -98 13t-65 32t-38 45t-19.5 45.5t-5.5 40.5z" />
    <glyph glyph-name="afii10074" unicode="&#x438;" horiz-adv-x="595" 
d="M160 103l265 405h98v-508h-88v406l-264 -406h-99v508h88v-405z" />
    <glyph glyph-name="afii10075" unicode="&#x439;" horiz-adv-x="595" 
d="M160 103l265 405h98v-508h-88v406l-264 -406h-99v508h88v-405zM392 700h75q-21 -110 -132 -129q-20 -3 -40 -3q-129 0 -165 105q-2 5 -4 14t-3 13h75q-3 -26 18 -49q15 -16 35 -24q18 -6 44 -6q42 0 70.5 21t26.5 58z" />
    <glyph glyph-name="afii10076" unicode="&#x43a;" horiz-adv-x="489" 
d="M160 286l217 222h103l-238 -236l251 -272h-105l-228 254v-254h-88v508h88v-222z" />
    <glyph glyph-name="afii10077" unicode="&#x43b;" horiz-adv-x="559" 
d="M13 0v65q29 -6 50.5 1t34.5 28t21 42t11 57.5t4 60.5t1 63v191h352v-508h-88v446h-182v-129q0 -62 -3 -105.5t-15 -92t-33 -75.5t-60 -40.5t-93 -3.5z" />
    <glyph glyph-name="afii10078" unicode="&#x43c;" horiz-adv-x="732" 
d="M332 0l-172 408h-2l2 -27v-381h-88v508h121l173 -413l173 413h121v-508h-88v381l3 27h-3l-172 -408h-68z" />
    <glyph glyph-name="afii10079" unicode="&#x43d;" horiz-adv-x="571" 
d="M160 237v-237h-88v508h88v-209h251v209h88v-508h-88v237h-251z" />
    <glyph glyph-name="afii10080" unicode="&#x43e;" horiz-adv-x="586" 
d="M43 254q0 53 13.5 100t41.5 87t78 63.5t117 23.5t117 -23.5t78 -63.5t41.5 -87t13.5 -100t-13.5 -100t-41.5 -87t-78 -63.5t-117 -23.5t-117 23.5t-78 63.5t-41.5 87t-13.5 100zM136 255q0 -58 13 -100.5t30.5 -63t42 -33t39.5 -14.5t32 -2t32 2t39.5 14.5t42 33t30.5 63
t13 100.5t-13 100.5t-30.5 63t-42 33t-39.5 14.5t-32 2t-32 -2t-39.5 -14.5t-42 -33t-30.5 -63t-13 -100.5z" />
    <glyph glyph-name="afii10081" unicode="&#x43f;" horiz-adv-x="577" 
d="M160 446v-446h-88v508h433v-508h-88v446h-257z" />
    <glyph glyph-name="afii10082" unicode="&#x440;" horiz-adv-x="597" 
d="M72 508h82v-70h3q60 90 168 90q100 0 164.5 -69t64.5 -205q0 -138 -65.5 -206t-161.5 -68q-13 0 -29.5 2.5t-43.5 10.5t-52.5 28.5t-41.5 51.5v-258h-88v693zM154 252q0 -107 48.5 -158.5t108.5 -51.5q62 0 106 50.5t44 161.5q0 99 -40.5 155.5t-114.5 56.5
q-17 0 -33.5 -3.5t-39 -17t-39 -35t-28.5 -62.5t-12 -96z" />
    <glyph glyph-name="afii10083" unicode="&#x441;" horiz-adv-x="548" 
d="M428 181h84q-2 -29 -12 -58t-32 -64t-68 -57t-109 -22q-16 0 -30 1t-41 7t-48.5 16t-46.5 31t-42 49.5t-28.5 73t-11.5 100.5q0 49 10.5 92.5t36 85.5t75.5 67t120 25q101 0 157.5 -51t65.5 -128h-84q-20 117 -137 117q-78 0 -114.5 -57.5t-36.5 -150.5q0 -94 39 -155
t118 -61q67 0 99.5 43t35.5 96z" />
    <glyph glyph-name="afii10084" unicode="&#x442;" horiz-adv-x="466" 
d="M189 446h-176v62h440v-62h-176v-446h-88v446z" />
    <glyph glyph-name="afii10085" unicode="&#x443;" horiz-adv-x="498" 
d="M91 -184v65q34 -5 44 -5q19 0 31.5 5.5t22.5 22t13.5 25t12.5 33.5l12 38l-220 508h105l163 -411l135 411h88l-202 -568q-22 -65 -41 -89q-34 -40 -92 -40q-48 0 -72 5z" />
    <glyph glyph-name="afii10086" unicode="&#x444;" horiz-adv-x="794" 
d="M353 -185v172q-87 2 -149.5 24.5t-96 61.5t-49 84t-15.5 100q0 34 6 66t25.5 70.5t52 66t91 45t135.5 15.5v180h88v-180q39 1 77.5 -4t82 -22t75.5 -44.5t53.5 -77.5t21.5 -115q0 -122 -74 -194t-236 -76v-172h-88zM353 49v409q-37 2 -71.5 -5.5t-69 -27.5t-55.5 -63
t-21 -104q0 -52 15.5 -91.5t38.5 -61.5t54 -35t56.5 -17t52.5 -4zM441 458v-409q64 0 109.5 20t67.5 53t31 66t9 70q0 24 -4 48.5t-18.5 54.5t-37 51.5t-63 35t-94.5 10.5z" />
    <glyph glyph-name="afii10087" unicode="&#x445;" horiz-adv-x="484" 
d="M242 320l130 188h98l-178 -243l192 -265h-98l-144 209l-144 -209h-98l192 265l-178 243h98z" />
    <glyph glyph-name="afii10088" unicode="&#x446;" horiz-adv-x="596" 
d="M160 62h256v446h88v-446h88l-7 -194h-74v132h-439v508h88v-446z" />
    <glyph glyph-name="afii10089" unicode="&#x447;" horiz-adv-x="508" 
d="M45 508h88v-156q0 -25 2 -36t12 -24.5t34.5 -18t66.5 -4.5q20 0 58 2q7 1 21 1h21v236h88v-508h-88v210q-43 -3 -118 -3q-65 0 -104.5 9.5t-56 30.5t-20.5 39.5t-4 51.5v170z" />
    <glyph glyph-name="afii10090" unicode="&#x448;" horiz-adv-x="832" 
d="M160 62h212v446h88v-446h212v446h88v-508h-688v508h88v-446z" />
    <glyph glyph-name="afii10091" unicode="&#x449;" horiz-adv-x="850" 
d="M160 62h212v446h88v-446h212v446h88v-446h86l-8 -194h-74v132h-692v508h88v-446z" />
    <glyph glyph-name="afii10092" unicode="&#x44a;" horiz-adv-x="590" 
d="M13 446v62h220v-201h127q28 0 49.5 -1.5t53 -10.5t51.5 -24.5t35 -46t15 -72.5q0 -152 -173 -152h-246v446h-132zM233 245v-183h123q117 0 117 96q0 25 -9.5 42.5t-21.5 26t-33 13t-32 5t-30 0.5h-7h-107z" />
    <glyph glyph-name="afii10093" unicode="&#x44b;" horiz-adv-x="714" 
d="M72 508h88v-201h128q28 0 49.5 -1.5t52.5 -10.5t51.5 -24.5t35.5 -46t15 -72.5q0 -66 -40 -109t-134 -43h-246v508zM160 245v-183h123q118 0 118 96q0 25 -9.5 42.5t-21 26t-33 13t-34 5t-36.5 0.5h-107zM554 508h88v-508h-88v508z" />
    <glyph glyph-name="afii10094" unicode="&#x44c;" horiz-adv-x="514" 
d="M72 508h88v-202h127q37 0 65.5 -4t63.5 -17.5t55 -45.5t20 -81q0 -43 -14.5 -74.5t-33.5 -47t-46.5 -24.5t-44 -10.5t-35.5 -1.5h-245v508zM160 244v-182h122q33 0 56.5 7.5t35 17.5t18 25.5t7.5 24.5t1 21q0 25 -9.5 42.5t-20.5 25.5t-32 12.5t-32 5t-31 0.5h-8h-107z
" />
    <glyph glyph-name="afii10095" unicode="&#x44d;" horiz-adv-x="553" 
d="M198 233v62h219q-1 45 -13.5 78t-28.5 50t-37 27.5t-36 13t-29 2.5q-66 0 -105 -33t-43 -84h-84q5 41 19.5 72.5t36 50t43.5 31t48.5 17.5t42.5 6.5t33 1.5q246 0 246 -278q0 -270 -241 -270q-27 0 -48.5 2t-54.5 13t-56 30.5t-44 58t-29 92.5h84q17 -134 148 -134
q49 0 81.5 22t45.5 57.5t17 60.5t4 51h-219z" />
    <glyph glyph-name="afii10096" unicode="&#x44e;" horiz-adv-x="780" 
d="M160 299h80q10 94 70.5 161.5t176.5 67.5q107 0 178.5 -67.5t71.5 -205.5q0 -77 -24 -133t-54.5 -82t-72 -41t-60.5 -17t-37 -2q-55 0 -98 16.5t-69.5 41.5t-45 60.5t-26 68.5t-10.5 70h-80v-237h-88v508h88v-209zM333 255q0 -35 5.5 -67t20.5 -67.5t48.5 -57t81.5 -21.5
q43 0 74.5 19t46 43t23 58.5t10 53t1.5 39.5q0 20 -1.5 39t-10 53t-23.5 58t-46 42.5t-74 18.5q-17 0 -31.5 -2t-39 -14t-42 -32.5t-30.5 -63t-13 -99.5z" />
    <glyph glyph-name="afii10097" unicode="&#x44f;" horiz-adv-x="543" 
d="M267 200l-133 -200h-97l140 201q-56 6 -93 44t-37 103q0 28 7 53t24 50.5t53 41t87 15.5h253v-508h-88v200h-116zM383 446h-127q-118 0 -118 -95q0 -36 27 -62.5t94 -26.5h124v184z" />
    <glyph glyph-name="afii10071" unicode="&#x451;" horiz-adv-x="572" 
d="M436 147h84q-39 -167 -221 -167q-70 0 -122 23t-80 63t-41 86t-13 100q0 52 10.5 96t35 87t75 68t121.5 25q121 0 182.5 -68t61.5 -201v-25h-393q0 -34 9 -67t27 -61.5t50 -46t74 -17.5q112 0 140 105zM136 296h300q-9 93 -43.5 131.5t-99.5 38.5q-37 0 -65.5 -12.5
t-45 -30t-27 -42t-14.5 -44.5t-5 -41zM131 608v92h88v-92h-88zM365 608v92h88v-92h-88z" />
    <glyph glyph-name="afii10099" unicode="&#x452;" horiz-adv-x="584" 
d="M80 700h88v-63h211v-62h-211v-158q64 91 167 91q48 0 82 -14.5t54.5 -39t32 -67t15 -87.5t3.5 -111q0 -35 -0.5 -58t-3 -57.5t-6.5 -57.5t-12 -52t-19.5 -48.5t-29 -40t-40 -32.5t-52.5 -20t-67 -8v65h22q21 0 38 6.5t28.5 22t20.5 30.5t14 41t8 45t4 52t1.5 51t0.5 52v7
q0 134 -14 181q-24 78 -103 78q-40 0 -68.5 -14t-42.5 -32.5t-22 -48t-9.5 -49t-1.5 -45.5v-257h-88v575h-80v62h80v63z" />
    <glyph glyph-name="afii10100" unicode="&#x453;" horiz-adv-x="433" 
d="M160 446v-446h-88v508h348v-62h-260zM224 700h106l-96 -132h-80z" />
    <glyph glyph-name="afii10101" unicode="&#x454;" horiz-adv-x="554" 
d="M369 295v-62h-233q3 -191 149 -191q133 0 148 135h84q-2 -25 -8 -49t-22.5 -52t-41 -48.5t-65.5 -34t-94 -13.5q-28 0 -51.5 2.5t-61.5 18t-64 42t-46 80t-20 127.5q0 278 240 278q65 0 112 -18t70.5 -47.5t34 -56.5t12.5 -57h-84q0 56 -45.5 86.5t-107.5 30.5
q-25 0 -46.5 -7.5t-43 -25t-34.5 -53t-15 -85.5h233z" />
    <glyph glyph-name="afii10102" unicode="&#x455;" horiz-adv-x="506" 
d="M36 151h88q2 -56 41.5 -82.5t96.5 -26.5q33 0 57 8.5t35 19t17.5 26.5t7 23.5t0.5 18.5q0 30 -19.5 49t-87.5 35l-54 12q-39 9 -62 17t-48.5 23.5t-37.5 42.5t-12 65q0 41 17 70.5t45.5 45.5t61 23t69.5 7q192 0 206 -153h-84q-9 91 -119 91q-8 0 -15.5 -0.5t-25.5 -4.5
t-30.5 -11.5t-23 -24t-10.5 -39.5q0 -13 3.5 -24t7.5 -18.5t14.5 -14.5l16.5 -11t22.5 -8.5t22.5 -6t26.5 -6t26.5 -5.5q40 -9 60 -14.5t47.5 -17.5t40.5 -25.5t23 -36.5t10 -54q0 -45 -20.5 -78t-46 -49t-60 -25t-51.5 -10.5t-31 -1.5q-108 0 -165.5 48.5t-59.5 122.5z" />
    <glyph glyph-name="afii10103" unicode="&#x456;" horiz-adv-x="228" 
d="M70 508h88v-508h-88v508zM70 608v92h88v-92h-88z" />
    <glyph glyph-name="afii10104" unicode="&#x457;" horiz-adv-x="273" 
d="M92 508h89v-508h-89v508zM23 608v92h88v-92h-88zM162 608v92h88v-92h-88z" />
    <glyph glyph-name="afii10105" unicode="&#x458;" horiz-adv-x="231" 
d="M73 508h88v-555q0 -72 -26.5 -107t-93.5 -35q-9 0 -57 4v62q19 3 30.5 5t22.5 6.5t16 5t10 8t6.5 9t2.5 14t1 16.5v23v544zM73 608v92h88v-92h-88z" />
    <glyph glyph-name="afii10106" unicode="&#x459;" horiz-adv-x="843" 
d="M13 0v65q14 -2 19 -2q23 0 40.5 8.5t28.5 26.5t18 38.5t10.5 53t4.5 59.5t1 68v191h353v-199h128q29 0 51 -2t52.5 -10.5t51 -24.5t35 -46.5t14.5 -73.5q0 -152 -174 -152h-246v446h-182v-129q0 -42 -0.5 -68t-4 -63.5t-10 -61t-19 -50.5t-30 -42t-44.5 -25t-62 -10
q-17 0 -35 3zM488 247v-185h123q118 0 118 96q0 51 -35.5 70t-97.5 19h-108z" />
    <glyph glyph-name="afii10107" unicode="&#x45a;" horiz-adv-x="855" 
d="M160 245v-245h-88v508h88v-201h252v201h88v-201h127h29q22 0 43 -3t46.5 -12.5t43.5 -26t30.5 -45.5t12.5 -68q0 -152 -174 -152h-246v245h-252zM500 245v-183h123q118 0 118 96q0 31 -13 50.5t-37 26.5t-39 8.5t-38 1.5h-6h-108z" />
    <glyph glyph-name="afii10108" unicode="&#x45b;" horiz-adv-x="580" 
d="M80 700h88v-63h211v-62h-211v-158q67 91 174 91q166 0 166 -190v-318h-88v291v7q0 21 -0.5 34t-6 37t-15.5 38.5t-32 26.5t-53 12q-30 0 -53.5 -9t-38.5 -22t-26 -32.5t-16 -35.5t-7.5 -37t-3 -30.5t-0.5 -22.5v-257h-88v575h-80v62h80v63z" />
    <glyph glyph-name="afii10109" unicode="&#x45c;" horiz-adv-x="489" 
d="M160 286l217 222h103l-238 -236l251 -272h-105l-228 254v-254h-88v508h88v-222zM252 700h106l-96 -132h-80z" />
    <glyph glyph-name="afii10110" unicode="&#x45e;" horiz-adv-x="498" 
d="M91 -184v65q34 -5 44 -5q19 0 31.5 5.5t22.5 22t13.5 25t12.5 33.5l12 38l-220 508h105l163 -411l135 411h88l-202 -568q-22 -65 -41 -89q-34 -40 -92 -40q-48 0 -72 5zM77 700h74q3 -33 27 -56t71 -23t71 23t27 56h74q-8 -51 -48.5 -91.5t-123.5 -40.5t-123.5 40.5
t-48.5 91.5z" />
    <glyph glyph-name="afii10193" unicode="&#x45f;" horiz-adv-x="578" 
d="M418 62v446h88v-508h-178v-185h-78v185h-178v508h88v-446h258z" />
    <glyph glyph-name="cyrOmega" unicode="&#x460;" horiz-adv-x="936" 
d="M469 120h-2q-11 -55 -47 -92q-50 -48 -135 -48q-57 1 -94 17.5t-67 55.5q-79 93 -79 279q0 77 11 134q11 52 41 106q79 147 243 149v-79q-107 -6 -157 -114q-38 -76 -38 -196q0 -160 49 -223q35 -51 93 -51q62 0 97 40q20 23 27 58q8 34 10 141v93h94v-93q-1 -103 8 -141
q9 -34 29 -58q33 -40 97 -40q55 0 93 51q47 63 49 223q0 117 -38 196q-53 108 -157 114v79q161 -2 243 -149q28 -51 40 -106q12 -54 12 -134q0 -185 -79 -279q-31 -39 -68 -56t-93 -17q-87 0 -135 48q-40 38 -47 92z" />
    <glyph glyph-name="cyromega" unicode="&#x461;" horiz-adv-x="740" 
d="M371 82h-2q-8 -42 -34 -67q-39 -34 -98 -34q-83 0 -130 52q-64 69 -64 203q0 105 41 174q64 106 193 108v-62q-76 -6 -114 -81q-27 -56 -27 -139q0 -114 35 -158q27 -36 68 -36q38 0 63 28q12 17 18 43q6 27 6 97v68h88v-68q-1 -68 5 -97q6 -27 19 -43q21 -28 63 -28
q38 0 68 36q35 48 35 158q0 80 -27 139q-40 75 -114 81v62q128 -2 193 -108q41 -72 41 -174q-1 -134 -64 -203q-48 -52 -130 -52q-61 0 -98 34q-28 23 -34 67z" />
    <glyph glyph-name="afii10146" unicode="&#x462;" horiz-adv-x="744" 
d="M259 700v-80h220v-79h-220v-126h201q108 0 167 -55t59 -155q0 -52 -17 -91.5t-41 -60t-57.5 -33.5t-58.5 -16.5t-52 -3.5h-295v541h-152v79h152v80h94zM259 336v-257h190q11 0 23.5 1.5t35 8.5t39.5 19.5t30 38.5t13 61q0 128 -154 128h-177z" />
    <glyph glyph-name="afii10194" unicode="&#x463;" horiz-adv-x="590" 
d="M13 446v62h132v192h88v-192h190v-62h-190v-139h127q28 0 49.5 -1.5t53 -10.5t51.5 -24.5t35 -46t15 -72.5q0 -152 -173 -152h-246v446h-132zM233 245v-183h123q117 0 117 96q0 87 -113 87h-127z" />
    <glyph glyph-name="cyriotE" unicode="&#x464;" horiz-adv-x="960" 
d="M85 0v700h94v-300h106q5 82 37.5 152t86.5 111q76 58 205 58q106 -2 175 -45q96 -64 110 -180h-100q-17 80 -79 118q-50 26 -113 28q-125 0 -184 -91q-41 -62 -42 -151h345v-79h-345q2 -113 44 -174q59 -91 190 -89q69 -1 118 34q64 47 82 151h100q-18 -140 -111 -210
q-71 -53 -190 -53q-129 0 -205 57q-125 88 -127 284h-103v-321h-94z" />
    <glyph glyph-name="cyriote" unicode="&#x465;" horiz-adv-x="752" 
d="M72 0v508h88v-213h82q6 112 69 175q61 58 171 58q101 0 162 -47q60 -52 66 -132h-84q-1 41 -35 78q-39 38 -107 39q-90 0 -127 -68q-24 -43 -24 -103h234v-62h-233q0 -73 23 -116q35 -75 126 -75q85 0 122 56q20 28 26 79h84q-6 -91 -67 -146q-54 -49 -164 -50
q-131 0 -188 77q-53 66 -55 175h-81v-233h-88z" />
    <glyph glyph-name="cyrYuslit" unicode="&#x466;" horiz-adv-x="720" 
d="M310 700h100l314 -700h-110l-95 221h-112v-221h-94v221h-112l-95 -221h-110zM360 605l-130 -305h260z" />
    <glyph glyph-name="cyryuslit" unicode="&#x467;" horiz-adv-x="618" 
d="M258 508h102l248 -508h-98l-81 170h-76v-170h-88v170h-76l-81 -170h-98zM309 428l-93 -196h186z" />
    <glyph glyph-name="cyriotYuslit" unicode="&#x468;" horiz-adv-x="980" 
d="M490 300h260l-130 305zM391 300l179 400h100l314 -700h-110l-95 221h-112v-221h-94v221h-112l-95 -221h-110l99 221h-176v-221h-94v700h94v-400h212z" />
    <glyph glyph-name="cyriotyuslit" unicode="&#x469;" horiz-adv-x="820" 
d="M511 428l-93 -196h186zM325 232l135 276h102l248 -508h-98l-81 170h-76v-170h-88v170h-76l-81 -170h-98l83 170h-135v-170h-88v508h88v-276h165z" />
    <glyph glyph-name="cyrYusbig" unicode="&#x46a;" horiz-adv-x="828" 
d="M327 396l-249 304h672l-249 -304l331 -396h-114l-257 316v-316h-94v316l-257 -316h-114zM414 420l158 201h-316z" />
    <glyph glyph-name="cyryusbig" unicode="&#x46b;" horiz-adv-x="702" 
d="M292 290l-187 218h492l-187 -218l256 -290h-109l-162 195v-195h-88v195l-162 -195h-109zM351 336l89 110h-178z" />
    <glyph glyph-name="cyriotYusbig" unicode="&#x46c;" horiz-adv-x="1080" 
d="M508 621l158 -201l158 201h-316zM179 430h372l-221 270h672l-249 -304l331 -396h-114l-257 316v-316h-94v316l-257 -316h-114l293 351h-362v-351h-94v700h94v-270z" />
    <glyph glyph-name="cyriotyusbig" unicode="&#x46d;" horiz-adv-x="880" 
d="M440 446l89 -110l89 110h-178zM160 310h293l-170 198h492l-187 -218l256 -290h-109l-162 195v-195h-88v195l-162 -195h-109l219 248h-273v-248h-88v508h88v-198z" />
    <glyph glyph-name="cyrKsi" unicode="&#x46e;" horiz-adv-x="655" 
d="M139 506h-94q6 94 59 147q47 45 118 58l-167 149h120l144 -139l125 109q24 21 43.5 28.5t48.5 7.5q10 0 26 -2t20 -2v-70q-6 1 -19.5 2.5t-18.5 1.5q-35 0 -62 -23l-72 -62q55 -12 91 -39q68 -54 68 -147q0 -75 -52 -120q-31 -26 -67 -32v-2q48 -12 81 -34
q66 -49 66 -141q0 -103 -84 -156q-63 -40 -181 -40h-119q-39 0 -54 -11q-20 -12 -20 -43q0 -27 22 -40q17 -11 62 -11h234v-79h-240q-61 0 -98 14q-74 29 -74 115q0 73 47 108q34 26 121 26h115q70 -2 117 26q56 32 56 100q0 32 -15.5 60t-43.5 44q-38 20 -101 20h-92v79h83
q54 0 87 17q54 26 54 94q0 56 -44 92q-43 31 -117 31q-76 0 -118 -30q-53 -39 -55 -106z" />
    <glyph glyph-name="cyrksi" unicode="&#x46f;" horiz-adv-x="567" 
d="M146 368h-84q2 65 49 111q34 34 86 42l-165 179h95l144 -172l125 140q32 36 84 36q5 0 21.5 -2t22.5 -2v-63q-20 5 -40 5q-34 0 -56 -24l-87 -96q43 -6 79 -33q52 -43 52 -109q0 -56 -36 -86q-24 -19 -52 -25v-2q32 -7 63 -28q44 -37 44 -93q0 -75 -65 -115
q-52 -31 -151 -31h-49q-45 0 -59 -13q-21 -15 -21 -50q0 -31 24 -47q19 -12 66 -12h195v-62h-201q-102 1 -142 44q-30 34 -30 85q0 63 48 94q35 23 101 23h66q59 0 86 15q41 21 41 70q-2 44 -36 68q-31 18 -79 18h-75v62h65q47 0 70 13q36 20 36 66t-36 73q-29 19 -79 19
q-67 -1 -97 -37q-23 -26 -23 -61z" />
    <glyph glyph-name="cyrPsi" unicode="&#x470;" horiz-adv-x="740" 
d="M417 0h-94v209q-62 0 -117.5 19.5t-86.5 51.5q-35 35 -51 88q-15 54 -15 156v176h94v-177q0 -74 4 -102t16 -52q19 -40 59.5 -61.5t96.5 -19.5v412h94v-412q113 -5 156 81q11 21 15 52q5 35 5 102v177h94v-176q0 -104 -15 -156q-13 -51 -52 -88q-33 -32 -88 -51.5
t-115 -19.5v-209z" />
    <glyph glyph-name="cyrpsi" unicode="&#x471;" horiz-adv-x="736" 
d="M407 -184h-88v184q-142 0 -205 88q-25 31 -37 78q-11 49 -11 161v181h88v-173q0 -161 40 -214q21 -29 54 -44.5t71 -14.5v638h88v-638q45 -2 84 20q92 48 92 201q0 65 -14 122q-14 55 -40 103l91 12q21 -39 39 -98q17 -68 17 -141q0 -198 -140 -258q-50 -23 -129 -23
v-184z" />
    <glyph glyph-name="afii10147" unicode="&#x472;" horiz-adv-x="960" 
d="M713 318h-466q2 -71 23 -121q53 -139 210 -139q73 0 127.5 35.5t82.5 103.5q18 48 23 121zM247 387h466q-6 68 -30 126q-58 129 -203 129q-147 0 -203 -129q-25 -58 -30 -126zM10 218v169h137q5 98 49 179q86 155 284 155q196 0 284 -155q42 -80 49 -179h137v-169h-84
v100h-53q-5 -106 -48 -185q-85 -153 -285 -153q-201 0 -285 153q-46 79 -48 185h-53v-100h-84z" />
    <glyph glyph-name="afii10195" unicode="&#x473;" horiz-adv-x="760" 
d="M535 226h-310q0 -74 34 -121q40 -63 121 -63q80 0 121 63q32 47 34 121zM225 288h310q-5 69 -33 116q-41 61 -122 62q-82 -1 -122 -62q-31 -46 -33 -116zM10 126v162h123q4 55 25.5 104.5t55.5 80.5q61 55 166 55q102 0 166 -55q69 -65 81 -185h123v-162h-80v100h-43
q-2 -56 -24.5 -107.5t-56.5 -82.5q-60 -55 -166 -55q-107 0 -166 55q-35 31 -57.5 82.5t-23.5 107.5h-43v-100h-80z" />
    <glyph glyph-name="afii10148" unicode="&#x474;" horiz-adv-x="700" 
d="M297 97l127 435q16 55 38 92t47.5 53.5t48 22.5t51.5 6q43 0 78 -10v-82q-32 11 -66 11q-40 0 -65.5 -21.5t-44.5 -81.5l-158 -522h-112l-245 700h103z" />
    <glyph glyph-name="afii10196" unicode="&#x475;" horiz-adv-x="540" 
d="M235 88l84 284q23 82 57.5 111t97.5 29q26 0 53 -4v-66q-19 5 -40 5q-20 0 -32.5 -3.5t-29.5 -24t-28 -58.5l-111 -361h-102l-188 508h95z" />
    <glyph glyph-name="cyrIzhitsadblgrave" unicode="&#x476;" horiz-adv-x="700" 
d="M279 900h106l70 -140h-80zM126 900h106l70 -140h-80zM99 700l198 -603l127 435q26 90 68 131.5t117 42.5q42 0 78 -10v-82q-36 11 -66 11q-43 0 -68.5 -24.5t-41.5 -78.5l-158 -522h-112l-244 700h102z" />
    <glyph glyph-name="cyrizhitsadblgrave" unicode="&#x477;" horiz-adv-x="540" 
d="M199 700h106l70 -132h-80zM46 700h106l70 -132h-80zM91 508l144 -420l84 284q24 82 57 111q35 29 98 29q11 0 29.5 -2t23.5 -2v-66q-22 5 -40 5q-36 -1 -56.5 -21t-33.5 -65l-111 -361h-102l-187 508h94z" />
    <glyph glyph-name="cyrUk" unicode="&#x478;" horiz-adv-x="1240" 
d="M833 -183v65q35 -5 44 -5q29 0 46 18t34 68l12 37l-220 508h105l163 -411l135 411h88l-202 -567q-28 -81 -58 -104q-28 -23 -75 -25q-45 0 -72 5zM145 350q0 -167 82 -239q59 -53 152 -53q92 0 151 53q83 74 83 239q0 79 -23.5 142t-62.5 99q-56 49 -148 51
q-93 -2 -148 -51q-86 -75 -86 -241zM45 350q0 212 132 311q83 60 202 60q118 0 202 -60q132 -99 132 -311q0 -106 -35 -187t-94 -125q-75 -56 -205 -58q-129 0 -204 58q-130 95 -130 312z" />
    <glyph glyph-name="cyruk" unicode="&#x479;" horiz-adv-x="1040" 
d="M634 -183v65q4 0 44 -5q29 0 46 18t34 68l12 37l-220 508h105l163 -411l135 411h88l-202 -567q-28 -80 -58 -105q-29 -24 -75 -24q-55 2 -72 5zM137 255q0 -99 35 -150q40 -63 122 -63q81 0 122 63q35 53 35 150q0 95 -35 150q-42 62 -122 63q-81 0 -122 -63
q-35 -53 -35 -150zM44 254q-2 141 84 218q65 56 166 56q99 0 166 -56q82 -75 84 -218q0 -144 -84 -218q-62 -55 -166 -55q-105 0 -166 55q-84 72 -84 218z" />
    <glyph glyph-name="cyrroundOmega" unicode="&#x47a;" horiz-adv-x="852" 
d="M379 120h94v-55q74 5 134 50q100 75 100 235q0 157 -100 235q-62 44 -134 50v-55h-94v55q-77 -6 -136 -50q-98 -73 -98 -235q0 -163 98 -235q57 -45 136 -50v55zM473 -73h-94v60q-111 7 -186 55q-148 95 -148 308q0 101 37.5 180.5t110.5 127.5q79 50 186 56v60h94v-60
q107 -7 187 -56q147 -98 147 -308q0 -212 -147 -308q-76 -48 -187 -55v-60z" />
    <glyph glyph-name="cyrroundomega" unicode="&#x47b;" horiz-adv-x="674" 
d="M294 90h88v-40q69 8 112 59q45 51 45 146q0 92 -45 146q-42 48 -112 59v-40h-88v40q-72 -11 -112 -59q-45 -51 -45 -146q0 -98 45 -146q42 -51 112 -59v40zM382 -63h-88v51q-94 7 -151 52q-99 71 -99 214q-1 140 99 214q63 47 151 53v51h88v-51q87 -6 151 -53
q99 -74 99 -214q0 -141 -99 -214q-58 -45 -151 -52v-51z" />
    <glyph glyph-name="cyrOmegatitlo" unicode="&#x47c;" horiz-adv-x="936" 
d="M322 774h-66q19 113 95 158q45 27 117 28q65 -2 110 -24q33 -19 60 -52q22 -32 27 -36q4 -4 10 -6q15 -9 31 -8h24v-60h-32q-45 0 -68 20q-14 10 -29 34t-28 38q-43 38 -105 38q-74 0 -114 -49q-27 -33 -32 -81zM420 730h-56q5 43 17 68q25 52 87 54q59 0 87 -54
q10 -23 17 -68h-56q-2 29 -9 48q-16 28 -39 28q-25 0 -39 -28q-9 -17 -9 -48zM469 120h-2q-11 -55 -47 -92q-48 -46 -135 -48q-56 0 -93.5 17t-67.5 56q-79 93 -79 279q0 138 51 219q37 59 101 94t143 36v-79q-52 -2 -92.5 -28.5t-64.5 -70.5q-38 -65 -38 -171
q0 -158 49 -223q37 -53 93 -51q62 0 97 40q20 23 27 58q8 34 10 141v93h94v-93q0 -103 8 -141q9 -34 29 -58q35 -41 97 -40q55 0 93 51q47 65 49 223q0 103 -38 171q-25 43 -66 70t-91 29v79q77 -1 142 -36t102 -94q51 -84 51 -219q-1 -186 -79 -279q-31 -39 -68 -56
t-93 -17q-87 0 -135 48q-40 38 -47 92z" />
    <glyph glyph-name="cyromegatitlo" unicode="&#x47d;" horiz-adv-x="740" 
d="M224 590h-66q17 112 95 160q48 30 117 30q60 0 110 -26q37 -23 60 -54q5 -6 10 -13t7.5 -11t5 -7t3.5 -4q3 -3 11 -7q15 -9 31 -8h24v-60h-32q-43 -1 -68 20q-10 7 -30 35q-16 25 -27 37q-41 38 -105 38q-77 0 -114 -49q-27 -37 -32 -81zM322 530h-56q2 39 17 73
q24 59 87 59q61 0 87 -59q12 -29 17 -73h-56q-5 39 -10 55q-12 29 -38 31q-28 -1 -38 -31q-9 -22 -10 -55zM371 82h-2q-8 -42 -34 -67q-39 -34 -98 -34q-82 0 -130 52q-64 67 -64 193q0 99 41 160q59 86 193 92v-62q-80 -7 -115 -67q-28 -45 -26 -123q0 -106 35 -148
q25 -36 68 -36q65 0 81 69q6 28 6 99v68h88v-68q-1 -71 6 -99q14 -71 81 -69q39 0 68 36q35 44 35 148q0 78 -26 124q-18 28 -50.5 46.5t-64.5 19.5v62q129 -1 193 -93q41 -63 41 -159q0 -123 -64 -193q-49 -52 -130 -52q-61 0 -98 34q-28 23 -34 67z" />
    <glyph glyph-name="cyrOt" unicode="&#x47e;" horiz-adv-x="936" 
d="M428 840h-118v60h316v-60h-118v-80h-80v80zM469 120h-2q-11 -55 -47 -92q-50 -48 -135 -48q-57 1 -94 17.5t-67 55.5q-79 93 -79 279q0 77 11 134q11 52 41 106q79 147 243 149v-79q-107 -6 -157 -114q-38 -76 -38 -196q0 -160 49 -223q35 -51 93 -51q62 0 97 40
q20 23 27 58q8 34 10 141v93h94v-93q-1 -103 8 -141q9 -34 29 -58q33 -40 97 -40q55 0 93 51q47 63 49 223q0 117 -38 196q-53 108 -157 114v79q161 -2 243 -149q28 -51 40 -106q12 -54 12 -134q0 -185 -79 -279q-31 -39 -68 -56t-93 -17q-87 0 -135 48q-40 38 -47 92z" />
    <glyph glyph-name="cyrot" unicode="&#x47f;" horiz-adv-x="740" 
d="M335 640h-123v60h316v-60h-123v-72h-70v72zM371 82h-2q-8 -42 -34 -67q-39 -34 -98 -34q-83 0 -130 52q-64 69 -64 203q0 105 41 174q64 106 193 108v-62q-76 -6 -114 -81q-27 -56 -27 -139q0 -114 35 -158q27 -36 68 -36q38 0 63 28q12 17 18 43q6 27 6 97v68h88v-68
q-1 -68 5 -97q6 -27 19 -43q21 -28 63 -28q38 0 68 36q35 48 35 158q0 80 -27 139q-40 75 -114 81v62q128 -2 193 -108q41 -72 41 -174q-1 -134 -64 -203q-48 -52 -130 -52q-61 0 -98 34q-28 23 -34 67z" />
    <glyph glyph-name="cyrKoppa" unicode="&#x480;" horiz-adv-x="720" 
d="M672 493h-94q-6 68 -56.5 108.5t-136.5 40.5q-119 0 -180 -79q-60 -78 -60 -209q-1 -123 59 -211q62 -86 180 -85q69 0 120.5 36.5t73.5 100.5h94v-352h-94v222h-2q-61 -83 -202 -85q-152 0 -241 95q-88 94 -88 282q0 174 90.5 269t251.5 95q119 0 195.5 -61t89.5 -167z
" />
    <glyph glyph-name="cyrkoppa" unicode="&#x481;" horiz-adv-x="548" 
d="M429 181h84v-338h-88v192h-2q-39 -55 -135 -55q-122 0 -184 77t-60 201q0 122 59 196q60 74 183 74q92 0 152 -47t71 -132h-84q-19 117 -137 117q-72 0 -112 -53.5t-39 -154.5q0 -103 42 -159.5t115 -56.5q59 0 95 38.5t40 100.5z" />
    <glyph glyph-name="cyrthousandsign" unicode="&#x482;" horiz-adv-x="364" 
d="M200 190l67 116l55 -32l-67 -116l84 -50l-27 -46l-84 50l-38 -67l84 -49l-27 -46l-84 50l-70 -120l-55 32l70 119l-83 50l27 46l83 -50l38 67l-83 50l27 46z" />
    <glyph glyph-name="cyrtitlo" unicode="&#x483;" horiz-adv-x="2" 
d="M-449 580h-70v120h330v60h70v-120h-330v-60z" />
    <glyph glyph-name="cyrpalateroc" unicode="&#x484;" horiz-adv-x="2" 
d="M-343 562h-74q17 13 30 34q18 24 18 47q1 17 -22 48q-28 39 -28 68q0 23 18 51q12 16 26 30h74q-18 -18 -30 -34q-18 -28 -18 -47q0 -17 22 -48q29 -40 28 -68q0 -28 -18 -51q-12 -20 -26 -30z" />
    <glyph glyph-name="cyrdasiapneumata" unicode="&#x485;" horiz-adv-x="2" 
d="M-331 655l-16 45q39 12 74 14q41 0 63.5 -17.5t22.5 -46.5q1 -25 -17 -47.5t-47 -34.5h-60v4q24 9 39 26t15 33q0 15 -9.5 24t-27.5 9q-14 0 -37 -9z" />
    <glyph glyph-name="cyrpsilipneumata" unicode="&#x486;" horiz-adv-x="2" 
d="M-187 700l-16 -45q-22 9 -37 9q-37 -2 -37 -33q0 -16 15.5 -33t38.5 -26v-4h-60q-28 12 -46 34.5t-18 47.5q1 29 23 46t63 18q32 0 74 -14z" />
    <glyph glyph-name="cyrErcrossed" unicode="&#x48e;" horiz-adv-x="639" 
d="M85 700h285q237 0 237 -201q0 -51 -14.5 -91.5t-38 -62.5t-38.5 -32t-28 -15l92 -102l-52 -49l-103 115l-18 20q-16 -3 -46 -3h-182v-279h-94v700zM179 621v-263h159l-72 80l54 47l105 -118q86 28 86 130q0 65 -39 94.5t-121 29.5h-172z" />
    <glyph glyph-name="cyrercrossed" unicode="&#x48f;" horiz-adv-x="597" 
d="M72 508h82v-70h3q60 90 168 90q101 0 165 -69t64 -205q0 -108 -53 -192l79 -87l-52 -49l-78 88q-48 -34 -123 -34q-13 0 -29.5 2.5t-43.5 10.5t-52.5 28.5t-41.5 51.5v-258h-88v693zM360 220l79 -89q22 56 22 123q0 99 -40.5 155.5t-114.5 56.5q-17 0 -33.5 -3.5t-39 -17
t-39 -35t-28.5 -62.5t-12 -96q0 -107 48.5 -158.5t108.5 -51.5q53 0 87 30l-92 101z" />
    <glyph glyph-name="afii10050" unicode="&#x490;" horiz-adv-x="549" 
d="M179 621v-621h-94v700h357v158h87l7 -237h-357z" />
    <glyph glyph-name="afii10098" unicode="&#x491;" horiz-adv-x="433" 
d="M160 446v-446h-88v508h266v133h73l9 -195h-260z" />
    <glyph glyph-name="cyrGebar" unicode="&#x492;" horiz-adv-x="559" 
d="M194 393h220v-79h-220v-314h-94v314h-100v79h100v307h446v-79h-352v-228z" />
    <glyph glyph-name="cyrgebar" unicode="&#x493;" horiz-adv-x="433" 
d="M160 446v-164h150v-62h-150v-220h-88v220h-82v62h82v226h348v-62h-260z" />
    <glyph glyph-name="cyrGehook" unicode="&#x494;" horiz-adv-x="602" 
d="M179 621v-225q2 0 56.5 3.5t76.5 3.5q17 0 31 -1t40.5 -7t47.5 -17t46 -33t41.5 -53t27.5 -79.5t11 -108.5q0 -73 -17 -128.5t-42.5 -87.5t-60.5 -52t-66 -27t-65 -7q-49 0 -99 13v79q50 -13 91 -13q88 0 126.5 61.5t38.5 154.5q0 63 -12.5 108t-29 67.5t-43 35
t-43.5 14.5t-41 2q-54 0 -115 -7v-317h-94v700h446v-79h-352z" />
    <glyph glyph-name="cyrgehook" unicode="&#x495;" horiz-adv-x="457" 
d="M160 446v-140h40q20 0 32.5 -0.5t39 -5t44 -12t40 -24.5t36 -40.5t23 -60.5t9.5 -84q0 -134 -53 -198t-177 -66v65h22q114 0 114 199q0 33 -4 57.5t-16.5 51.5t-40 41.5t-69.5 14.5h-40v-244h-88v508h348v-62h-260z" />
    <glyph glyph-name="cyrZhedesc" unicode="&#x496;" horiz-adv-x="966" 
d="M407 0v349l-297 -349h-114l323 375l-309 325h112l285 -308v308h94v-308l285 308h112l-309 -325l255 -296h109l-7 -237h-82v158h-66l-297 349v-349h-94z" />
    <glyph glyph-name="cyrzhedesc" unicode="&#x497;" horiz-adv-x="728" 
d="M307 0v251l-202 -251h-109l233 267l-220 241h104l194 -230v230h88v-230l194 230h104l-220 -241l179 -205h72l-7 -194h-74v132h-46l-202 251v-251h-88z" />
    <glyph glyph-name="cyrZetail" unicode="&#x498;" horiz-adv-x="667" 
d="M45 215h94q12 -157 199 -157q94 0 134.5 41.5t40.5 97.5q0 132 -160 132h-92v79h83q19 0 36.5 2.5t44.5 12t43.5 34t16.5 62.5q0 42 -19.5 69.5t-51.5 37.5t-51 13t-39 3q-15 0 -29 -1t-42 -8.5t-48 -20.5t-36.5 -40.5t-17.5 -65.5h-94q13 215 274 215q117 0 183.5 -49.5
t66.5 -146.5q0 -58 -32.5 -100t-86.5 -52v-2q147 -34 147 -183q0 -92 -66 -148.5t-160 -58.5v-170h-90v169q-239 18 -248 235z" />
    <glyph glyph-name="cyrzetail" unicode="&#x499;" horiz-adv-x="517" 
d="M32 156h84q0 -48 35 -81t100 -33q60 0 96 25t36 75q0 91 -115 91h-75v62h65q106 0 106 79q0 13 -3.5 26t-14 29.5t-35.5 26.5t-62 10q-66 0 -93 -31t-27 -67h-84q3 53 27.5 88t62 49t64.5 18.5t55 4.5q51 0 90 -11.5t59.5 -27.5t33 -38t15.5 -38.5t3 -32.5
q0 -88 -88 -111v-3q42 -8 74.5 -36.5t32.5 -83.5q0 -36 -11.5 -64.5t-31 -45.5t-40 -29t-42.5 -17t-34.5 -7t-20.5 -2v-166h-78v165q-72 3 -125 46t-59 130z" />
    <glyph glyph-name="cyrKadesc" unicode="&#x49a;" horiz-adv-x="676" 
d="M179 381l315 319h115l-333 -324l280 -297h107l-7 -237h-82v158h-66l-329 365v-365h-94v700h94v-319z" />
    <glyph glyph-name="cyrkadesc" unicode="&#x49b;" horiz-adv-x="519" 
d="M160 286l217 222h103l-238 -236l193 -210h80l-7 -194h-74v132h-46l-228 254v-254h-88v508h88v-222z" />
    <glyph glyph-name="cyrKavertbar" unicode="&#x49c;" horiz-adv-x="640" 
d="M85 700h94v-288h70v140h80v-140l199 288h94l-224 -319l246 -381h-103l-212 333v-160h-80v160h-70v-333h-94v700z" />
    <glyph glyph-name="cyrkavertbar" unicode="&#x49d;" horiz-adv-x="540" 
d="M72 508h88v-207h52v120h62v-120l163 207h94l-198 -236l211 -272h-96l-174 239v-140h-62v140h-52v-239h-88v508z" />
    <glyph glyph-name="cyrKabar" unicode="&#x49e;" horiz-adv-x="636" 
d="M94 700h94v-60h117v-62h-117v-197l315 319h115l-333 -324l355 -376h-123l-329 365v-365h-94v578h-94v62h94v60z" />
    <glyph glyph-name="cyrkabar" unicode="&#x49f;" horiz-adv-x="497" 
d="M80 700h88v-63h211v-62h-211v-289l217 222h103l-238 -236l251 -272h-105l-228 254v-254h-88v575h-80v62h80v63z" />
    <glyph glyph-name="cyrKaback" unicode="&#x4a0;" horiz-adv-x="771" 
d="M323 381l315 319h115l-333 -324l355 -376h-123l-329 365v-365h-94v621h-216v79h310v-319z" />
    <glyph glyph-name="cyrkaback" unicode="&#x4a1;" horiz-adv-x="562" 
d="M233 286l217 222h103l-238 -236l251 -272h-105l-228 254v-254h-88v446h-132v62h220v-222z" />
    <glyph glyph-name="cyrEndesc" unicode="&#x4a2;" horiz-adv-x="736" 
d="M179 329v-329h-94v700h94v-292h352v292h94v-621h98l-7 -237h-82v158h-103v329h-352z" />
    <glyph glyph-name="cyrendesc" unicode="&#x4a3;" horiz-adv-x="591" 
d="M160 237v-237h-88v508h88v-209h251v209h88v-446h88l-7 -194h-74v132h-95v237h-251z" />
    <glyph glyph-name="cyrEnGe" unicode="&#x4a4;" horiz-adv-x="990" 
d="M179 329v-329h-94v700h94v-292h352v292h446v-79h-352v-621h-94v329h-352z" />
    <glyph glyph-name="cyrenge" unicode="&#x4a5;" horiz-adv-x="772" 
d="M160 237v-237h-88v508h88v-209h251v209h348v-62h-260v-446h-88v237h-251z" />
    <glyph glyph-name="cyrPehook" unicode="&#x4a6;" horiz-adv-x="1048" 
d="M179 621v-621h-94v700h540v-304q2 0 56.5 3.5t76.5 3.5q103 0 163 -54q82 -73 82 -238q0 -177 -91 -255q-66 -54 -160 -54q-49 0 -99 13v79q50 -13 91 -13q81 0 123 58q42 56 42 171q0 128 -56 181q-36 33 -114 33q-49 0 -114 -7v-317h-94v621h-352z" />
    <glyph glyph-name="cyrpehook" unicode="&#x4a7;" horiz-adv-x="792" 
d="M72 508h433v-202h40q107 0 158 -43q66 -58 66 -184q0 -151 -71 -216q-30 -28 -67.5 -37.5t-91.5 -10.5v65h22q53 0 86 51q28 47 28 148q0 87 -31 125q-38 40 -99 40h-40v-244h-88v446h-257v-446h-88v508z" />
    <glyph glyph-name="cyrOhook" unicode="&#x4a8;" horiz-adv-x="884" 
d="M445 719v-79q-24 2 -36 2q-130 0 -199 -81q-65 -78 -65 -207q0 -137 74 -215q79 -81 194 -81q23 0 55 5q-56 52 -91 125q-41 87 -41 178q1 52 10.5 93.5t26 69.5t32 45t36.5 33q64 44 151 44q126 0 188 -84q54 -72 54 -191q0 -157 -94 -262q-49 -56 -119 -87
q14 -13 50 -32q37 -16 77 -16q57 0 107 31v-84q-47 -26 -105 -26q-78 0 -144 37q-54 32 -78 56q-51 -14 -114 -14q-72 0 -134 17t-120 69q-115 105 -115 289q0 175 102 277q90 90 254 90q14 0 44 -2zM560 85q75 33 116 89q58 78 58 192q0 82 -27 134q-38 72 -117 72
q-72 0 -113 -52t-41 -150q0 -81 37 -164q32 -69 87 -121z" />
    <glyph glyph-name="cyrohook" unicode="&#x4a9;" horiz-adv-x="666" 
d="M330 526v-63q-18 3 -35 3q-76 0 -118 -58q-41 -54 -41 -148q0 -104 49 -158q50 -59 129 -59q9 0 27 2q-38 43 -58 92q-27 64 -27 133q0 91 41 144q49 64 139 64q94 0 144 -66q41 -55 41 -149q0 -108 -64 -180q-30 -34 -98 -70q22 -20 48 -31q21 -10 53 -10q52 0 96 28
v-70q-51 -20 -98 -20q-64 0 -111 29q-34 20 -64 49q-32 -7 -72 -7q-111 0 -184 69q-84 78 -84 209q0 128 75 203q66 66 174 66q12 0 38 -2zM419 63q47 22 74 64q35 53 35 133q0 67 -18 100q-26 56 -80 56q-37 0 -66 -34q-25 -34 -25 -103q0 -61 20 -116q22 -55 60 -100z" />
    <glyph glyph-name="cyrEstail" unicode="&#x4aa;" horiz-adv-x="712" 
d="M580 232h94q-13 -103 -76 -173.5t-171 -78.5v-169h-90v169q-123 7 -207.5 98.5t-84.5 259.5q0 184 87.5 283.5t242.5 99.5q64 0 114.5 -14.5t81 -37.5t51.5 -55.5t30 -63.5t13 -66h-94q-2 24 -11 47t-28.5 50.5t-60 44t-96.5 16.5q-63 0 -109.5 -25t-71.5 -68.5t-37 -95
t-12 -111.5q0 -125 64 -204.5t173 -79.5q83 0 138.5 49t59.5 125z" />
    <glyph glyph-name="cyrestail" unicode="&#x4ab;" horiz-adv-x="548" 
d="M428 181h84q-7 -74 -54.5 -134t-130.5 -66v-166h-78v166q-102 8 -154 86t-52 191q0 49 10.5 92.5t36 85.5t75.5 67t120 25q101 0 157.5 -51t65.5 -128h-84q-20 117 -137 117q-78 0 -114.5 -57.5t-36.5 -150.5q0 -94 39 -155t118 -61q67 0 99.5 43t35.5 96z" />
    <glyph glyph-name="cyrTedesc" unicode="&#x4ac;" horiz-adv-x="575" 
d="M241 621h-228v79h549v-79h-227v-542h98l-7 -237h-82v158h-103v621z" />
    <glyph glyph-name="cyrtedesc" unicode="&#x4ad;" horiz-adv-x="466" 
d="M189 446h-176v62h440v-62h-176v-384h88l-7 -194h-74v132h-95v446z" />
    <glyph glyph-name="cyrstraightU" unicode="&#x4ae;" horiz-adv-x="453" 
d="M227 376l194 324h112l-259 -408v-292h-94v292l-260 408h112z" />
    <glyph glyph-name="cyrstraightu" unicode="&#x4af;" horiz-adv-x="500" 
d="M206 -185v195l-199 498h100l143 -401l143 401h100l-199 -498v-195h-88z" />
    <glyph glyph-name="cyrstraightUbar" unicode="&#x4b0;" horiz-adv-x="691" 
d="M346 376l194 324h112l-259 -408v-63h150v-79h-150v-150h-94v150h-150v79h150v63l-260 408h112z" />
    <glyph glyph-name="cyrstraightubar" unicode="&#x4b1;" horiz-adv-x="500" 
d="M206 -185v123h-120v62h120v10l-199 498h100l143 -401l143 401h100l-199 -498v-10h120v-62h-120v-123h-88z" />
    <glyph glyph-name="cyrHadesc" unicode="&#x4b2;" horiz-adv-x="657" 
d="M305 425l175 275h117l-232 -342l189 -279h90l-7 -237h-82v158h-66l-184 291l-184 -291h-121l245 358l-232 342h117z" />
    <glyph glyph-name="cyrhadesc" unicode="&#x4b3;" horiz-adv-x="517" 
d="M242 320l130 188h98l-178 -243l147 -203h74l-7 -194h-74v132h-46l-144 209l-144 -209h-98l192 265l-178 243h98z" />
    <glyph glyph-name="cyrTeTse" unicode="&#x4b4;" horiz-adv-x="895" 
d="M241 621h-228v79h549v-79h-227v-542h355v621h94v-621h98l-7 -237h-82v158h-552v621z" />
    <glyph glyph-name="cyrtetse" unicode="&#x4b5;" horiz-adv-x="713" 
d="M189 446h-176v62h424v-62h-160v-384h256v446h88v-446h88l-7 -194h-74v132h-439v446z" />
    <glyph glyph-name="cyrChedesc" unicode="&#x4b6;" horiz-adv-x="662" 
d="M58 700h94v-205q0 -76 37.5 -97.5t131.5 -21.5q59 0 136 7v317h94v-621h98l-7 -237h-82v158h-103v304q-86 -7 -154 -7q-135 0 -190 37.5t-55 145.5v220z" />
    <glyph glyph-name="cyrchedesc" unicode="&#x4b7;" horiz-adv-x="528" 
d="M45 508h88v-156q0 -25 2 -36t12 -24.5t34.5 -18t66.5 -4.5q20 0 58 2q7 1 21 1h21v236h88v-446h88l-7 -194h-74v132h-95v210q-43 -3 -118 -3q-65 0 -104.5 9.5t-56 30.5t-20.5 39.5t-4 51.5v170z" />
    <glyph glyph-name="cyrChevertbar" unicode="&#x4b8;" horiz-adv-x="656" 
d="M58 700h94v-205q0 -65 29 -91.5t102 -27.5v140h80v-139q60 1 114 6v317h94v-700h-94v304q-60 -3 -114 -6v-161h-80v160q-114 -2 -169.5 36.5t-55.5 146.5v220z" />
    <glyph glyph-name="cyrchevertbar" unicode="&#x4b9;" horiz-adv-x="518" 
d="M45 508h88v-156q0 -16 0.5 -23.5t5 -21t13 -20t26.5 -12t44 -5.5v99h62v-99q11 1 35 1q26 0 39 1v236h88v-508h-88v210q-38 -3 -74 -3v-120h-62v120q-41 -1 -72 3.5t-50 15t-30.5 22t-16.5 29t-6.5 30t-1.5 31.5v170z" />
    <glyph glyph-name="cyrH" unicode="&#x4ba;" horiz-adv-x="637" 
d="M565 0h-94v268q0 76 -37.5 97.5t-131.5 21.5q-59 0 -136 -7v-380h-94v700h94v-241q86 7 154 7q135 0 190 -37.5t55 -145.5v-283z" />
    <glyph glyph-name="cyrh" unicode="&#x4bb;" horiz-adv-x="572" 
d="M72 700h88v-263q67 91 174 91q166 0 166 -190v-338h-88v311q0 27 -0.5 39.5t-5.5 39t-15.5 40t-32 25t-52.5 11.5q-23 0 -44 -6.5t-46 -24.5t-40.5 -58.5t-15.5 -99.5v-277h-88v700z" />
    <glyph glyph-name="cyrIehook" unicode="&#x4bc;" horiz-adv-x="905" 
d="M751 216h97q-26 -122 -123 -185q-80 -52 -197 -52q-130 0 -207 60q-70 50 -101 134.5t-31 165.5h-54q-67 0 -104 40q-31 33 -31 85q0 76 42 114q34 32 84 33v-83q-18 -2 -28 -14q-14 -16 -14 -42q0 -24 11 -36q12 -14 38 -14h60q6 71 39.5 135.5t85.5 104.5q79 59 205 59
q127 0 204 -61q69 -53 100.5 -141.5t29.5 -179.5h-568q0 -64 22 -127.5t65 -100.5q59 -53 153 -53q80 0 142 39q65 41 80 119zM292 422h463q-6 49 -27.5 94t-53.5 74q-58 52 -151 52q-91 0 -151 -52q-68 -61 -80 -168z" />
    <glyph glyph-name="cyriehook" unicode="&#x4bd;" horiz-adv-x="706" 
d="M574 147h84q-6 -30 -19 -56t-37.5 -52.5t-68 -42.5t-101.5 -16q-122 0 -188 72q-65 73 -65 182h-61q-64 0 -95 38q-23 28 -23 71q0 59 42 97q29 29 84 30v-62q-19 -1 -34 -14q-18 -16 -18 -46q0 -23 13 -36q14 -16 46 -16h48q5 97 64 162q66 70 182 70q125 0 187 -84
q27 -38 36.5 -87t12.5 -123h-391q0 -95 52 -147q42 -45 112 -45q57 0 93 30t45 75zM272 296h298q-2 71 -32 116q-36 54 -109 54t-114 -44q-43 -46 -43 -126z" />
    <glyph glyph-name="cyrIehookogonek" unicode="&#x4be;" horiz-adv-x="905" 
d="M751 216h97q-28 -123 -123 -185q-45 -28 -113 -44q-19 -15 -32.5 -40t-13.5 -50t11.5 -42t34.5 -17q22 0 33 16.5t11 35.5h74q-3 -46 -34.5 -80t-88.5 -34q-58 0 -94.5 27.5t-36.5 74.5q0 55 45 101q-116 -1 -200 60q-64 47 -98 127.5t-34 172.5h-54q-67 0 -104 40
q-31 33 -31 85q0 76 42 114q34 32 84 33v-83q-18 -2 -28 -14q-14 -16 -14 -42q0 -24 11 -36q12 -14 38 -14h60q6 71 39.5 135.5t85.5 104.5q79 59 205 59q127 0 204 -61q69 -53 100.5 -141.5t29.5 -179.5h-568q0 -64 22 -127.5t65 -100.5q59 -53 153 -53q80 0 142 39
q65 41 80 119zM292 422h463q-6 49 -27.5 94t-53.5 74q-58 52 -151 52q-91 0 -151 -52q-68 -61 -80 -168z" />
    <glyph glyph-name="cyriehookogonek" unicode="&#x4bf;" horiz-adv-x="706" 
d="M574 147h84q-9 -54 -44.5 -94.5t-91.5 -59.5q-53 -46 -53 -99q0 -21 11 -37t31 -16q19 0 32 13.5t12 36.5h71q-3 -49 -36 -79t-88 -30q-53 0 -86 28.5t-33 73.5q0 49 47 96q-113 -7 -186 72q-65 71 -65 182h-61q-64 0 -95 38q-23 28 -23 71q0 59 42 97q29 29 84 30v-62
q-19 -1 -34 -14q-18 -16 -18 -46q0 -23 13 -36q14 -16 46 -16h48q5 97 64 162q66 70 182 70q125 0 187 -84q27 -38 36.5 -87t12.5 -123h-391q0 -95 52 -147q43 -45 114 -45q57 0 92 29t44 76zM272 296h298q-2 71 -32 116q-36 54 -109 54t-114 -44q-43 -46 -43 -126z" />
    <glyph glyph-name="cyrI" unicode="&#x4c0;" horiz-adv-x="232" 
d="M72 700h88v-700h-88v700z" />
    <glyph glyph-name="cyrZhecyrbreve" unicode="&#x4c1;" horiz-adv-x="908" 
d="M407 0v349l-297 -349h-114l323 375l-309 325h112l285 -308v308h94v-308l285 308h112l-309 -325l323 -375h-114l-297 349v-349h-94zM271 870h78q1 -38 30 -61t75 -23q55 0 78.5 26.5t26.5 57.5h78q-5 -25 -15 -46.5t-29.5 -44t-55 -36t-83.5 -13.5t-83.5 13.5t-55 36
t-29.5 44t-15 46.5z" />
    <glyph glyph-name="cyrzhecyrbreve" unicode="&#x4c2;" horiz-adv-x="702" 
d="M307 0v251l-202 -251h-109l233 267l-220 241h104l194 -230v230h88v-230l194 230h104l-220 -241l233 -267h-109l-202 251v-251h-88zM179 700h74q3 -33 27 -56t71 -23t71 23t27 56h74q-8 -51 -48.5 -91.5t-123.5 -40.5t-123.5 40.5t-48.5 91.5z" />
    <glyph glyph-name="cyrKahook" unicode="&#x4c3;" horiz-adv-x="663" 
d="M179 381l315 319h115l-333 -324l297 -314q52 0 91 -28.5t39 -88.5q0 -142 -173 -145v62q34 0 63.5 17.5t29.5 59.5q0 27 -16.5 44t-43.5 17h-55l-329 365v-365h-94v700h94v-319z" />
    <glyph glyph-name="cyrkahook" unicode="&#x4c4;" horiz-adv-x="525" 
d="M160 286l217 222h103l-238 -236l194 -210q19 0 37.5 -5t38 -17t31.5 -36.5t12 -58.5q0 -79 -47.5 -112t-114.5 -33v62q32 0 62 17.5t30 59.5q0 27 -16 44t-43 17h-38l-228 254v-254h-88v508h88v-222z" />
    <glyph glyph-name="cyrEnhook" unicode="&#x4c7;" horiz-adv-x="715" 
d="M179 329v-329h-94v700h94v-292h352v292h94v-638q52 0 91 -28.5t39 -88.5q0 -142 -173 -145v62q34 0 63.5 17.5t29.5 59.5q0 27 -16.5 44t-43.5 17h-84v329h-352z" />
    <glyph glyph-name="cyrenhook" unicode="&#x4c8;" horiz-adv-x="588" 
d="M160 237v-237h-88v508h88v-209h251v209h88v-446q19 0 37.5 -5t38 -17t31.5 -36.5t12 -58.5q0 -79 -47.5 -112t-114.5 -33v62q32 0 62 17.5t30 59.5q0 27 -16 44t-43 17h-78v237h-251z" />
    <glyph glyph-name="cyrChedescleft" unicode="&#x4cb;" horiz-adv-x="636" 
d="M58 700h94v-205q0 -76 37.5 -97.5t131.5 -21.5q59 0 136 7v317h94v-700h-103v-158h-82l-7 237h98v225q-86 -7 -154 -7q-135 0 -190 37.5t-55 145.5v220z" />
    <glyph glyph-name="cyrchedescleft" unicode="&#x4cc;" horiz-adv-x="508" 
d="M45 508h88v-156q0 -25 2 -36t12 -24.5t34.5 -18t66.5 -4.5q20 0 58 2q7 1 21 1h21v236h88v-508h-95v-132h-74l-7 194h88v148q-43 -3 -118 -3q-65 0 -104.5 9.5t-56 30.5t-20.5 39.5t-4 51.5v170z" />
    <glyph glyph-name="cyrEmtail" unicode="&#x4cd;" horiz-adv-x="895" 
d="M407 0l-228 588h-2l2 -27v-561h-94v700h141l219 -576l219 576h141v-638q52 0 91 -28.5t39 -88.5q0 -142 -173 -145v62q34 0 63.5 17.5t29.5 59.5q0 27 -16.5 44t-43.5 17h-84v561l2 27h-3l-227 -588h-76z" />
    <glyph glyph-name="cyremtail" unicode="&#x4ce;" horiz-adv-x="749" 
d="M332 0l-172 408h-2l2 -27v-381h-88v508h121l173 -413l173 413h121v-446q45 0 78 -25q41 -32 41 -95q0 -82 -57 -117q-39 -25 -105 -25v62q32 0 62 17.5t30 59.5q0 27 -16 44t-43 17h-78v381l3 27h-3l-172 -408h-68z" />
    <glyph glyph-name="cyrAcyrbreve" unicode="&#x4d0;" horiz-adv-x="622" 
d="M163 181l-66 -181h-101l265 700h100l265 -700h-101l-66 181h-296zM189 260h244l-122 345zM128 870h78q1 -38 30 -61t75 -23q55 0 78.5 26.5t26.5 57.5h78q-28 -140 -183 -140t-183 140z" />
    <glyph glyph-name="cyracyrbreve" unicode="&#x4d1;" horiz-adv-x="553" 
d="M139 358h-84q0 29 9 56t31 54t67 43.5t109 16.5q36 0 67.5 -6.5t64.5 -23t52 -53t18 -88.5l-5 -235q0 -19 1 -27t5.5 -18t15.5 -13t31 -2v-62q-16 -4 -40 -4q-42 0 -62.5 14t-28.5 60q-25 -46 -71.5 -68t-102.5 -22q-84 0 -131.5 38t-47.5 115q0 71 52 109.5t197 51.5
q66 4 80 13q19 13 19 57q0 102 -114 102q-135 0 -132 -108zM383 217l2 43q-9 -7 -21.5 -11.5t-22.5 -6t-31.5 -3.5t-36.5 -4q-80 -13 -101 -23q-44 -21 -44 -76q0 -44 27 -69t71 -25q28 0 53 8t48 26.5t38 54.5t18 86zM104 700h74q3 -33 27 -56t71 -23t71 23t27 56h74
q-8 -51 -48.5 -91.5t-123.5 -40.5t-123.5 40.5t-48.5 91.5z" />
    <glyph glyph-name="cyrAdieresis" unicode="&#x4d2;" horiz-adv-x="622" 
d="M163 181l-66 -181h-101l265 700h100l265 -700h-101l-66 181h-296zM189 260h244l-122 345zM156 772v79h94v-79h-94zM372 772v79h94v-79h-94z" />
    <glyph glyph-name="cyradieresis" unicode="&#x4d3;" horiz-adv-x="553" 
d="M139 358h-84q0 29 9 56t31 54t67 43.5t109 16.5q36 0 67.5 -6.5t64.5 -23t52 -53t18 -88.5l-5 -235q0 -19 1 -27t5.5 -18t15.5 -13t31 -2v-62q-16 -4 -40 -4q-42 0 -62.5 14t-28.5 60q-25 -46 -71.5 -68t-102.5 -22q-84 0 -131.5 38t-47.5 115q0 71 52 109.5t197 51.5
q66 4 80 13q19 13 19 57q0 102 -114 102q-135 0 -132 -108zM383 217l2 43q-9 -7 -21.5 -11.5t-22.5 -6t-31.5 -3.5t-36.5 -4q-80 -13 -101 -23q-44 -21 -44 -76q0 -44 27 -69t71 -25q28 0 53 8t48 26.5t38 54.5t18 86zM133 608v92h88v-92h-88zM331 608v92h88v-92h-88z" />
    <glyph glyph-name="cyrAE" unicode="&#x4d4;" horiz-adv-x="996" 
d="M470 0v181h-264l-99 -181h-111l390 700h583v-79h-405v-220h366v-79h-366v-243h415v-79h-509zM470 260v361h-27l-195 -361h222z" />
    <glyph glyph-name="cyrae" unicode="&#x4d5;" horiz-adv-x="914" 
d="M144 358h-84q-2 73 52.5 121.5t162.5 48.5q140 0 174 -86q56 86 183 86q32 0 60.5 -4.5t62.5 -21.5t58.5 -45t41 -79t16.5 -119v-25h-393q0 -32 8 -63t25 -61.5t50 -49t77 -18.5q110 0 140 105h84q-5 -30 -18.5 -57t-38 -53t-66 -41.5t-95.5 -15.5q-31 0 -54 3
t-54.5 12.5t-58 33.5t-46.5 61q-62 -110 -198 -110q-196 0 -196 153q0 71 53 110.5t199 50.5q67 4 82 13q19 13 19 57q0 102 -114 102q-135 0 -132 -108zM390 217v43q-10 -7 -22.5 -11t-22 -5.5t-32 -4t-37.5 -4.5q-5 -1 -22.5 -3.5t-23 -3.5t-20.5 -4.5t-20 -5.5
l-16.5 -6.5t-16 -9l-12 -11.5t-10 -14.5t-5 -18t-2.5 -22.5q0 -38 25.5 -66t77.5 -28q47 0 80.5 18.5t49.5 47.5t22.5 56t6.5 53zM478 296h302q1 28 -5 55.5t-21 54.5t-45.5 43.5t-73.5 16.5q-77 0 -117 -49.5t-40 -120.5z" />
    <glyph glyph-name="cyrIecyrbreve" unicode="&#x4d6;" horiz-adv-x="612" 
d="M179 401h367v-79h-367v-243h416v-79h-510v700h499v-79h-405v-220zM123 870h78q1 -38 30 -61t75 -23q55 0 78.5 26.5t26.5 57.5h78q-5 -25 -15 -46.5t-29.5 -44t-55 -36t-83.5 -13.5t-83.5 13.5t-55 36t-29.5 44t-15 46.5z" />
    <glyph glyph-name="cyriecyrbreve" unicode="&#x4d7;" horiz-adv-x="570" 
d="M438 147h84q-12 -67 -64.5 -117t-157.5 -50q-52 0 -93.5 13t-67.5 32.5t-45.5 47.5t-29 52t-14.5 53t-6 44t-1 30q0 29 3 56.5t17 70t38.5 73t73.5 53.5t116 23q58 0 101.5 -18t67.5 -44t39 -65.5t20 -71t7 -70.5q0 -4 0.5 -12.5t0.5 -12.5h-391q0 -75 40.5 -133.5
t120.5 -58.5q60 0 96 29.5t45 75.5zM136 296h298q-1 30 -7.5 56t-20.5 53.5t-43 44t-70 16.5q-46 0 -79 -17t-49 -44.5t-22.5 -54t-6.5 -54.5zM113 700h74q3 -33 27 -56t71 -23t71 23t27 56h74q-8 -51 -48.5 -91.5t-123.5 -40.5t-123.5 40.5t-48.5 91.5z" />
    <glyph glyph-name="cyrinvE" unicode="&#x4d8;" horiz-adv-x="764" 
d="M48 361h568q-1 69 -19 122t-43 82t-58 47.5t-60 24t-54 5.5q-19 0 -38 -1.5t-52 -10.5t-58.5 -24.5t-48.5 -47t-31 -74.5h-97q23 116 110.5 176.5t214.5 60.5q152 0 243 -96t91 -275q0 -75 -17 -135.5t-41.5 -98.5t-60 -65.5t-65.5 -41t-65.5 -21t-52 -8.5t-32.5 -1
q-77 0 -138 25t-97.5 64t-60 91t-31.5 102t-7 100zM613 278h-463q3 -26 10.5 -52.5t25 -58t42 -54.5t64.5 -39t90 -16q105 0 164.5 65t66.5 155z" />
    <glyph glyph-name="cyrinve" unicode="&#x4d9;" horiz-adv-x="570" 
d="M136 361h-84q9 46 33.5 80t50.5 50t59 25t49 10.5t30 1.5q51 0 92 -13t67 -32t45 -46.5t28 -51.5t14 -53t6 -44t1 -32q0 -55 -12 -100t-30 -73t-44 -49t-48 -31t-48 -15.5t-39.5 -6.5t-26.5 -1q-242 0 -236 294h391q0 30 -7.5 61t-24.5 62t-49 50t-76 19q-50 0 -91.5 -28
t-49.5 -77zM434 212h-299q1 -46 14.5 -80t30 -50.5t39 -26.5t34.5 -11.5t24 -1.5q149 0 157 170z" />
    </font>
</defs>
</svg>
